M48
; DRILL file {KiCad 7.0.5} date Sun Jun 25 17:44:09 2023
; FORMAT={-:-/ absolute / inch / decimal}
; #@! TF.CreationDate,2023-06-25T17:44:09+02:00
; #@! TF.GenerationSoftware,Kicad,Pcbnew,7.0.5
; #@! TF.FileFunction,Plated,1,2,PTH
FMAT,2
INCH
; #@! TA.AperFunction,Plated,PTH,ComponentDrill
T1C0.0300
; #@! TA.AperFunction,Plated,PTH,ComponentDrill
T2C0.0315
; #@! TA.AperFunction,Plated,PTH,ComponentDrill
T3C0.0394
; #@! TA.AperFunction,Plated,PTH,ComponentDrill
T4C0.0433
%
G90
G05
T1
X7.34Y-1.755
X7.34Y-1.855
X7.34Y-1.955
X7.34Y-2.055
X7.45Y-2.775
X7.45Y-2.875
X7.45Y-2.975
X7.45Y-3.075
X7.45Y-3.175
X7.45Y-3.275
X7.45Y-3.375
T2
X6.43Y-4.215
X6.43Y-4.615
X6.78Y-4.21
X6.78Y-4.61
X7.21Y-3.935
X7.61Y-3.935
T3
X5.54Y-3.035
X5.54Y-3.135
X5.54Y-3.235
X5.54Y-3.335
X5.54Y-3.435
X5.54Y-3.535
X5.54Y-3.635
X5.54Y-3.735
X5.54Y-3.835
X5.54Y-3.935
X5.54Y-4.035
X5.54Y-4.135
X5.54Y-4.235
X5.54Y-4.335
X5.54Y-4.435
X6.14Y-3.035
X6.14Y-3.135
X6.14Y-3.235
X6.14Y-3.335
X6.14Y-3.435
X6.14Y-3.535
X6.14Y-3.635
X6.14Y-3.735
X6.14Y-3.835
X6.14Y-3.935
X6.14Y-4.035
X6.14Y-4.135
X6.14Y-4.235
X6.14Y-4.335
X6.14Y-4.435
X7.05Y-4.385
X7.05Y-4.485
X7.05Y-4.585
T4
X6.3241Y-3.8264
X6.3241Y-4.0036
X6.58Y-3.8264
X6.58Y-4.0036
X6.752Y-3.8264
X6.752Y-4.0036
X7.008Y-3.8264
X7.008Y-4.0036
T3
G00X7.3829Y-4.1188
M15
G01X7.4617Y-4.1188
M16
G05
G00X7.3829Y-4.355
M15
G01X7.4617Y-4.355
M16
G05
G00X7.6073Y-4.2763
M15
G01X7.6073Y-4.1975
M16
G05
T0
M30
