%TF.GenerationSoftware,KiCad,Pcbnew,7.0.5*%
%TF.CreationDate,2023-06-25T17:44:10+02:00*%
%TF.ProjectId,test,74657374-2e6b-4696-9361-645f70636258,rev?*%
%TF.SameCoordinates,Original*%
%TF.FileFunction,Drillmap*%
%TF.FilePolarity,Positive*%
%FSLAX45Y45*%
G04 Gerber Fmt 4.5, Leading zero omitted, Abs format (unit mm)*
G04 Created by KiCad (PCBNEW 7.0.5) date 2023-06-25 17:44:10*
%MOMM*%
%LPD*%
G01*
G04 APERTURE LIST*
%ADD10C,0.100000*%
%ADD11C,0.200000*%
%ADD12C,0.076200*%
%ADD13C,0.080000*%
%ADD14C,0.110000*%
G04 APERTURE END LIST*
D10*
X13690600Y-3263900D02*
X19659600Y-3263900D01*
X19659600Y-12001500D01*
X13690600Y-12001500D01*
X13690600Y-3263900D01*
D11*
D12*
X18605500Y-4419600D02*
X18681700Y-4495800D01*
X18681700Y-4419600D02*
X18605500Y-4495800D01*
X18605500Y-4673600D02*
X18681700Y-4749800D01*
X18681700Y-4673600D02*
X18605500Y-4749800D01*
X18605500Y-4927600D02*
X18681700Y-5003800D01*
X18681700Y-4927600D02*
X18605500Y-5003800D01*
X18605500Y-5181600D02*
X18681700Y-5257800D01*
X18681700Y-5181600D02*
X18605500Y-5257800D01*
X18884900Y-7010400D02*
X18961100Y-7086600D01*
X18961100Y-7010400D02*
X18884900Y-7086600D01*
X18884900Y-7264400D02*
X18961100Y-7340600D01*
X18961100Y-7264400D02*
X18884900Y-7340600D01*
X18884900Y-7518400D02*
X18961100Y-7594600D01*
X18961100Y-7518400D02*
X18884900Y-7594600D01*
X18884900Y-7772400D02*
X18961100Y-7848600D01*
X18961100Y-7772400D02*
X18884900Y-7848600D01*
X18884900Y-8026400D02*
X18961100Y-8102600D01*
X18961100Y-8026400D02*
X18884900Y-8102600D01*
X18884900Y-8280400D02*
X18961100Y-8356600D01*
X18961100Y-8280400D02*
X18884900Y-8356600D01*
X18884900Y-8534400D02*
X18961100Y-8610600D01*
X18961100Y-8534400D02*
X18884900Y-8610600D01*
D13*
X16372200Y-10706100D02*
G75*
G03*
X16372200Y-10706100I-40000J0D01*
G01*
X16372200Y-11722100D02*
G75*
G03*
X16372200Y-11722100I-40000J0D01*
G01*
X17261200Y-10693400D02*
G75*
G03*
X17261200Y-10693400I-40000J0D01*
G01*
X17261200Y-11709400D02*
G75*
G03*
X17261200Y-11709400I-40000J0D01*
G01*
X18353400Y-9994900D02*
G75*
G03*
X18353400Y-9994900I-40000J0D01*
G01*
X19369400Y-9994900D02*
G75*
G03*
X19369400Y-9994900I-40000J0D01*
G01*
D10*
X14071600Y-7658900D02*
X14071600Y-7758900D01*
X14021600Y-7708900D02*
X14121600Y-7708900D01*
X14071600Y-7912900D02*
X14071600Y-8012900D01*
X14021600Y-7962900D02*
X14121600Y-7962900D01*
X14071600Y-8166900D02*
X14071600Y-8266900D01*
X14021600Y-8216900D02*
X14121600Y-8216900D01*
X14071600Y-8420900D02*
X14071600Y-8520900D01*
X14021600Y-8470900D02*
X14121600Y-8470900D01*
X14071600Y-8674900D02*
X14071600Y-8774900D01*
X14021600Y-8724900D02*
X14121600Y-8724900D01*
X14071600Y-8928900D02*
X14071600Y-9028900D01*
X14021600Y-8978900D02*
X14121600Y-8978900D01*
X14071600Y-9182900D02*
X14071600Y-9282900D01*
X14021600Y-9232900D02*
X14121600Y-9232900D01*
X14071600Y-9436900D02*
X14071600Y-9536900D01*
X14021600Y-9486900D02*
X14121600Y-9486900D01*
X14071600Y-9690900D02*
X14071600Y-9790900D01*
X14021600Y-9740900D02*
X14121600Y-9740900D01*
X14071600Y-9944900D02*
X14071600Y-10044900D01*
X14021600Y-9994900D02*
X14121600Y-9994900D01*
X14071600Y-10198900D02*
X14071600Y-10298900D01*
X14021600Y-10248900D02*
X14121600Y-10248900D01*
X14071600Y-10452900D02*
X14071600Y-10552900D01*
X14021600Y-10502900D02*
X14121600Y-10502900D01*
X14071600Y-10706900D02*
X14071600Y-10806900D01*
X14021600Y-10756900D02*
X14121600Y-10756900D01*
X14071600Y-10960900D02*
X14071600Y-11060900D01*
X14021600Y-11010900D02*
X14121600Y-11010900D01*
X14071600Y-11214900D02*
X14071600Y-11314900D01*
X14021600Y-11264900D02*
X14121600Y-11264900D01*
X15595600Y-7658900D02*
X15595600Y-7758900D01*
X15545600Y-7708900D02*
X15645600Y-7708900D01*
X15595600Y-7912900D02*
X15595600Y-8012900D01*
X15545600Y-7962900D02*
X15645600Y-7962900D01*
X15595600Y-8166900D02*
X15595600Y-8266900D01*
X15545600Y-8216900D02*
X15645600Y-8216900D01*
X15595600Y-8420900D02*
X15595600Y-8520900D01*
X15545600Y-8470900D02*
X15645600Y-8470900D01*
X15595600Y-8674900D02*
X15595600Y-8774900D01*
X15545600Y-8724900D02*
X15645600Y-8724900D01*
X15595600Y-8928900D02*
X15595600Y-9028900D01*
X15545600Y-8978900D02*
X15645600Y-8978900D01*
X15595600Y-9182900D02*
X15595600Y-9282900D01*
X15545600Y-9232900D02*
X15645600Y-9232900D01*
X15595600Y-9436900D02*
X15595600Y-9536900D01*
X15545600Y-9486900D02*
X15645600Y-9486900D01*
X15595600Y-9690900D02*
X15595600Y-9790900D01*
X15545600Y-9740900D02*
X15645600Y-9740900D01*
X15595600Y-9944900D02*
X15595600Y-10044900D01*
X15545600Y-9994900D02*
X15645600Y-9994900D01*
X15595600Y-10198900D02*
X15595600Y-10298900D01*
X15545600Y-10248900D02*
X15645600Y-10248900D01*
X15595600Y-10452900D02*
X15595600Y-10552900D01*
X15545600Y-10502900D02*
X15645600Y-10502900D01*
X15595600Y-10706900D02*
X15595600Y-10806900D01*
X15545600Y-10756900D02*
X15645600Y-10756900D01*
X15595600Y-10960900D02*
X15595600Y-11060900D01*
X15545600Y-11010900D02*
X15645600Y-11010900D01*
X15595600Y-11214900D02*
X15595600Y-11314900D01*
X15545600Y-11264900D02*
X15645600Y-11264900D01*
X17907000Y-11087900D02*
X17907000Y-11187900D01*
X17857000Y-11137900D02*
X17957000Y-11137900D01*
X17907000Y-11341900D02*
X17907000Y-11441900D01*
X17857000Y-11391900D02*
X17957000Y-11391900D01*
X17907000Y-11595900D02*
X17907000Y-11695900D01*
X17857000Y-11645900D02*
X17957000Y-11645900D01*
X18852650Y-10411700D02*
X18852650Y-10511700D01*
X18802650Y-10461700D02*
X18902650Y-10461700D01*
D11*
X18752650Y-10511700D02*
X18952650Y-10511700D01*
X18952650Y-10511700D02*
G75*
G03*
X18952650Y-10411700I0J50000D01*
G01*
X18952650Y-10411700D02*
X18752650Y-10411700D01*
X18752650Y-10411700D02*
G75*
G03*
X18752650Y-10511700I0J-50000D01*
G01*
D10*
X18852650Y-11011700D02*
X18852650Y-11111700D01*
X18802650Y-11061700D02*
X18902650Y-11061700D01*
D11*
X18752650Y-11111700D02*
X18952650Y-11111700D01*
X18952650Y-11111700D02*
G75*
G03*
X18952650Y-11011700I0J50000D01*
G01*
X18952650Y-11011700D02*
X18752650Y-11011700D01*
X18752650Y-11011700D02*
G75*
G03*
X18752650Y-11111700I0J-50000D01*
G01*
D10*
X19322650Y-10711700D02*
X19322650Y-10811700D01*
X19272650Y-10761700D02*
X19372650Y-10761700D01*
D11*
X19372650Y-10861700D02*
X19372650Y-10661700D01*
X19372650Y-10661700D02*
G75*
G03*
X19272650Y-10661700I-50000J0D01*
G01*
X19272650Y-10661700D02*
X19272650Y-10861700D01*
X19272650Y-10861700D02*
G75*
G03*
X19372650Y-10861700I50000J0D01*
G01*
D14*
X16102091Y-9757991D02*
X16102091Y-9680209D01*
X16024309Y-9680209D01*
X16024309Y-9757991D01*
X16102091Y-9757991D01*
X16102091Y-10207991D02*
X16102091Y-10130209D01*
X16024309Y-10130209D01*
X16024309Y-10207991D01*
X16102091Y-10207991D01*
X16752091Y-9757991D02*
X16752091Y-9680209D01*
X16674309Y-9680209D01*
X16674309Y-9757991D01*
X16752091Y-9757991D01*
X16752091Y-10207991D02*
X16752091Y-10130209D01*
X16674309Y-10130209D01*
X16674309Y-10207991D01*
X16752091Y-10207991D01*
X17189091Y-9757991D02*
X17189091Y-9680209D01*
X17111309Y-9680209D01*
X17111309Y-9757991D01*
X17189091Y-9757991D01*
X17189091Y-10207991D02*
X17189091Y-10130209D01*
X17111309Y-10130209D01*
X17111309Y-10207991D01*
X17189091Y-10207991D01*
X17839091Y-9757991D02*
X17839091Y-9680209D01*
X17761309Y-9680209D01*
X17761309Y-9757991D01*
X17839091Y-9757991D01*
X17839091Y-10207991D02*
X17839091Y-10130209D01*
X17761309Y-10130209D01*
X17761309Y-10207991D01*
X17839091Y-10207991D01*
D11*
X13946377Y-12317984D02*
X13946377Y-12117984D01*
X13946377Y-12117984D02*
X13993996Y-12117984D01*
X13993996Y-12117984D02*
X14022567Y-12127508D01*
X14022567Y-12127508D02*
X14041615Y-12146555D01*
X14041615Y-12146555D02*
X14051139Y-12165603D01*
X14051139Y-12165603D02*
X14060662Y-12203698D01*
X14060662Y-12203698D02*
X14060662Y-12232269D01*
X14060662Y-12232269D02*
X14051139Y-12270365D01*
X14051139Y-12270365D02*
X14041615Y-12289412D01*
X14041615Y-12289412D02*
X14022567Y-12308460D01*
X14022567Y-12308460D02*
X13993996Y-12317984D01*
X13993996Y-12317984D02*
X13946377Y-12317984D01*
X14146377Y-12317984D02*
X14146377Y-12184650D01*
X14146377Y-12222746D02*
X14155901Y-12203698D01*
X14155901Y-12203698D02*
X14165424Y-12194174D01*
X14165424Y-12194174D02*
X14184472Y-12184650D01*
X14184472Y-12184650D02*
X14203520Y-12184650D01*
X14270186Y-12317984D02*
X14270186Y-12184650D01*
X14270186Y-12117984D02*
X14260662Y-12127508D01*
X14260662Y-12127508D02*
X14270186Y-12137031D01*
X14270186Y-12137031D02*
X14279710Y-12127508D01*
X14279710Y-12127508D02*
X14270186Y-12117984D01*
X14270186Y-12117984D02*
X14270186Y-12137031D01*
X14393996Y-12317984D02*
X14374948Y-12308460D01*
X14374948Y-12308460D02*
X14365424Y-12289412D01*
X14365424Y-12289412D02*
X14365424Y-12117984D01*
X14498758Y-12317984D02*
X14479710Y-12308460D01*
X14479710Y-12308460D02*
X14470186Y-12289412D01*
X14470186Y-12289412D02*
X14470186Y-12117984D01*
X14727329Y-12317984D02*
X14727329Y-12117984D01*
X14727329Y-12117984D02*
X14793996Y-12260841D01*
X14793996Y-12260841D02*
X14860662Y-12117984D01*
X14860662Y-12117984D02*
X14860662Y-12317984D01*
X15041615Y-12317984D02*
X15041615Y-12213222D01*
X15041615Y-12213222D02*
X15032091Y-12194174D01*
X15032091Y-12194174D02*
X15013043Y-12184650D01*
X15013043Y-12184650D02*
X14974948Y-12184650D01*
X14974948Y-12184650D02*
X14955901Y-12194174D01*
X15041615Y-12308460D02*
X15022567Y-12317984D01*
X15022567Y-12317984D02*
X14974948Y-12317984D01*
X14974948Y-12317984D02*
X14955901Y-12308460D01*
X14955901Y-12308460D02*
X14946377Y-12289412D01*
X14946377Y-12289412D02*
X14946377Y-12270365D01*
X14946377Y-12270365D02*
X14955901Y-12251317D01*
X14955901Y-12251317D02*
X14974948Y-12241793D01*
X14974948Y-12241793D02*
X15022567Y-12241793D01*
X15022567Y-12241793D02*
X15041615Y-12232269D01*
X15136853Y-12184650D02*
X15136853Y-12384650D01*
X15136853Y-12194174D02*
X15155901Y-12184650D01*
X15155901Y-12184650D02*
X15193996Y-12184650D01*
X15193996Y-12184650D02*
X15213043Y-12194174D01*
X15213043Y-12194174D02*
X15222567Y-12203698D01*
X15222567Y-12203698D02*
X15232091Y-12222746D01*
X15232091Y-12222746D02*
X15232091Y-12279888D01*
X15232091Y-12279888D02*
X15222567Y-12298936D01*
X15222567Y-12298936D02*
X15213043Y-12308460D01*
X15213043Y-12308460D02*
X15193996Y-12317984D01*
X15193996Y-12317984D02*
X15155901Y-12317984D01*
X15155901Y-12317984D02*
X15136853Y-12308460D01*
X15317805Y-12298936D02*
X15327329Y-12308460D01*
X15327329Y-12308460D02*
X15317805Y-12317984D01*
X15317805Y-12317984D02*
X15308282Y-12308460D01*
X15308282Y-12308460D02*
X15317805Y-12298936D01*
X15317805Y-12298936D02*
X15317805Y-12317984D01*
X15317805Y-12194174D02*
X15327329Y-12203698D01*
X15327329Y-12203698D02*
X15317805Y-12213222D01*
X15317805Y-12213222D02*
X15308282Y-12203698D01*
X15308282Y-12203698D02*
X15317805Y-12194174D01*
X15317805Y-12194174D02*
X15317805Y-12213222D01*
D12*
X13609400Y-12608400D02*
X13685600Y-12684600D01*
X13685600Y-12608400D02*
X13609400Y-12684600D01*
D11*
X13984472Y-12537984D02*
X14003520Y-12537984D01*
X14003520Y-12537984D02*
X14022567Y-12547508D01*
X14022567Y-12547508D02*
X14032091Y-12557031D01*
X14032091Y-12557031D02*
X14041615Y-12576079D01*
X14041615Y-12576079D02*
X14051139Y-12614174D01*
X14051139Y-12614174D02*
X14051139Y-12661793D01*
X14051139Y-12661793D02*
X14041615Y-12699888D01*
X14041615Y-12699888D02*
X14032091Y-12718936D01*
X14032091Y-12718936D02*
X14022567Y-12728460D01*
X14022567Y-12728460D02*
X14003520Y-12737984D01*
X14003520Y-12737984D02*
X13984472Y-12737984D01*
X13984472Y-12737984D02*
X13965424Y-12728460D01*
X13965424Y-12728460D02*
X13955901Y-12718936D01*
X13955901Y-12718936D02*
X13946377Y-12699888D01*
X13946377Y-12699888D02*
X13936853Y-12661793D01*
X13936853Y-12661793D02*
X13936853Y-12614174D01*
X13936853Y-12614174D02*
X13946377Y-12576079D01*
X13946377Y-12576079D02*
X13955901Y-12557031D01*
X13955901Y-12557031D02*
X13965424Y-12547508D01*
X13965424Y-12547508D02*
X13984472Y-12537984D01*
X14136853Y-12718936D02*
X14146377Y-12728460D01*
X14146377Y-12728460D02*
X14136853Y-12737984D01*
X14136853Y-12737984D02*
X14127329Y-12728460D01*
X14127329Y-12728460D02*
X14136853Y-12718936D01*
X14136853Y-12718936D02*
X14136853Y-12737984D01*
X14213043Y-12537984D02*
X14346377Y-12537984D01*
X14346377Y-12537984D02*
X14260662Y-12737984D01*
X14508282Y-12537984D02*
X14470186Y-12537984D01*
X14470186Y-12537984D02*
X14451139Y-12547508D01*
X14451139Y-12547508D02*
X14441615Y-12557031D01*
X14441615Y-12557031D02*
X14422567Y-12585603D01*
X14422567Y-12585603D02*
X14413043Y-12623698D01*
X14413043Y-12623698D02*
X14413043Y-12699888D01*
X14413043Y-12699888D02*
X14422567Y-12718936D01*
X14422567Y-12718936D02*
X14432091Y-12728460D01*
X14432091Y-12728460D02*
X14451139Y-12737984D01*
X14451139Y-12737984D02*
X14489234Y-12737984D01*
X14489234Y-12737984D02*
X14508282Y-12728460D01*
X14508282Y-12728460D02*
X14517805Y-12718936D01*
X14517805Y-12718936D02*
X14527329Y-12699888D01*
X14527329Y-12699888D02*
X14527329Y-12652269D01*
X14527329Y-12652269D02*
X14517805Y-12633222D01*
X14517805Y-12633222D02*
X14508282Y-12623698D01*
X14508282Y-12623698D02*
X14489234Y-12614174D01*
X14489234Y-12614174D02*
X14451139Y-12614174D01*
X14451139Y-12614174D02*
X14432091Y-12623698D01*
X14432091Y-12623698D02*
X14422567Y-12633222D01*
X14422567Y-12633222D02*
X14413043Y-12652269D01*
X14603520Y-12557031D02*
X14613043Y-12547508D01*
X14613043Y-12547508D02*
X14632091Y-12537984D01*
X14632091Y-12537984D02*
X14679710Y-12537984D01*
X14679710Y-12537984D02*
X14698758Y-12547508D01*
X14698758Y-12547508D02*
X14708282Y-12557031D01*
X14708282Y-12557031D02*
X14717805Y-12576079D01*
X14717805Y-12576079D02*
X14717805Y-12595127D01*
X14717805Y-12595127D02*
X14708282Y-12623698D01*
X14708282Y-12623698D02*
X14593996Y-12737984D01*
X14593996Y-12737984D02*
X14717805Y-12737984D01*
X14803520Y-12737984D02*
X14803520Y-12604650D01*
X14803520Y-12623698D02*
X14813043Y-12614174D01*
X14813043Y-12614174D02*
X14832091Y-12604650D01*
X14832091Y-12604650D02*
X14860663Y-12604650D01*
X14860663Y-12604650D02*
X14879710Y-12614174D01*
X14879710Y-12614174D02*
X14889234Y-12633222D01*
X14889234Y-12633222D02*
X14889234Y-12737984D01*
X14889234Y-12633222D02*
X14898758Y-12614174D01*
X14898758Y-12614174D02*
X14917805Y-12604650D01*
X14917805Y-12604650D02*
X14946377Y-12604650D01*
X14946377Y-12604650D02*
X14965424Y-12614174D01*
X14965424Y-12614174D02*
X14974948Y-12633222D01*
X14974948Y-12633222D02*
X14974948Y-12737984D01*
X15070186Y-12737984D02*
X15070186Y-12604650D01*
X15070186Y-12623698D02*
X15079710Y-12614174D01*
X15079710Y-12614174D02*
X15098758Y-12604650D01*
X15098758Y-12604650D02*
X15127329Y-12604650D01*
X15127329Y-12604650D02*
X15146377Y-12614174D01*
X15146377Y-12614174D02*
X15155901Y-12633222D01*
X15155901Y-12633222D02*
X15155901Y-12737984D01*
X15155901Y-12633222D02*
X15165424Y-12614174D01*
X15165424Y-12614174D02*
X15184472Y-12604650D01*
X15184472Y-12604650D02*
X15213043Y-12604650D01*
X15213043Y-12604650D02*
X15232091Y-12614174D01*
X15232091Y-12614174D02*
X15241615Y-12633222D01*
X15241615Y-12633222D02*
X15241615Y-12737984D01*
X15632091Y-12528460D02*
X15460663Y-12785603D01*
X15889234Y-12537984D02*
X15908282Y-12537984D01*
X15908282Y-12537984D02*
X15927329Y-12547508D01*
X15927329Y-12547508D02*
X15936853Y-12557031D01*
X15936853Y-12557031D02*
X15946377Y-12576079D01*
X15946377Y-12576079D02*
X15955901Y-12614174D01*
X15955901Y-12614174D02*
X15955901Y-12661793D01*
X15955901Y-12661793D02*
X15946377Y-12699888D01*
X15946377Y-12699888D02*
X15936853Y-12718936D01*
X15936853Y-12718936D02*
X15927329Y-12728460D01*
X15927329Y-12728460D02*
X15908282Y-12737984D01*
X15908282Y-12737984D02*
X15889234Y-12737984D01*
X15889234Y-12737984D02*
X15870186Y-12728460D01*
X15870186Y-12728460D02*
X15860663Y-12718936D01*
X15860663Y-12718936D02*
X15851139Y-12699888D01*
X15851139Y-12699888D02*
X15841615Y-12661793D01*
X15841615Y-12661793D02*
X15841615Y-12614174D01*
X15841615Y-12614174D02*
X15851139Y-12576079D01*
X15851139Y-12576079D02*
X15860663Y-12557031D01*
X15860663Y-12557031D02*
X15870186Y-12547508D01*
X15870186Y-12547508D02*
X15889234Y-12537984D01*
X16041615Y-12718936D02*
X16051139Y-12728460D01*
X16051139Y-12728460D02*
X16041615Y-12737984D01*
X16041615Y-12737984D02*
X16032091Y-12728460D01*
X16032091Y-12728460D02*
X16041615Y-12718936D01*
X16041615Y-12718936D02*
X16041615Y-12737984D01*
X16174948Y-12537984D02*
X16193996Y-12537984D01*
X16193996Y-12537984D02*
X16213044Y-12547508D01*
X16213044Y-12547508D02*
X16222567Y-12557031D01*
X16222567Y-12557031D02*
X16232091Y-12576079D01*
X16232091Y-12576079D02*
X16241615Y-12614174D01*
X16241615Y-12614174D02*
X16241615Y-12661793D01*
X16241615Y-12661793D02*
X16232091Y-12699888D01*
X16232091Y-12699888D02*
X16222567Y-12718936D01*
X16222567Y-12718936D02*
X16213044Y-12728460D01*
X16213044Y-12728460D02*
X16193996Y-12737984D01*
X16193996Y-12737984D02*
X16174948Y-12737984D01*
X16174948Y-12737984D02*
X16155901Y-12728460D01*
X16155901Y-12728460D02*
X16146377Y-12718936D01*
X16146377Y-12718936D02*
X16136853Y-12699888D01*
X16136853Y-12699888D02*
X16127329Y-12661793D01*
X16127329Y-12661793D02*
X16127329Y-12614174D01*
X16127329Y-12614174D02*
X16136853Y-12576079D01*
X16136853Y-12576079D02*
X16146377Y-12557031D01*
X16146377Y-12557031D02*
X16155901Y-12547508D01*
X16155901Y-12547508D02*
X16174948Y-12537984D01*
X16308282Y-12537984D02*
X16432091Y-12537984D01*
X16432091Y-12537984D02*
X16365425Y-12614174D01*
X16365425Y-12614174D02*
X16393996Y-12614174D01*
X16393996Y-12614174D02*
X16413044Y-12623698D01*
X16413044Y-12623698D02*
X16422567Y-12633222D01*
X16422567Y-12633222D02*
X16432091Y-12652269D01*
X16432091Y-12652269D02*
X16432091Y-12699888D01*
X16432091Y-12699888D02*
X16422567Y-12718936D01*
X16422567Y-12718936D02*
X16413044Y-12728460D01*
X16413044Y-12728460D02*
X16393996Y-12737984D01*
X16393996Y-12737984D02*
X16336853Y-12737984D01*
X16336853Y-12737984D02*
X16317806Y-12728460D01*
X16317806Y-12728460D02*
X16308282Y-12718936D01*
X16555901Y-12537984D02*
X16574948Y-12537984D01*
X16574948Y-12537984D02*
X16593996Y-12547508D01*
X16593996Y-12547508D02*
X16603520Y-12557031D01*
X16603520Y-12557031D02*
X16613044Y-12576079D01*
X16613044Y-12576079D02*
X16622567Y-12614174D01*
X16622567Y-12614174D02*
X16622567Y-12661793D01*
X16622567Y-12661793D02*
X16613044Y-12699888D01*
X16613044Y-12699888D02*
X16603520Y-12718936D01*
X16603520Y-12718936D02*
X16593996Y-12728460D01*
X16593996Y-12728460D02*
X16574948Y-12737984D01*
X16574948Y-12737984D02*
X16555901Y-12737984D01*
X16555901Y-12737984D02*
X16536853Y-12728460D01*
X16536853Y-12728460D02*
X16527329Y-12718936D01*
X16527329Y-12718936D02*
X16517806Y-12699888D01*
X16517806Y-12699888D02*
X16508282Y-12661793D01*
X16508282Y-12661793D02*
X16508282Y-12614174D01*
X16508282Y-12614174D02*
X16517806Y-12576079D01*
X16517806Y-12576079D02*
X16527329Y-12557031D01*
X16527329Y-12557031D02*
X16536853Y-12547508D01*
X16536853Y-12547508D02*
X16555901Y-12537984D01*
X16746377Y-12537984D02*
X16765425Y-12537984D01*
X16765425Y-12537984D02*
X16784472Y-12547508D01*
X16784472Y-12547508D02*
X16793996Y-12557031D01*
X16793996Y-12557031D02*
X16803520Y-12576079D01*
X16803520Y-12576079D02*
X16813044Y-12614174D01*
X16813044Y-12614174D02*
X16813044Y-12661793D01*
X16813044Y-12661793D02*
X16803520Y-12699888D01*
X16803520Y-12699888D02*
X16793996Y-12718936D01*
X16793996Y-12718936D02*
X16784472Y-12728460D01*
X16784472Y-12728460D02*
X16765425Y-12737984D01*
X16765425Y-12737984D02*
X16746377Y-12737984D01*
X16746377Y-12737984D02*
X16727329Y-12728460D01*
X16727329Y-12728460D02*
X16717806Y-12718936D01*
X16717806Y-12718936D02*
X16708282Y-12699888D01*
X16708282Y-12699888D02*
X16698758Y-12661793D01*
X16698758Y-12661793D02*
X16698758Y-12614174D01*
X16698758Y-12614174D02*
X16708282Y-12576079D01*
X16708282Y-12576079D02*
X16717806Y-12557031D01*
X16717806Y-12557031D02*
X16727329Y-12547508D01*
X16727329Y-12547508D02*
X16746377Y-12537984D01*
X16889234Y-12537984D02*
X16889234Y-12576079D01*
X16965425Y-12537984D02*
X16965425Y-12576079D01*
X17260663Y-12814174D02*
X17251139Y-12804650D01*
X17251139Y-12804650D02*
X17232091Y-12776079D01*
X17232091Y-12776079D02*
X17222568Y-12757031D01*
X17222568Y-12757031D02*
X17213044Y-12728460D01*
X17213044Y-12728460D02*
X17203520Y-12680841D01*
X17203520Y-12680841D02*
X17203520Y-12642746D01*
X17203520Y-12642746D02*
X17213044Y-12595127D01*
X17213044Y-12595127D02*
X17222568Y-12566555D01*
X17222568Y-12566555D02*
X17232091Y-12547508D01*
X17232091Y-12547508D02*
X17251139Y-12518936D01*
X17251139Y-12518936D02*
X17260663Y-12509412D01*
X17441615Y-12737984D02*
X17327330Y-12737984D01*
X17384472Y-12737984D02*
X17384472Y-12537984D01*
X17384472Y-12537984D02*
X17365425Y-12566555D01*
X17365425Y-12566555D02*
X17346377Y-12585603D01*
X17346377Y-12585603D02*
X17327330Y-12595127D01*
X17632091Y-12737984D02*
X17517806Y-12737984D01*
X17574949Y-12737984D02*
X17574949Y-12537984D01*
X17574949Y-12537984D02*
X17555901Y-12566555D01*
X17555901Y-12566555D02*
X17536853Y-12585603D01*
X17536853Y-12585603D02*
X17517806Y-12595127D01*
X17870187Y-12737984D02*
X17870187Y-12537984D01*
X17955901Y-12737984D02*
X17955901Y-12633222D01*
X17955901Y-12633222D02*
X17946377Y-12614174D01*
X17946377Y-12614174D02*
X17927330Y-12604650D01*
X17927330Y-12604650D02*
X17898758Y-12604650D01*
X17898758Y-12604650D02*
X17879711Y-12614174D01*
X17879711Y-12614174D02*
X17870187Y-12623698D01*
X18079711Y-12737984D02*
X18060663Y-12728460D01*
X18060663Y-12728460D02*
X18051139Y-12718936D01*
X18051139Y-12718936D02*
X18041615Y-12699888D01*
X18041615Y-12699888D02*
X18041615Y-12642746D01*
X18041615Y-12642746D02*
X18051139Y-12623698D01*
X18051139Y-12623698D02*
X18060663Y-12614174D01*
X18060663Y-12614174D02*
X18079711Y-12604650D01*
X18079711Y-12604650D02*
X18108282Y-12604650D01*
X18108282Y-12604650D02*
X18127330Y-12614174D01*
X18127330Y-12614174D02*
X18136853Y-12623698D01*
X18136853Y-12623698D02*
X18146377Y-12642746D01*
X18146377Y-12642746D02*
X18146377Y-12699888D01*
X18146377Y-12699888D02*
X18136853Y-12718936D01*
X18136853Y-12718936D02*
X18127330Y-12728460D01*
X18127330Y-12728460D02*
X18108282Y-12737984D01*
X18108282Y-12737984D02*
X18079711Y-12737984D01*
X18260663Y-12737984D02*
X18241615Y-12728460D01*
X18241615Y-12728460D02*
X18232092Y-12709412D01*
X18232092Y-12709412D02*
X18232092Y-12537984D01*
X18413044Y-12728460D02*
X18393996Y-12737984D01*
X18393996Y-12737984D02*
X18355901Y-12737984D01*
X18355901Y-12737984D02*
X18336853Y-12728460D01*
X18336853Y-12728460D02*
X18327330Y-12709412D01*
X18327330Y-12709412D02*
X18327330Y-12633222D01*
X18327330Y-12633222D02*
X18336853Y-12614174D01*
X18336853Y-12614174D02*
X18355901Y-12604650D01*
X18355901Y-12604650D02*
X18393996Y-12604650D01*
X18393996Y-12604650D02*
X18413044Y-12614174D01*
X18413044Y-12614174D02*
X18422568Y-12633222D01*
X18422568Y-12633222D02*
X18422568Y-12652269D01*
X18422568Y-12652269D02*
X18327330Y-12671317D01*
X18498758Y-12728460D02*
X18517806Y-12737984D01*
X18517806Y-12737984D02*
X18555901Y-12737984D01*
X18555901Y-12737984D02*
X18574949Y-12728460D01*
X18574949Y-12728460D02*
X18584473Y-12709412D01*
X18584473Y-12709412D02*
X18584473Y-12699888D01*
X18584473Y-12699888D02*
X18574949Y-12680841D01*
X18574949Y-12680841D02*
X18555901Y-12671317D01*
X18555901Y-12671317D02*
X18527330Y-12671317D01*
X18527330Y-12671317D02*
X18508282Y-12661793D01*
X18508282Y-12661793D02*
X18498758Y-12642746D01*
X18498758Y-12642746D02*
X18498758Y-12633222D01*
X18498758Y-12633222D02*
X18508282Y-12614174D01*
X18508282Y-12614174D02*
X18527330Y-12604650D01*
X18527330Y-12604650D02*
X18555901Y-12604650D01*
X18555901Y-12604650D02*
X18574949Y-12614174D01*
X18651139Y-12814174D02*
X18660663Y-12804650D01*
X18660663Y-12804650D02*
X18679711Y-12776079D01*
X18679711Y-12776079D02*
X18689234Y-12757031D01*
X18689234Y-12757031D02*
X18698758Y-12728460D01*
X18698758Y-12728460D02*
X18708282Y-12680841D01*
X18708282Y-12680841D02*
X18708282Y-12642746D01*
X18708282Y-12642746D02*
X18698758Y-12595127D01*
X18698758Y-12595127D02*
X18689234Y-12566555D01*
X18689234Y-12566555D02*
X18679711Y-12547508D01*
X18679711Y-12547508D02*
X18660663Y-12518936D01*
X18660663Y-12518936D02*
X18651139Y-12509412D01*
D13*
X13685600Y-12910500D02*
G75*
G03*
X13685600Y-12910500I-40000J0D01*
G01*
D11*
X13984472Y-12801984D02*
X14003520Y-12801984D01*
X14003520Y-12801984D02*
X14022567Y-12811508D01*
X14022567Y-12811508D02*
X14032091Y-12821031D01*
X14032091Y-12821031D02*
X14041615Y-12840079D01*
X14041615Y-12840079D02*
X14051139Y-12878174D01*
X14051139Y-12878174D02*
X14051139Y-12925793D01*
X14051139Y-12925793D02*
X14041615Y-12963888D01*
X14041615Y-12963888D02*
X14032091Y-12982936D01*
X14032091Y-12982936D02*
X14022567Y-12992460D01*
X14022567Y-12992460D02*
X14003520Y-13001984D01*
X14003520Y-13001984D02*
X13984472Y-13001984D01*
X13984472Y-13001984D02*
X13965424Y-12992460D01*
X13965424Y-12992460D02*
X13955901Y-12982936D01*
X13955901Y-12982936D02*
X13946377Y-12963888D01*
X13946377Y-12963888D02*
X13936853Y-12925793D01*
X13936853Y-12925793D02*
X13936853Y-12878174D01*
X13936853Y-12878174D02*
X13946377Y-12840079D01*
X13946377Y-12840079D02*
X13955901Y-12821031D01*
X13955901Y-12821031D02*
X13965424Y-12811508D01*
X13965424Y-12811508D02*
X13984472Y-12801984D01*
X14136853Y-12982936D02*
X14146377Y-12992460D01*
X14146377Y-12992460D02*
X14136853Y-13001984D01*
X14136853Y-13001984D02*
X14127329Y-12992460D01*
X14127329Y-12992460D02*
X14136853Y-12982936D01*
X14136853Y-12982936D02*
X14136853Y-13001984D01*
X14260662Y-12887698D02*
X14241615Y-12878174D01*
X14241615Y-12878174D02*
X14232091Y-12868650D01*
X14232091Y-12868650D02*
X14222567Y-12849603D01*
X14222567Y-12849603D02*
X14222567Y-12840079D01*
X14222567Y-12840079D02*
X14232091Y-12821031D01*
X14232091Y-12821031D02*
X14241615Y-12811508D01*
X14241615Y-12811508D02*
X14260662Y-12801984D01*
X14260662Y-12801984D02*
X14298758Y-12801984D01*
X14298758Y-12801984D02*
X14317805Y-12811508D01*
X14317805Y-12811508D02*
X14327329Y-12821031D01*
X14327329Y-12821031D02*
X14336853Y-12840079D01*
X14336853Y-12840079D02*
X14336853Y-12849603D01*
X14336853Y-12849603D02*
X14327329Y-12868650D01*
X14327329Y-12868650D02*
X14317805Y-12878174D01*
X14317805Y-12878174D02*
X14298758Y-12887698D01*
X14298758Y-12887698D02*
X14260662Y-12887698D01*
X14260662Y-12887698D02*
X14241615Y-12897222D01*
X14241615Y-12897222D02*
X14232091Y-12906746D01*
X14232091Y-12906746D02*
X14222567Y-12925793D01*
X14222567Y-12925793D02*
X14222567Y-12963888D01*
X14222567Y-12963888D02*
X14232091Y-12982936D01*
X14232091Y-12982936D02*
X14241615Y-12992460D01*
X14241615Y-12992460D02*
X14260662Y-13001984D01*
X14260662Y-13001984D02*
X14298758Y-13001984D01*
X14298758Y-13001984D02*
X14317805Y-12992460D01*
X14317805Y-12992460D02*
X14327329Y-12982936D01*
X14327329Y-12982936D02*
X14336853Y-12963888D01*
X14336853Y-12963888D02*
X14336853Y-12925793D01*
X14336853Y-12925793D02*
X14327329Y-12906746D01*
X14327329Y-12906746D02*
X14317805Y-12897222D01*
X14317805Y-12897222D02*
X14298758Y-12887698D01*
X14460662Y-12801984D02*
X14479710Y-12801984D01*
X14479710Y-12801984D02*
X14498758Y-12811508D01*
X14498758Y-12811508D02*
X14508282Y-12821031D01*
X14508282Y-12821031D02*
X14517805Y-12840079D01*
X14517805Y-12840079D02*
X14527329Y-12878174D01*
X14527329Y-12878174D02*
X14527329Y-12925793D01*
X14527329Y-12925793D02*
X14517805Y-12963888D01*
X14517805Y-12963888D02*
X14508282Y-12982936D01*
X14508282Y-12982936D02*
X14498758Y-12992460D01*
X14498758Y-12992460D02*
X14479710Y-13001984D01*
X14479710Y-13001984D02*
X14460662Y-13001984D01*
X14460662Y-13001984D02*
X14441615Y-12992460D01*
X14441615Y-12992460D02*
X14432091Y-12982936D01*
X14432091Y-12982936D02*
X14422567Y-12963888D01*
X14422567Y-12963888D02*
X14413043Y-12925793D01*
X14413043Y-12925793D02*
X14413043Y-12878174D01*
X14413043Y-12878174D02*
X14422567Y-12840079D01*
X14422567Y-12840079D02*
X14432091Y-12821031D01*
X14432091Y-12821031D02*
X14441615Y-12811508D01*
X14441615Y-12811508D02*
X14460662Y-12801984D01*
X14651139Y-12801984D02*
X14670186Y-12801984D01*
X14670186Y-12801984D02*
X14689234Y-12811508D01*
X14689234Y-12811508D02*
X14698758Y-12821031D01*
X14698758Y-12821031D02*
X14708282Y-12840079D01*
X14708282Y-12840079D02*
X14717805Y-12878174D01*
X14717805Y-12878174D02*
X14717805Y-12925793D01*
X14717805Y-12925793D02*
X14708282Y-12963888D01*
X14708282Y-12963888D02*
X14698758Y-12982936D01*
X14698758Y-12982936D02*
X14689234Y-12992460D01*
X14689234Y-12992460D02*
X14670186Y-13001984D01*
X14670186Y-13001984D02*
X14651139Y-13001984D01*
X14651139Y-13001984D02*
X14632091Y-12992460D01*
X14632091Y-12992460D02*
X14622567Y-12982936D01*
X14622567Y-12982936D02*
X14613043Y-12963888D01*
X14613043Y-12963888D02*
X14603520Y-12925793D01*
X14603520Y-12925793D02*
X14603520Y-12878174D01*
X14603520Y-12878174D02*
X14613043Y-12840079D01*
X14613043Y-12840079D02*
X14622567Y-12821031D01*
X14622567Y-12821031D02*
X14632091Y-12811508D01*
X14632091Y-12811508D02*
X14651139Y-12801984D01*
X14803520Y-13001984D02*
X14803520Y-12868650D01*
X14803520Y-12887698D02*
X14813043Y-12878174D01*
X14813043Y-12878174D02*
X14832091Y-12868650D01*
X14832091Y-12868650D02*
X14860663Y-12868650D01*
X14860663Y-12868650D02*
X14879710Y-12878174D01*
X14879710Y-12878174D02*
X14889234Y-12897222D01*
X14889234Y-12897222D02*
X14889234Y-13001984D01*
X14889234Y-12897222D02*
X14898758Y-12878174D01*
X14898758Y-12878174D02*
X14917805Y-12868650D01*
X14917805Y-12868650D02*
X14946377Y-12868650D01*
X14946377Y-12868650D02*
X14965424Y-12878174D01*
X14965424Y-12878174D02*
X14974948Y-12897222D01*
X14974948Y-12897222D02*
X14974948Y-13001984D01*
X15070186Y-13001984D02*
X15070186Y-12868650D01*
X15070186Y-12887698D02*
X15079710Y-12878174D01*
X15079710Y-12878174D02*
X15098758Y-12868650D01*
X15098758Y-12868650D02*
X15127329Y-12868650D01*
X15127329Y-12868650D02*
X15146377Y-12878174D01*
X15146377Y-12878174D02*
X15155901Y-12897222D01*
X15155901Y-12897222D02*
X15155901Y-13001984D01*
X15155901Y-12897222D02*
X15165424Y-12878174D01*
X15165424Y-12878174D02*
X15184472Y-12868650D01*
X15184472Y-12868650D02*
X15213043Y-12868650D01*
X15213043Y-12868650D02*
X15232091Y-12878174D01*
X15232091Y-12878174D02*
X15241615Y-12897222D01*
X15241615Y-12897222D02*
X15241615Y-13001984D01*
X15632091Y-12792460D02*
X15460663Y-13049603D01*
X15889234Y-12801984D02*
X15908282Y-12801984D01*
X15908282Y-12801984D02*
X15927329Y-12811508D01*
X15927329Y-12811508D02*
X15936853Y-12821031D01*
X15936853Y-12821031D02*
X15946377Y-12840079D01*
X15946377Y-12840079D02*
X15955901Y-12878174D01*
X15955901Y-12878174D02*
X15955901Y-12925793D01*
X15955901Y-12925793D02*
X15946377Y-12963888D01*
X15946377Y-12963888D02*
X15936853Y-12982936D01*
X15936853Y-12982936D02*
X15927329Y-12992460D01*
X15927329Y-12992460D02*
X15908282Y-13001984D01*
X15908282Y-13001984D02*
X15889234Y-13001984D01*
X15889234Y-13001984D02*
X15870186Y-12992460D01*
X15870186Y-12992460D02*
X15860663Y-12982936D01*
X15860663Y-12982936D02*
X15851139Y-12963888D01*
X15851139Y-12963888D02*
X15841615Y-12925793D01*
X15841615Y-12925793D02*
X15841615Y-12878174D01*
X15841615Y-12878174D02*
X15851139Y-12840079D01*
X15851139Y-12840079D02*
X15860663Y-12821031D01*
X15860663Y-12821031D02*
X15870186Y-12811508D01*
X15870186Y-12811508D02*
X15889234Y-12801984D01*
X16041615Y-12982936D02*
X16051139Y-12992460D01*
X16051139Y-12992460D02*
X16041615Y-13001984D01*
X16041615Y-13001984D02*
X16032091Y-12992460D01*
X16032091Y-12992460D02*
X16041615Y-12982936D01*
X16041615Y-12982936D02*
X16041615Y-13001984D01*
X16174948Y-12801984D02*
X16193996Y-12801984D01*
X16193996Y-12801984D02*
X16213044Y-12811508D01*
X16213044Y-12811508D02*
X16222567Y-12821031D01*
X16222567Y-12821031D02*
X16232091Y-12840079D01*
X16232091Y-12840079D02*
X16241615Y-12878174D01*
X16241615Y-12878174D02*
X16241615Y-12925793D01*
X16241615Y-12925793D02*
X16232091Y-12963888D01*
X16232091Y-12963888D02*
X16222567Y-12982936D01*
X16222567Y-12982936D02*
X16213044Y-12992460D01*
X16213044Y-12992460D02*
X16193996Y-13001984D01*
X16193996Y-13001984D02*
X16174948Y-13001984D01*
X16174948Y-13001984D02*
X16155901Y-12992460D01*
X16155901Y-12992460D02*
X16146377Y-12982936D01*
X16146377Y-12982936D02*
X16136853Y-12963888D01*
X16136853Y-12963888D02*
X16127329Y-12925793D01*
X16127329Y-12925793D02*
X16127329Y-12878174D01*
X16127329Y-12878174D02*
X16136853Y-12840079D01*
X16136853Y-12840079D02*
X16146377Y-12821031D01*
X16146377Y-12821031D02*
X16155901Y-12811508D01*
X16155901Y-12811508D02*
X16174948Y-12801984D01*
X16308282Y-12801984D02*
X16432091Y-12801984D01*
X16432091Y-12801984D02*
X16365425Y-12878174D01*
X16365425Y-12878174D02*
X16393996Y-12878174D01*
X16393996Y-12878174D02*
X16413044Y-12887698D01*
X16413044Y-12887698D02*
X16422567Y-12897222D01*
X16422567Y-12897222D02*
X16432091Y-12916269D01*
X16432091Y-12916269D02*
X16432091Y-12963888D01*
X16432091Y-12963888D02*
X16422567Y-12982936D01*
X16422567Y-12982936D02*
X16413044Y-12992460D01*
X16413044Y-12992460D02*
X16393996Y-13001984D01*
X16393996Y-13001984D02*
X16336853Y-13001984D01*
X16336853Y-13001984D02*
X16317806Y-12992460D01*
X16317806Y-12992460D02*
X16308282Y-12982936D01*
X16622567Y-13001984D02*
X16508282Y-13001984D01*
X16565425Y-13001984D02*
X16565425Y-12801984D01*
X16565425Y-12801984D02*
X16546377Y-12830555D01*
X16546377Y-12830555D02*
X16527329Y-12849603D01*
X16527329Y-12849603D02*
X16508282Y-12859127D01*
X16803520Y-12801984D02*
X16708282Y-12801984D01*
X16708282Y-12801984D02*
X16698758Y-12897222D01*
X16698758Y-12897222D02*
X16708282Y-12887698D01*
X16708282Y-12887698D02*
X16727329Y-12878174D01*
X16727329Y-12878174D02*
X16774948Y-12878174D01*
X16774948Y-12878174D02*
X16793996Y-12887698D01*
X16793996Y-12887698D02*
X16803520Y-12897222D01*
X16803520Y-12897222D02*
X16813044Y-12916269D01*
X16813044Y-12916269D02*
X16813044Y-12963888D01*
X16813044Y-12963888D02*
X16803520Y-12982936D01*
X16803520Y-12982936D02*
X16793996Y-12992460D01*
X16793996Y-12992460D02*
X16774948Y-13001984D01*
X16774948Y-13001984D02*
X16727329Y-13001984D01*
X16727329Y-13001984D02*
X16708282Y-12992460D01*
X16708282Y-12992460D02*
X16698758Y-12982936D01*
X16889234Y-12801984D02*
X16889234Y-12840079D01*
X16965425Y-12801984D02*
X16965425Y-12840079D01*
X17260663Y-13078174D02*
X17251139Y-13068650D01*
X17251139Y-13068650D02*
X17232091Y-13040079D01*
X17232091Y-13040079D02*
X17222568Y-13021031D01*
X17222568Y-13021031D02*
X17213044Y-12992460D01*
X17213044Y-12992460D02*
X17203520Y-12944841D01*
X17203520Y-12944841D02*
X17203520Y-12906746D01*
X17203520Y-12906746D02*
X17213044Y-12859127D01*
X17213044Y-12859127D02*
X17222568Y-12830555D01*
X17222568Y-12830555D02*
X17232091Y-12811508D01*
X17232091Y-12811508D02*
X17251139Y-12782936D01*
X17251139Y-12782936D02*
X17260663Y-12773412D01*
X17422568Y-12801984D02*
X17384472Y-12801984D01*
X17384472Y-12801984D02*
X17365425Y-12811508D01*
X17365425Y-12811508D02*
X17355901Y-12821031D01*
X17355901Y-12821031D02*
X17336853Y-12849603D01*
X17336853Y-12849603D02*
X17327330Y-12887698D01*
X17327330Y-12887698D02*
X17327330Y-12963888D01*
X17327330Y-12963888D02*
X17336853Y-12982936D01*
X17336853Y-12982936D02*
X17346377Y-12992460D01*
X17346377Y-12992460D02*
X17365425Y-13001984D01*
X17365425Y-13001984D02*
X17403520Y-13001984D01*
X17403520Y-13001984D02*
X17422568Y-12992460D01*
X17422568Y-12992460D02*
X17432091Y-12982936D01*
X17432091Y-12982936D02*
X17441615Y-12963888D01*
X17441615Y-12963888D02*
X17441615Y-12916269D01*
X17441615Y-12916269D02*
X17432091Y-12897222D01*
X17432091Y-12897222D02*
X17422568Y-12887698D01*
X17422568Y-12887698D02*
X17403520Y-12878174D01*
X17403520Y-12878174D02*
X17365425Y-12878174D01*
X17365425Y-12878174D02*
X17346377Y-12887698D01*
X17346377Y-12887698D02*
X17336853Y-12897222D01*
X17336853Y-12897222D02*
X17327330Y-12916269D01*
X17679711Y-13001984D02*
X17679711Y-12801984D01*
X17765425Y-13001984D02*
X17765425Y-12897222D01*
X17765425Y-12897222D02*
X17755901Y-12878174D01*
X17755901Y-12878174D02*
X17736853Y-12868650D01*
X17736853Y-12868650D02*
X17708282Y-12868650D01*
X17708282Y-12868650D02*
X17689234Y-12878174D01*
X17689234Y-12878174D02*
X17679711Y-12887698D01*
X17889234Y-13001984D02*
X17870187Y-12992460D01*
X17870187Y-12992460D02*
X17860663Y-12982936D01*
X17860663Y-12982936D02*
X17851139Y-12963888D01*
X17851139Y-12963888D02*
X17851139Y-12906746D01*
X17851139Y-12906746D02*
X17860663Y-12887698D01*
X17860663Y-12887698D02*
X17870187Y-12878174D01*
X17870187Y-12878174D02*
X17889234Y-12868650D01*
X17889234Y-12868650D02*
X17917806Y-12868650D01*
X17917806Y-12868650D02*
X17936853Y-12878174D01*
X17936853Y-12878174D02*
X17946377Y-12887698D01*
X17946377Y-12887698D02*
X17955901Y-12906746D01*
X17955901Y-12906746D02*
X17955901Y-12963888D01*
X17955901Y-12963888D02*
X17946377Y-12982936D01*
X17946377Y-12982936D02*
X17936853Y-12992460D01*
X17936853Y-12992460D02*
X17917806Y-13001984D01*
X17917806Y-13001984D02*
X17889234Y-13001984D01*
X18070187Y-13001984D02*
X18051139Y-12992460D01*
X18051139Y-12992460D02*
X18041615Y-12973412D01*
X18041615Y-12973412D02*
X18041615Y-12801984D01*
X18222568Y-12992460D02*
X18203520Y-13001984D01*
X18203520Y-13001984D02*
X18165425Y-13001984D01*
X18165425Y-13001984D02*
X18146377Y-12992460D01*
X18146377Y-12992460D02*
X18136853Y-12973412D01*
X18136853Y-12973412D02*
X18136853Y-12897222D01*
X18136853Y-12897222D02*
X18146377Y-12878174D01*
X18146377Y-12878174D02*
X18165425Y-12868650D01*
X18165425Y-12868650D02*
X18203520Y-12868650D01*
X18203520Y-12868650D02*
X18222568Y-12878174D01*
X18222568Y-12878174D02*
X18232092Y-12897222D01*
X18232092Y-12897222D02*
X18232092Y-12916269D01*
X18232092Y-12916269D02*
X18136853Y-12935317D01*
X18308282Y-12992460D02*
X18327330Y-13001984D01*
X18327330Y-13001984D02*
X18365425Y-13001984D01*
X18365425Y-13001984D02*
X18384473Y-12992460D01*
X18384473Y-12992460D02*
X18393996Y-12973412D01*
X18393996Y-12973412D02*
X18393996Y-12963888D01*
X18393996Y-12963888D02*
X18384473Y-12944841D01*
X18384473Y-12944841D02*
X18365425Y-12935317D01*
X18365425Y-12935317D02*
X18336853Y-12935317D01*
X18336853Y-12935317D02*
X18317806Y-12925793D01*
X18317806Y-12925793D02*
X18308282Y-12906746D01*
X18308282Y-12906746D02*
X18308282Y-12897222D01*
X18308282Y-12897222D02*
X18317806Y-12878174D01*
X18317806Y-12878174D02*
X18336853Y-12868650D01*
X18336853Y-12868650D02*
X18365425Y-12868650D01*
X18365425Y-12868650D02*
X18384473Y-12878174D01*
X18460663Y-13078174D02*
X18470187Y-13068650D01*
X18470187Y-13068650D02*
X18489234Y-13040079D01*
X18489234Y-13040079D02*
X18498758Y-13021031D01*
X18498758Y-13021031D02*
X18508282Y-12992460D01*
X18508282Y-12992460D02*
X18517806Y-12944841D01*
X18517806Y-12944841D02*
X18517806Y-12906746D01*
X18517806Y-12906746D02*
X18508282Y-12859127D01*
X18508282Y-12859127D02*
X18498758Y-12830555D01*
X18498758Y-12830555D02*
X18489234Y-12811508D01*
X18489234Y-12811508D02*
X18470187Y-12782936D01*
X18470187Y-12782936D02*
X18460663Y-12773412D01*
D10*
X13635600Y-13124500D02*
X13635600Y-13224500D01*
X13585600Y-13174500D02*
X13685600Y-13174500D01*
D11*
X14051139Y-13265984D02*
X13936853Y-13265984D01*
X13993996Y-13265984D02*
X13993996Y-13065984D01*
X13993996Y-13065984D02*
X13974948Y-13094555D01*
X13974948Y-13094555D02*
X13955901Y-13113603D01*
X13955901Y-13113603D02*
X13936853Y-13123127D01*
X14136853Y-13246936D02*
X14146377Y-13256460D01*
X14146377Y-13256460D02*
X14136853Y-13265984D01*
X14136853Y-13265984D02*
X14127329Y-13256460D01*
X14127329Y-13256460D02*
X14136853Y-13246936D01*
X14136853Y-13246936D02*
X14136853Y-13265984D01*
X14270186Y-13065984D02*
X14289234Y-13065984D01*
X14289234Y-13065984D02*
X14308282Y-13075508D01*
X14308282Y-13075508D02*
X14317805Y-13085031D01*
X14317805Y-13085031D02*
X14327329Y-13104079D01*
X14327329Y-13104079D02*
X14336853Y-13142174D01*
X14336853Y-13142174D02*
X14336853Y-13189793D01*
X14336853Y-13189793D02*
X14327329Y-13227888D01*
X14327329Y-13227888D02*
X14317805Y-13246936D01*
X14317805Y-13246936D02*
X14308282Y-13256460D01*
X14308282Y-13256460D02*
X14289234Y-13265984D01*
X14289234Y-13265984D02*
X14270186Y-13265984D01*
X14270186Y-13265984D02*
X14251139Y-13256460D01*
X14251139Y-13256460D02*
X14241615Y-13246936D01*
X14241615Y-13246936D02*
X14232091Y-13227888D01*
X14232091Y-13227888D02*
X14222567Y-13189793D01*
X14222567Y-13189793D02*
X14222567Y-13142174D01*
X14222567Y-13142174D02*
X14232091Y-13104079D01*
X14232091Y-13104079D02*
X14241615Y-13085031D01*
X14241615Y-13085031D02*
X14251139Y-13075508D01*
X14251139Y-13075508D02*
X14270186Y-13065984D01*
X14460662Y-13065984D02*
X14479710Y-13065984D01*
X14479710Y-13065984D02*
X14498758Y-13075508D01*
X14498758Y-13075508D02*
X14508282Y-13085031D01*
X14508282Y-13085031D02*
X14517805Y-13104079D01*
X14517805Y-13104079D02*
X14527329Y-13142174D01*
X14527329Y-13142174D02*
X14527329Y-13189793D01*
X14527329Y-13189793D02*
X14517805Y-13227888D01*
X14517805Y-13227888D02*
X14508282Y-13246936D01*
X14508282Y-13246936D02*
X14498758Y-13256460D01*
X14498758Y-13256460D02*
X14479710Y-13265984D01*
X14479710Y-13265984D02*
X14460662Y-13265984D01*
X14460662Y-13265984D02*
X14441615Y-13256460D01*
X14441615Y-13256460D02*
X14432091Y-13246936D01*
X14432091Y-13246936D02*
X14422567Y-13227888D01*
X14422567Y-13227888D02*
X14413043Y-13189793D01*
X14413043Y-13189793D02*
X14413043Y-13142174D01*
X14413043Y-13142174D02*
X14422567Y-13104079D01*
X14422567Y-13104079D02*
X14432091Y-13085031D01*
X14432091Y-13085031D02*
X14441615Y-13075508D01*
X14441615Y-13075508D02*
X14460662Y-13065984D01*
X14651139Y-13065984D02*
X14670186Y-13065984D01*
X14670186Y-13065984D02*
X14689234Y-13075508D01*
X14689234Y-13075508D02*
X14698758Y-13085031D01*
X14698758Y-13085031D02*
X14708282Y-13104079D01*
X14708282Y-13104079D02*
X14717805Y-13142174D01*
X14717805Y-13142174D02*
X14717805Y-13189793D01*
X14717805Y-13189793D02*
X14708282Y-13227888D01*
X14708282Y-13227888D02*
X14698758Y-13246936D01*
X14698758Y-13246936D02*
X14689234Y-13256460D01*
X14689234Y-13256460D02*
X14670186Y-13265984D01*
X14670186Y-13265984D02*
X14651139Y-13265984D01*
X14651139Y-13265984D02*
X14632091Y-13256460D01*
X14632091Y-13256460D02*
X14622567Y-13246936D01*
X14622567Y-13246936D02*
X14613043Y-13227888D01*
X14613043Y-13227888D02*
X14603520Y-13189793D01*
X14603520Y-13189793D02*
X14603520Y-13142174D01*
X14603520Y-13142174D02*
X14613043Y-13104079D01*
X14613043Y-13104079D02*
X14622567Y-13085031D01*
X14622567Y-13085031D02*
X14632091Y-13075508D01*
X14632091Y-13075508D02*
X14651139Y-13065984D01*
X14803520Y-13265984D02*
X14803520Y-13132650D01*
X14803520Y-13151698D02*
X14813043Y-13142174D01*
X14813043Y-13142174D02*
X14832091Y-13132650D01*
X14832091Y-13132650D02*
X14860663Y-13132650D01*
X14860663Y-13132650D02*
X14879710Y-13142174D01*
X14879710Y-13142174D02*
X14889234Y-13161222D01*
X14889234Y-13161222D02*
X14889234Y-13265984D01*
X14889234Y-13161222D02*
X14898758Y-13142174D01*
X14898758Y-13142174D02*
X14917805Y-13132650D01*
X14917805Y-13132650D02*
X14946377Y-13132650D01*
X14946377Y-13132650D02*
X14965424Y-13142174D01*
X14965424Y-13142174D02*
X14974948Y-13161222D01*
X14974948Y-13161222D02*
X14974948Y-13265984D01*
X15070186Y-13265984D02*
X15070186Y-13132650D01*
X15070186Y-13151698D02*
X15079710Y-13142174D01*
X15079710Y-13142174D02*
X15098758Y-13132650D01*
X15098758Y-13132650D02*
X15127329Y-13132650D01*
X15127329Y-13132650D02*
X15146377Y-13142174D01*
X15146377Y-13142174D02*
X15155901Y-13161222D01*
X15155901Y-13161222D02*
X15155901Y-13265984D01*
X15155901Y-13161222D02*
X15165424Y-13142174D01*
X15165424Y-13142174D02*
X15184472Y-13132650D01*
X15184472Y-13132650D02*
X15213043Y-13132650D01*
X15213043Y-13132650D02*
X15232091Y-13142174D01*
X15232091Y-13142174D02*
X15241615Y-13161222D01*
X15241615Y-13161222D02*
X15241615Y-13265984D01*
X15632091Y-13056460D02*
X15460663Y-13313603D01*
X15889234Y-13065984D02*
X15908282Y-13065984D01*
X15908282Y-13065984D02*
X15927329Y-13075508D01*
X15927329Y-13075508D02*
X15936853Y-13085031D01*
X15936853Y-13085031D02*
X15946377Y-13104079D01*
X15946377Y-13104079D02*
X15955901Y-13142174D01*
X15955901Y-13142174D02*
X15955901Y-13189793D01*
X15955901Y-13189793D02*
X15946377Y-13227888D01*
X15946377Y-13227888D02*
X15936853Y-13246936D01*
X15936853Y-13246936D02*
X15927329Y-13256460D01*
X15927329Y-13256460D02*
X15908282Y-13265984D01*
X15908282Y-13265984D02*
X15889234Y-13265984D01*
X15889234Y-13265984D02*
X15870186Y-13256460D01*
X15870186Y-13256460D02*
X15860663Y-13246936D01*
X15860663Y-13246936D02*
X15851139Y-13227888D01*
X15851139Y-13227888D02*
X15841615Y-13189793D01*
X15841615Y-13189793D02*
X15841615Y-13142174D01*
X15841615Y-13142174D02*
X15851139Y-13104079D01*
X15851139Y-13104079D02*
X15860663Y-13085031D01*
X15860663Y-13085031D02*
X15870186Y-13075508D01*
X15870186Y-13075508D02*
X15889234Y-13065984D01*
X16041615Y-13246936D02*
X16051139Y-13256460D01*
X16051139Y-13256460D02*
X16041615Y-13265984D01*
X16041615Y-13265984D02*
X16032091Y-13256460D01*
X16032091Y-13256460D02*
X16041615Y-13246936D01*
X16041615Y-13246936D02*
X16041615Y-13265984D01*
X16174948Y-13065984D02*
X16193996Y-13065984D01*
X16193996Y-13065984D02*
X16213044Y-13075508D01*
X16213044Y-13075508D02*
X16222567Y-13085031D01*
X16222567Y-13085031D02*
X16232091Y-13104079D01*
X16232091Y-13104079D02*
X16241615Y-13142174D01*
X16241615Y-13142174D02*
X16241615Y-13189793D01*
X16241615Y-13189793D02*
X16232091Y-13227888D01*
X16232091Y-13227888D02*
X16222567Y-13246936D01*
X16222567Y-13246936D02*
X16213044Y-13256460D01*
X16213044Y-13256460D02*
X16193996Y-13265984D01*
X16193996Y-13265984D02*
X16174948Y-13265984D01*
X16174948Y-13265984D02*
X16155901Y-13256460D01*
X16155901Y-13256460D02*
X16146377Y-13246936D01*
X16146377Y-13246936D02*
X16136853Y-13227888D01*
X16136853Y-13227888D02*
X16127329Y-13189793D01*
X16127329Y-13189793D02*
X16127329Y-13142174D01*
X16127329Y-13142174D02*
X16136853Y-13104079D01*
X16136853Y-13104079D02*
X16146377Y-13085031D01*
X16146377Y-13085031D02*
X16155901Y-13075508D01*
X16155901Y-13075508D02*
X16174948Y-13065984D01*
X16308282Y-13065984D02*
X16432091Y-13065984D01*
X16432091Y-13065984D02*
X16365425Y-13142174D01*
X16365425Y-13142174D02*
X16393996Y-13142174D01*
X16393996Y-13142174D02*
X16413044Y-13151698D01*
X16413044Y-13151698D02*
X16422567Y-13161222D01*
X16422567Y-13161222D02*
X16432091Y-13180269D01*
X16432091Y-13180269D02*
X16432091Y-13227888D01*
X16432091Y-13227888D02*
X16422567Y-13246936D01*
X16422567Y-13246936D02*
X16413044Y-13256460D01*
X16413044Y-13256460D02*
X16393996Y-13265984D01*
X16393996Y-13265984D02*
X16336853Y-13265984D01*
X16336853Y-13265984D02*
X16317806Y-13256460D01*
X16317806Y-13256460D02*
X16308282Y-13246936D01*
X16527329Y-13265984D02*
X16565425Y-13265984D01*
X16565425Y-13265984D02*
X16584472Y-13256460D01*
X16584472Y-13256460D02*
X16593996Y-13246936D01*
X16593996Y-13246936D02*
X16613044Y-13218365D01*
X16613044Y-13218365D02*
X16622567Y-13180269D01*
X16622567Y-13180269D02*
X16622567Y-13104079D01*
X16622567Y-13104079D02*
X16613044Y-13085031D01*
X16613044Y-13085031D02*
X16603520Y-13075508D01*
X16603520Y-13075508D02*
X16584472Y-13065984D01*
X16584472Y-13065984D02*
X16546377Y-13065984D01*
X16546377Y-13065984D02*
X16527329Y-13075508D01*
X16527329Y-13075508D02*
X16517806Y-13085031D01*
X16517806Y-13085031D02*
X16508282Y-13104079D01*
X16508282Y-13104079D02*
X16508282Y-13151698D01*
X16508282Y-13151698D02*
X16517806Y-13170746D01*
X16517806Y-13170746D02*
X16527329Y-13180269D01*
X16527329Y-13180269D02*
X16546377Y-13189793D01*
X16546377Y-13189793D02*
X16584472Y-13189793D01*
X16584472Y-13189793D02*
X16603520Y-13180269D01*
X16603520Y-13180269D02*
X16613044Y-13170746D01*
X16613044Y-13170746D02*
X16622567Y-13151698D01*
X16793996Y-13132650D02*
X16793996Y-13265984D01*
X16746377Y-13056460D02*
X16698758Y-13199317D01*
X16698758Y-13199317D02*
X16822568Y-13199317D01*
X16889234Y-13065984D02*
X16889234Y-13104079D01*
X16965425Y-13065984D02*
X16965425Y-13104079D01*
X17260663Y-13342174D02*
X17251139Y-13332650D01*
X17251139Y-13332650D02*
X17232091Y-13304079D01*
X17232091Y-13304079D02*
X17222568Y-13285031D01*
X17222568Y-13285031D02*
X17213044Y-13256460D01*
X17213044Y-13256460D02*
X17203520Y-13208841D01*
X17203520Y-13208841D02*
X17203520Y-13170746D01*
X17203520Y-13170746D02*
X17213044Y-13123127D01*
X17213044Y-13123127D02*
X17222568Y-13094555D01*
X17222568Y-13094555D02*
X17232091Y-13075508D01*
X17232091Y-13075508D02*
X17251139Y-13046936D01*
X17251139Y-13046936D02*
X17260663Y-13037412D01*
X17317806Y-13065984D02*
X17441615Y-13065984D01*
X17441615Y-13065984D02*
X17374949Y-13142174D01*
X17374949Y-13142174D02*
X17403520Y-13142174D01*
X17403520Y-13142174D02*
X17422568Y-13151698D01*
X17422568Y-13151698D02*
X17432091Y-13161222D01*
X17432091Y-13161222D02*
X17441615Y-13180269D01*
X17441615Y-13180269D02*
X17441615Y-13227888D01*
X17441615Y-13227888D02*
X17432091Y-13246936D01*
X17432091Y-13246936D02*
X17422568Y-13256460D01*
X17422568Y-13256460D02*
X17403520Y-13265984D01*
X17403520Y-13265984D02*
X17346377Y-13265984D01*
X17346377Y-13265984D02*
X17327330Y-13256460D01*
X17327330Y-13256460D02*
X17317806Y-13246936D01*
X17508282Y-13065984D02*
X17632091Y-13065984D01*
X17632091Y-13065984D02*
X17565425Y-13142174D01*
X17565425Y-13142174D02*
X17593996Y-13142174D01*
X17593996Y-13142174D02*
X17613044Y-13151698D01*
X17613044Y-13151698D02*
X17622568Y-13161222D01*
X17622568Y-13161222D02*
X17632091Y-13180269D01*
X17632091Y-13180269D02*
X17632091Y-13227888D01*
X17632091Y-13227888D02*
X17622568Y-13246936D01*
X17622568Y-13246936D02*
X17613044Y-13256460D01*
X17613044Y-13256460D02*
X17593996Y-13265984D01*
X17593996Y-13265984D02*
X17536853Y-13265984D01*
X17536853Y-13265984D02*
X17517806Y-13256460D01*
X17517806Y-13256460D02*
X17508282Y-13246936D01*
X17870187Y-13265984D02*
X17870187Y-13065984D01*
X17955901Y-13265984D02*
X17955901Y-13161222D01*
X17955901Y-13161222D02*
X17946377Y-13142174D01*
X17946377Y-13142174D02*
X17927330Y-13132650D01*
X17927330Y-13132650D02*
X17898758Y-13132650D01*
X17898758Y-13132650D02*
X17879711Y-13142174D01*
X17879711Y-13142174D02*
X17870187Y-13151698D01*
X18079711Y-13265984D02*
X18060663Y-13256460D01*
X18060663Y-13256460D02*
X18051139Y-13246936D01*
X18051139Y-13246936D02*
X18041615Y-13227888D01*
X18041615Y-13227888D02*
X18041615Y-13170746D01*
X18041615Y-13170746D02*
X18051139Y-13151698D01*
X18051139Y-13151698D02*
X18060663Y-13142174D01*
X18060663Y-13142174D02*
X18079711Y-13132650D01*
X18079711Y-13132650D02*
X18108282Y-13132650D01*
X18108282Y-13132650D02*
X18127330Y-13142174D01*
X18127330Y-13142174D02*
X18136853Y-13151698D01*
X18136853Y-13151698D02*
X18146377Y-13170746D01*
X18146377Y-13170746D02*
X18146377Y-13227888D01*
X18146377Y-13227888D02*
X18136853Y-13246936D01*
X18136853Y-13246936D02*
X18127330Y-13256460D01*
X18127330Y-13256460D02*
X18108282Y-13265984D01*
X18108282Y-13265984D02*
X18079711Y-13265984D01*
X18260663Y-13265984D02*
X18241615Y-13256460D01*
X18241615Y-13256460D02*
X18232092Y-13237412D01*
X18232092Y-13237412D02*
X18232092Y-13065984D01*
X18413044Y-13256460D02*
X18393996Y-13265984D01*
X18393996Y-13265984D02*
X18355901Y-13265984D01*
X18355901Y-13265984D02*
X18336853Y-13256460D01*
X18336853Y-13256460D02*
X18327330Y-13237412D01*
X18327330Y-13237412D02*
X18327330Y-13161222D01*
X18327330Y-13161222D02*
X18336853Y-13142174D01*
X18336853Y-13142174D02*
X18355901Y-13132650D01*
X18355901Y-13132650D02*
X18393996Y-13132650D01*
X18393996Y-13132650D02*
X18413044Y-13142174D01*
X18413044Y-13142174D02*
X18422568Y-13161222D01*
X18422568Y-13161222D02*
X18422568Y-13180269D01*
X18422568Y-13180269D02*
X18327330Y-13199317D01*
X18498758Y-13256460D02*
X18517806Y-13265984D01*
X18517806Y-13265984D02*
X18555901Y-13265984D01*
X18555901Y-13265984D02*
X18574949Y-13256460D01*
X18574949Y-13256460D02*
X18584473Y-13237412D01*
X18584473Y-13237412D02*
X18584473Y-13227888D01*
X18584473Y-13227888D02*
X18574949Y-13208841D01*
X18574949Y-13208841D02*
X18555901Y-13199317D01*
X18555901Y-13199317D02*
X18527330Y-13199317D01*
X18527330Y-13199317D02*
X18508282Y-13189793D01*
X18508282Y-13189793D02*
X18498758Y-13170746D01*
X18498758Y-13170746D02*
X18498758Y-13161222D01*
X18498758Y-13161222D02*
X18508282Y-13142174D01*
X18508282Y-13142174D02*
X18527330Y-13132650D01*
X18527330Y-13132650D02*
X18555901Y-13132650D01*
X18555901Y-13132650D02*
X18574949Y-13142174D01*
X18822568Y-13189793D02*
X18974949Y-13189793D01*
X18898758Y-13265984D02*
X18898758Y-13113603D01*
X19203520Y-13065984D02*
X19327330Y-13065984D01*
X19327330Y-13065984D02*
X19260663Y-13142174D01*
X19260663Y-13142174D02*
X19289235Y-13142174D01*
X19289235Y-13142174D02*
X19308282Y-13151698D01*
X19308282Y-13151698D02*
X19317806Y-13161222D01*
X19317806Y-13161222D02*
X19327330Y-13180269D01*
X19327330Y-13180269D02*
X19327330Y-13227888D01*
X19327330Y-13227888D02*
X19317806Y-13246936D01*
X19317806Y-13246936D02*
X19308282Y-13256460D01*
X19308282Y-13256460D02*
X19289235Y-13265984D01*
X19289235Y-13265984D02*
X19232092Y-13265984D01*
X19232092Y-13265984D02*
X19213044Y-13256460D01*
X19213044Y-13256460D02*
X19203520Y-13246936D01*
X19555901Y-13256460D02*
X19574949Y-13265984D01*
X19574949Y-13265984D02*
X19613044Y-13265984D01*
X19613044Y-13265984D02*
X19632092Y-13256460D01*
X19632092Y-13256460D02*
X19641616Y-13237412D01*
X19641616Y-13237412D02*
X19641616Y-13227888D01*
X19641616Y-13227888D02*
X19632092Y-13208841D01*
X19632092Y-13208841D02*
X19613044Y-13199317D01*
X19613044Y-13199317D02*
X19584473Y-13199317D01*
X19584473Y-13199317D02*
X19565425Y-13189793D01*
X19565425Y-13189793D02*
X19555901Y-13170746D01*
X19555901Y-13170746D02*
X19555901Y-13161222D01*
X19555901Y-13161222D02*
X19565425Y-13142174D01*
X19565425Y-13142174D02*
X19584473Y-13132650D01*
X19584473Y-13132650D02*
X19613044Y-13132650D01*
X19613044Y-13132650D02*
X19632092Y-13142174D01*
X19755901Y-13265984D02*
X19736854Y-13256460D01*
X19736854Y-13256460D02*
X19727330Y-13237412D01*
X19727330Y-13237412D02*
X19727330Y-13065984D01*
X19860663Y-13265984D02*
X19841616Y-13256460D01*
X19841616Y-13256460D02*
X19832092Y-13246936D01*
X19832092Y-13246936D02*
X19822568Y-13227888D01*
X19822568Y-13227888D02*
X19822568Y-13170746D01*
X19822568Y-13170746D02*
X19832092Y-13151698D01*
X19832092Y-13151698D02*
X19841616Y-13142174D01*
X19841616Y-13142174D02*
X19860663Y-13132650D01*
X19860663Y-13132650D02*
X19889235Y-13132650D01*
X19889235Y-13132650D02*
X19908282Y-13142174D01*
X19908282Y-13142174D02*
X19917806Y-13151698D01*
X19917806Y-13151698D02*
X19927330Y-13170746D01*
X19927330Y-13170746D02*
X19927330Y-13227888D01*
X19927330Y-13227888D02*
X19917806Y-13246936D01*
X19917806Y-13246936D02*
X19908282Y-13256460D01*
X19908282Y-13256460D02*
X19889235Y-13265984D01*
X19889235Y-13265984D02*
X19860663Y-13265984D01*
X19984473Y-13132650D02*
X20060663Y-13132650D01*
X20013044Y-13065984D02*
X20013044Y-13237412D01*
X20013044Y-13237412D02*
X20022568Y-13256460D01*
X20022568Y-13256460D02*
X20041616Y-13265984D01*
X20041616Y-13265984D02*
X20060663Y-13265984D01*
X20117806Y-13256460D02*
X20136854Y-13265984D01*
X20136854Y-13265984D02*
X20174949Y-13265984D01*
X20174949Y-13265984D02*
X20193997Y-13256460D01*
X20193997Y-13256460D02*
X20203520Y-13237412D01*
X20203520Y-13237412D02*
X20203520Y-13227888D01*
X20203520Y-13227888D02*
X20193997Y-13208841D01*
X20193997Y-13208841D02*
X20174949Y-13199317D01*
X20174949Y-13199317D02*
X20146377Y-13199317D01*
X20146377Y-13199317D02*
X20127330Y-13189793D01*
X20127330Y-13189793D02*
X20117806Y-13170746D01*
X20117806Y-13170746D02*
X20117806Y-13161222D01*
X20117806Y-13161222D02*
X20127330Y-13142174D01*
X20127330Y-13142174D02*
X20146377Y-13132650D01*
X20146377Y-13132650D02*
X20174949Y-13132650D01*
X20174949Y-13132650D02*
X20193997Y-13142174D01*
X20270187Y-13342174D02*
X20279711Y-13332650D01*
X20279711Y-13332650D02*
X20298758Y-13304079D01*
X20298758Y-13304079D02*
X20308282Y-13285031D01*
X20308282Y-13285031D02*
X20317806Y-13256460D01*
X20317806Y-13256460D02*
X20327330Y-13208841D01*
X20327330Y-13208841D02*
X20327330Y-13170746D01*
X20327330Y-13170746D02*
X20317806Y-13123127D01*
X20317806Y-13123127D02*
X20308282Y-13094555D01*
X20308282Y-13094555D02*
X20298758Y-13075508D01*
X20298758Y-13075508D02*
X20279711Y-13046936D01*
X20279711Y-13046936D02*
X20270187Y-13037412D01*
D14*
X13669491Y-13477391D02*
X13669491Y-13399609D01*
X13591709Y-13399609D01*
X13591709Y-13477391D01*
X13669491Y-13477391D01*
D11*
X14051139Y-13529984D02*
X13936853Y-13529984D01*
X13993996Y-13529984D02*
X13993996Y-13329984D01*
X13993996Y-13329984D02*
X13974948Y-13358555D01*
X13974948Y-13358555D02*
X13955901Y-13377603D01*
X13955901Y-13377603D02*
X13936853Y-13387127D01*
X14136853Y-13510936D02*
X14146377Y-13520460D01*
X14146377Y-13520460D02*
X14136853Y-13529984D01*
X14136853Y-13529984D02*
X14127329Y-13520460D01*
X14127329Y-13520460D02*
X14136853Y-13510936D01*
X14136853Y-13510936D02*
X14136853Y-13529984D01*
X14336853Y-13529984D02*
X14222567Y-13529984D01*
X14279710Y-13529984D02*
X14279710Y-13329984D01*
X14279710Y-13329984D02*
X14260662Y-13358555D01*
X14260662Y-13358555D02*
X14241615Y-13377603D01*
X14241615Y-13377603D02*
X14222567Y-13387127D01*
X14460662Y-13329984D02*
X14479710Y-13329984D01*
X14479710Y-13329984D02*
X14498758Y-13339508D01*
X14498758Y-13339508D02*
X14508282Y-13349031D01*
X14508282Y-13349031D02*
X14517805Y-13368079D01*
X14517805Y-13368079D02*
X14527329Y-13406174D01*
X14527329Y-13406174D02*
X14527329Y-13453793D01*
X14527329Y-13453793D02*
X14517805Y-13491888D01*
X14517805Y-13491888D02*
X14508282Y-13510936D01*
X14508282Y-13510936D02*
X14498758Y-13520460D01*
X14498758Y-13520460D02*
X14479710Y-13529984D01*
X14479710Y-13529984D02*
X14460662Y-13529984D01*
X14460662Y-13529984D02*
X14441615Y-13520460D01*
X14441615Y-13520460D02*
X14432091Y-13510936D01*
X14432091Y-13510936D02*
X14422567Y-13491888D01*
X14422567Y-13491888D02*
X14413043Y-13453793D01*
X14413043Y-13453793D02*
X14413043Y-13406174D01*
X14413043Y-13406174D02*
X14422567Y-13368079D01*
X14422567Y-13368079D02*
X14432091Y-13349031D01*
X14432091Y-13349031D02*
X14441615Y-13339508D01*
X14441615Y-13339508D02*
X14460662Y-13329984D01*
X14651139Y-13329984D02*
X14670186Y-13329984D01*
X14670186Y-13329984D02*
X14689234Y-13339508D01*
X14689234Y-13339508D02*
X14698758Y-13349031D01*
X14698758Y-13349031D02*
X14708282Y-13368079D01*
X14708282Y-13368079D02*
X14717805Y-13406174D01*
X14717805Y-13406174D02*
X14717805Y-13453793D01*
X14717805Y-13453793D02*
X14708282Y-13491888D01*
X14708282Y-13491888D02*
X14698758Y-13510936D01*
X14698758Y-13510936D02*
X14689234Y-13520460D01*
X14689234Y-13520460D02*
X14670186Y-13529984D01*
X14670186Y-13529984D02*
X14651139Y-13529984D01*
X14651139Y-13529984D02*
X14632091Y-13520460D01*
X14632091Y-13520460D02*
X14622567Y-13510936D01*
X14622567Y-13510936D02*
X14613043Y-13491888D01*
X14613043Y-13491888D02*
X14603520Y-13453793D01*
X14603520Y-13453793D02*
X14603520Y-13406174D01*
X14603520Y-13406174D02*
X14613043Y-13368079D01*
X14613043Y-13368079D02*
X14622567Y-13349031D01*
X14622567Y-13349031D02*
X14632091Y-13339508D01*
X14632091Y-13339508D02*
X14651139Y-13329984D01*
X14803520Y-13529984D02*
X14803520Y-13396650D01*
X14803520Y-13415698D02*
X14813043Y-13406174D01*
X14813043Y-13406174D02*
X14832091Y-13396650D01*
X14832091Y-13396650D02*
X14860663Y-13396650D01*
X14860663Y-13396650D02*
X14879710Y-13406174D01*
X14879710Y-13406174D02*
X14889234Y-13425222D01*
X14889234Y-13425222D02*
X14889234Y-13529984D01*
X14889234Y-13425222D02*
X14898758Y-13406174D01*
X14898758Y-13406174D02*
X14917805Y-13396650D01*
X14917805Y-13396650D02*
X14946377Y-13396650D01*
X14946377Y-13396650D02*
X14965424Y-13406174D01*
X14965424Y-13406174D02*
X14974948Y-13425222D01*
X14974948Y-13425222D02*
X14974948Y-13529984D01*
X15070186Y-13529984D02*
X15070186Y-13396650D01*
X15070186Y-13415698D02*
X15079710Y-13406174D01*
X15079710Y-13406174D02*
X15098758Y-13396650D01*
X15098758Y-13396650D02*
X15127329Y-13396650D01*
X15127329Y-13396650D02*
X15146377Y-13406174D01*
X15146377Y-13406174D02*
X15155901Y-13425222D01*
X15155901Y-13425222D02*
X15155901Y-13529984D01*
X15155901Y-13425222D02*
X15165424Y-13406174D01*
X15165424Y-13406174D02*
X15184472Y-13396650D01*
X15184472Y-13396650D02*
X15213043Y-13396650D01*
X15213043Y-13396650D02*
X15232091Y-13406174D01*
X15232091Y-13406174D02*
X15241615Y-13425222D01*
X15241615Y-13425222D02*
X15241615Y-13529984D01*
X15632091Y-13320460D02*
X15460663Y-13577603D01*
X15889234Y-13329984D02*
X15908282Y-13329984D01*
X15908282Y-13329984D02*
X15927329Y-13339508D01*
X15927329Y-13339508D02*
X15936853Y-13349031D01*
X15936853Y-13349031D02*
X15946377Y-13368079D01*
X15946377Y-13368079D02*
X15955901Y-13406174D01*
X15955901Y-13406174D02*
X15955901Y-13453793D01*
X15955901Y-13453793D02*
X15946377Y-13491888D01*
X15946377Y-13491888D02*
X15936853Y-13510936D01*
X15936853Y-13510936D02*
X15927329Y-13520460D01*
X15927329Y-13520460D02*
X15908282Y-13529984D01*
X15908282Y-13529984D02*
X15889234Y-13529984D01*
X15889234Y-13529984D02*
X15870186Y-13520460D01*
X15870186Y-13520460D02*
X15860663Y-13510936D01*
X15860663Y-13510936D02*
X15851139Y-13491888D01*
X15851139Y-13491888D02*
X15841615Y-13453793D01*
X15841615Y-13453793D02*
X15841615Y-13406174D01*
X15841615Y-13406174D02*
X15851139Y-13368079D01*
X15851139Y-13368079D02*
X15860663Y-13349031D01*
X15860663Y-13349031D02*
X15870186Y-13339508D01*
X15870186Y-13339508D02*
X15889234Y-13329984D01*
X16041615Y-13510936D02*
X16051139Y-13520460D01*
X16051139Y-13520460D02*
X16041615Y-13529984D01*
X16041615Y-13529984D02*
X16032091Y-13520460D01*
X16032091Y-13520460D02*
X16041615Y-13510936D01*
X16041615Y-13510936D02*
X16041615Y-13529984D01*
X16174948Y-13329984D02*
X16193996Y-13329984D01*
X16193996Y-13329984D02*
X16213044Y-13339508D01*
X16213044Y-13339508D02*
X16222567Y-13349031D01*
X16222567Y-13349031D02*
X16232091Y-13368079D01*
X16232091Y-13368079D02*
X16241615Y-13406174D01*
X16241615Y-13406174D02*
X16241615Y-13453793D01*
X16241615Y-13453793D02*
X16232091Y-13491888D01*
X16232091Y-13491888D02*
X16222567Y-13510936D01*
X16222567Y-13510936D02*
X16213044Y-13520460D01*
X16213044Y-13520460D02*
X16193996Y-13529984D01*
X16193996Y-13529984D02*
X16174948Y-13529984D01*
X16174948Y-13529984D02*
X16155901Y-13520460D01*
X16155901Y-13520460D02*
X16146377Y-13510936D01*
X16146377Y-13510936D02*
X16136853Y-13491888D01*
X16136853Y-13491888D02*
X16127329Y-13453793D01*
X16127329Y-13453793D02*
X16127329Y-13406174D01*
X16127329Y-13406174D02*
X16136853Y-13368079D01*
X16136853Y-13368079D02*
X16146377Y-13349031D01*
X16146377Y-13349031D02*
X16155901Y-13339508D01*
X16155901Y-13339508D02*
X16174948Y-13329984D01*
X16413044Y-13396650D02*
X16413044Y-13529984D01*
X16365425Y-13320460D02*
X16317806Y-13463317D01*
X16317806Y-13463317D02*
X16441615Y-13463317D01*
X16498758Y-13329984D02*
X16622567Y-13329984D01*
X16622567Y-13329984D02*
X16555901Y-13406174D01*
X16555901Y-13406174D02*
X16584472Y-13406174D01*
X16584472Y-13406174D02*
X16603520Y-13415698D01*
X16603520Y-13415698D02*
X16613044Y-13425222D01*
X16613044Y-13425222D02*
X16622567Y-13444269D01*
X16622567Y-13444269D02*
X16622567Y-13491888D01*
X16622567Y-13491888D02*
X16613044Y-13510936D01*
X16613044Y-13510936D02*
X16603520Y-13520460D01*
X16603520Y-13520460D02*
X16584472Y-13529984D01*
X16584472Y-13529984D02*
X16527329Y-13529984D01*
X16527329Y-13529984D02*
X16508282Y-13520460D01*
X16508282Y-13520460D02*
X16498758Y-13510936D01*
X16689234Y-13329984D02*
X16813044Y-13329984D01*
X16813044Y-13329984D02*
X16746377Y-13406174D01*
X16746377Y-13406174D02*
X16774948Y-13406174D01*
X16774948Y-13406174D02*
X16793996Y-13415698D01*
X16793996Y-13415698D02*
X16803520Y-13425222D01*
X16803520Y-13425222D02*
X16813044Y-13444269D01*
X16813044Y-13444269D02*
X16813044Y-13491888D01*
X16813044Y-13491888D02*
X16803520Y-13510936D01*
X16803520Y-13510936D02*
X16793996Y-13520460D01*
X16793996Y-13520460D02*
X16774948Y-13529984D01*
X16774948Y-13529984D02*
X16717806Y-13529984D01*
X16717806Y-13529984D02*
X16698758Y-13520460D01*
X16698758Y-13520460D02*
X16689234Y-13510936D01*
X16889234Y-13329984D02*
X16889234Y-13368079D01*
X16965425Y-13329984D02*
X16965425Y-13368079D01*
X17260663Y-13606174D02*
X17251139Y-13596650D01*
X17251139Y-13596650D02*
X17232091Y-13568079D01*
X17232091Y-13568079D02*
X17222568Y-13549031D01*
X17222568Y-13549031D02*
X17213044Y-13520460D01*
X17213044Y-13520460D02*
X17203520Y-13472841D01*
X17203520Y-13472841D02*
X17203520Y-13434746D01*
X17203520Y-13434746D02*
X17213044Y-13387127D01*
X17213044Y-13387127D02*
X17222568Y-13358555D01*
X17222568Y-13358555D02*
X17232091Y-13339508D01*
X17232091Y-13339508D02*
X17251139Y-13310936D01*
X17251139Y-13310936D02*
X17260663Y-13301412D01*
X17365425Y-13415698D02*
X17346377Y-13406174D01*
X17346377Y-13406174D02*
X17336853Y-13396650D01*
X17336853Y-13396650D02*
X17327330Y-13377603D01*
X17327330Y-13377603D02*
X17327330Y-13368079D01*
X17327330Y-13368079D02*
X17336853Y-13349031D01*
X17336853Y-13349031D02*
X17346377Y-13339508D01*
X17346377Y-13339508D02*
X17365425Y-13329984D01*
X17365425Y-13329984D02*
X17403520Y-13329984D01*
X17403520Y-13329984D02*
X17422568Y-13339508D01*
X17422568Y-13339508D02*
X17432091Y-13349031D01*
X17432091Y-13349031D02*
X17441615Y-13368079D01*
X17441615Y-13368079D02*
X17441615Y-13377603D01*
X17441615Y-13377603D02*
X17432091Y-13396650D01*
X17432091Y-13396650D02*
X17422568Y-13406174D01*
X17422568Y-13406174D02*
X17403520Y-13415698D01*
X17403520Y-13415698D02*
X17365425Y-13415698D01*
X17365425Y-13415698D02*
X17346377Y-13425222D01*
X17346377Y-13425222D02*
X17336853Y-13434746D01*
X17336853Y-13434746D02*
X17327330Y-13453793D01*
X17327330Y-13453793D02*
X17327330Y-13491888D01*
X17327330Y-13491888D02*
X17336853Y-13510936D01*
X17336853Y-13510936D02*
X17346377Y-13520460D01*
X17346377Y-13520460D02*
X17365425Y-13529984D01*
X17365425Y-13529984D02*
X17403520Y-13529984D01*
X17403520Y-13529984D02*
X17422568Y-13520460D01*
X17422568Y-13520460D02*
X17432091Y-13510936D01*
X17432091Y-13510936D02*
X17441615Y-13491888D01*
X17441615Y-13491888D02*
X17441615Y-13453793D01*
X17441615Y-13453793D02*
X17432091Y-13434746D01*
X17432091Y-13434746D02*
X17422568Y-13425222D01*
X17422568Y-13425222D02*
X17403520Y-13415698D01*
X17679711Y-13529984D02*
X17679711Y-13329984D01*
X17765425Y-13529984D02*
X17765425Y-13425222D01*
X17765425Y-13425222D02*
X17755901Y-13406174D01*
X17755901Y-13406174D02*
X17736853Y-13396650D01*
X17736853Y-13396650D02*
X17708282Y-13396650D01*
X17708282Y-13396650D02*
X17689234Y-13406174D01*
X17689234Y-13406174D02*
X17679711Y-13415698D01*
X17889234Y-13529984D02*
X17870187Y-13520460D01*
X17870187Y-13520460D02*
X17860663Y-13510936D01*
X17860663Y-13510936D02*
X17851139Y-13491888D01*
X17851139Y-13491888D02*
X17851139Y-13434746D01*
X17851139Y-13434746D02*
X17860663Y-13415698D01*
X17860663Y-13415698D02*
X17870187Y-13406174D01*
X17870187Y-13406174D02*
X17889234Y-13396650D01*
X17889234Y-13396650D02*
X17917806Y-13396650D01*
X17917806Y-13396650D02*
X17936853Y-13406174D01*
X17936853Y-13406174D02*
X17946377Y-13415698D01*
X17946377Y-13415698D02*
X17955901Y-13434746D01*
X17955901Y-13434746D02*
X17955901Y-13491888D01*
X17955901Y-13491888D02*
X17946377Y-13510936D01*
X17946377Y-13510936D02*
X17936853Y-13520460D01*
X17936853Y-13520460D02*
X17917806Y-13529984D01*
X17917806Y-13529984D02*
X17889234Y-13529984D01*
X18070187Y-13529984D02*
X18051139Y-13520460D01*
X18051139Y-13520460D02*
X18041615Y-13501412D01*
X18041615Y-13501412D02*
X18041615Y-13329984D01*
X18222568Y-13520460D02*
X18203520Y-13529984D01*
X18203520Y-13529984D02*
X18165425Y-13529984D01*
X18165425Y-13529984D02*
X18146377Y-13520460D01*
X18146377Y-13520460D02*
X18136853Y-13501412D01*
X18136853Y-13501412D02*
X18136853Y-13425222D01*
X18136853Y-13425222D02*
X18146377Y-13406174D01*
X18146377Y-13406174D02*
X18165425Y-13396650D01*
X18165425Y-13396650D02*
X18203520Y-13396650D01*
X18203520Y-13396650D02*
X18222568Y-13406174D01*
X18222568Y-13406174D02*
X18232092Y-13425222D01*
X18232092Y-13425222D02*
X18232092Y-13444269D01*
X18232092Y-13444269D02*
X18136853Y-13463317D01*
X18308282Y-13520460D02*
X18327330Y-13529984D01*
X18327330Y-13529984D02*
X18365425Y-13529984D01*
X18365425Y-13529984D02*
X18384473Y-13520460D01*
X18384473Y-13520460D02*
X18393996Y-13501412D01*
X18393996Y-13501412D02*
X18393996Y-13491888D01*
X18393996Y-13491888D02*
X18384473Y-13472841D01*
X18384473Y-13472841D02*
X18365425Y-13463317D01*
X18365425Y-13463317D02*
X18336853Y-13463317D01*
X18336853Y-13463317D02*
X18317806Y-13453793D01*
X18317806Y-13453793D02*
X18308282Y-13434746D01*
X18308282Y-13434746D02*
X18308282Y-13425222D01*
X18308282Y-13425222D02*
X18317806Y-13406174D01*
X18317806Y-13406174D02*
X18336853Y-13396650D01*
X18336853Y-13396650D02*
X18365425Y-13396650D01*
X18365425Y-13396650D02*
X18384473Y-13406174D01*
X18460663Y-13606174D02*
X18470187Y-13596650D01*
X18470187Y-13596650D02*
X18489234Y-13568079D01*
X18489234Y-13568079D02*
X18498758Y-13549031D01*
X18498758Y-13549031D02*
X18508282Y-13520460D01*
X18508282Y-13520460D02*
X18517806Y-13472841D01*
X18517806Y-13472841D02*
X18517806Y-13434746D01*
X18517806Y-13434746D02*
X18508282Y-13387127D01*
X18508282Y-13387127D02*
X18498758Y-13358555D01*
X18498758Y-13358555D02*
X18489234Y-13339508D01*
X18489234Y-13339508D02*
X18470187Y-13310936D01*
X18470187Y-13310936D02*
X18460663Y-13301412D01*
M02*
