%TF.GenerationSoftware,KiCad,Pcbnew,7.0.5*%
%TF.CreationDate,2023-06-25T17:44:10+02:00*%
%TF.ProjectId,test,74657374-2e6b-4696-9361-645f70636258,rev?*%
%TF.SameCoordinates,Original*%
%TF.FileFunction,Drillmap*%
%TF.FilePolarity,Positive*%
%FSLAX45Y45*%
G04 Gerber Fmt 4.5, Leading zero omitted, Abs format (unit mm)*
G04 Created by KiCad (PCBNEW 7.0.5) date 2023-06-25 17:44:10*
%MOMM*%
%LPD*%
G01*
G04 APERTURE LIST*
%ADD10C,0.100000*%
%ADD11C,0.200000*%
G04 APERTURE END LIST*
D10*
X13690600Y-3263900D02*
X19659600Y-3263900D01*
X19659600Y-12001500D01*
X13690600Y-12001500D01*
X13690600Y-3263900D01*
D11*
X13946377Y-12317984D02*
X13946377Y-12117984D01*
X13946377Y-12117984D02*
X13993996Y-12117984D01*
X13993996Y-12117984D02*
X14022567Y-12127508D01*
X14022567Y-12127508D02*
X14041615Y-12146555D01*
X14041615Y-12146555D02*
X14051139Y-12165603D01*
X14051139Y-12165603D02*
X14060662Y-12203698D01*
X14060662Y-12203698D02*
X14060662Y-12232269D01*
X14060662Y-12232269D02*
X14051139Y-12270365D01*
X14051139Y-12270365D02*
X14041615Y-12289412D01*
X14041615Y-12289412D02*
X14022567Y-12308460D01*
X14022567Y-12308460D02*
X13993996Y-12317984D01*
X13993996Y-12317984D02*
X13946377Y-12317984D01*
X14146377Y-12317984D02*
X14146377Y-12184650D01*
X14146377Y-12222746D02*
X14155901Y-12203698D01*
X14155901Y-12203698D02*
X14165424Y-12194174D01*
X14165424Y-12194174D02*
X14184472Y-12184650D01*
X14184472Y-12184650D02*
X14203520Y-12184650D01*
X14270186Y-12317984D02*
X14270186Y-12184650D01*
X14270186Y-12117984D02*
X14260662Y-12127508D01*
X14260662Y-12127508D02*
X14270186Y-12137031D01*
X14270186Y-12137031D02*
X14279710Y-12127508D01*
X14279710Y-12127508D02*
X14270186Y-12117984D01*
X14270186Y-12117984D02*
X14270186Y-12137031D01*
X14393996Y-12317984D02*
X14374948Y-12308460D01*
X14374948Y-12308460D02*
X14365424Y-12289412D01*
X14365424Y-12289412D02*
X14365424Y-12117984D01*
X14498758Y-12317984D02*
X14479710Y-12308460D01*
X14479710Y-12308460D02*
X14470186Y-12289412D01*
X14470186Y-12289412D02*
X14470186Y-12117984D01*
X14727329Y-12317984D02*
X14727329Y-12117984D01*
X14727329Y-12117984D02*
X14793996Y-12260841D01*
X14793996Y-12260841D02*
X14860662Y-12117984D01*
X14860662Y-12117984D02*
X14860662Y-12317984D01*
X15041615Y-12317984D02*
X15041615Y-12213222D01*
X15041615Y-12213222D02*
X15032091Y-12194174D01*
X15032091Y-12194174D02*
X15013043Y-12184650D01*
X15013043Y-12184650D02*
X14974948Y-12184650D01*
X14974948Y-12184650D02*
X14955901Y-12194174D01*
X15041615Y-12308460D02*
X15022567Y-12317984D01*
X15022567Y-12317984D02*
X14974948Y-12317984D01*
X14974948Y-12317984D02*
X14955901Y-12308460D01*
X14955901Y-12308460D02*
X14946377Y-12289412D01*
X14946377Y-12289412D02*
X14946377Y-12270365D01*
X14946377Y-12270365D02*
X14955901Y-12251317D01*
X14955901Y-12251317D02*
X14974948Y-12241793D01*
X14974948Y-12241793D02*
X15022567Y-12241793D01*
X15022567Y-12241793D02*
X15041615Y-12232269D01*
X15136853Y-12184650D02*
X15136853Y-12384650D01*
X15136853Y-12194174D02*
X15155901Y-12184650D01*
X15155901Y-12184650D02*
X15193996Y-12184650D01*
X15193996Y-12184650D02*
X15213043Y-12194174D01*
X15213043Y-12194174D02*
X15222567Y-12203698D01*
X15222567Y-12203698D02*
X15232091Y-12222746D01*
X15232091Y-12222746D02*
X15232091Y-12279888D01*
X15232091Y-12279888D02*
X15222567Y-12298936D01*
X15222567Y-12298936D02*
X15213043Y-12308460D01*
X15213043Y-12308460D02*
X15193996Y-12317984D01*
X15193996Y-12317984D02*
X15155901Y-12317984D01*
X15155901Y-12317984D02*
X15136853Y-12308460D01*
X15317805Y-12298936D02*
X15327329Y-12308460D01*
X15327329Y-12308460D02*
X15317805Y-12317984D01*
X15317805Y-12317984D02*
X15308282Y-12308460D01*
X15308282Y-12308460D02*
X15317805Y-12298936D01*
X15317805Y-12298936D02*
X15317805Y-12317984D01*
X15317805Y-12194174D02*
X15327329Y-12203698D01*
X15327329Y-12203698D02*
X15317805Y-12213222D01*
X15317805Y-12213222D02*
X15308282Y-12203698D01*
X15308282Y-12203698D02*
X15317805Y-12194174D01*
X15317805Y-12194174D02*
X15317805Y-12213222D01*
M02*
