G04 #@! TF.GenerationSoftware,KiCad,Pcbnew,7.0.5*
G04 #@! TF.CreationDate,2023-06-25T17:44:05+02:00*
G04 #@! TF.ProjectId,test,74657374-2e6b-4696-9361-645f70636258,rev?*
G04 #@! TF.SameCoordinates,Original*
G04 #@! TF.FileFunction,Copper,L1,Top*
G04 #@! TF.FilePolarity,Positive*
%FSLAX46Y46*%
G04 Gerber Fmt 4.6, Leading zero omitted, Abs format (unit mm)*
G04 Created by KiCad (PCBNEW 7.0.5) date 2023-06-25 17:44:05*
%MOMM*%
%LPD*%
G01*
G04 APERTURE LIST*
G04 Aperture macros list*
%AMRoundRect*
0 Rectangle with rounded corners*
0 $1 Rounding radius*
0 $2 $3 $4 $5 $6 $7 $8 $9 X,Y pos of 4 corners*
0 Add a 4 corners polygon primitive as box body*
4,1,4,$2,$3,$4,$5,$6,$7,$8,$9,$2,$3,0*
0 Add four circle primitives for the rounded corners*
1,1,$1+$1,$2,$3*
1,1,$1+$1,$4,$5*
1,1,$1+$1,$6,$7*
1,1,$1+$1,$8,$9*
0 Add four rect primitives between the rounded corners*
20,1,$1+$1,$2,$3,$4,$5,0*
20,1,$1+$1,$4,$5,$6,$7,0*
20,1,$1+$1,$6,$7,$8,$9,0*
20,1,$1+$1,$8,$9,$2,$3,0*%
G04 Aperture macros list end*
G04 #@! TA.AperFunction,ComponentPad*
%ADD10C,2.000000*%
G04 #@! TD*
G04 #@! TA.AperFunction,ComponentPad*
%ADD11R,1.600000X1.600000*%
G04 #@! TD*
G04 #@! TA.AperFunction,ComponentPad*
%ADD12O,1.600000X1.600000*%
G04 #@! TD*
G04 #@! TA.AperFunction,ComponentPad*
%ADD13R,1.700000X1.700000*%
G04 #@! TD*
G04 #@! TA.AperFunction,ComponentPad*
%ADD14O,1.700000X1.700000*%
G04 #@! TD*
G04 #@! TA.AperFunction,ComponentPad*
%ADD15R,3.500000X3.500000*%
G04 #@! TD*
G04 #@! TA.AperFunction,ComponentPad*
%ADD16RoundRect,0.750000X1.000000X-0.750000X1.000000X0.750000X-1.000000X0.750000X-1.000000X-0.750000X0*%
G04 #@! TD*
G04 #@! TA.AperFunction,ComponentPad*
%ADD17RoundRect,0.875000X0.875000X-0.875000X0.875000X0.875000X-0.875000X0.875000X-0.875000X-0.875000X0*%
G04 #@! TD*
G04 #@! TA.AperFunction,ComponentPad*
%ADD18C,1.600000*%
G04 #@! TD*
G04 #@! TA.AperFunction,ComponentPad*
%ADD19C,1.524000*%
G04 #@! TD*
G04 #@! TA.AperFunction,Conductor*
%ADD20C,1.000000*%
G04 #@! TD*
G04 #@! TA.AperFunction,Conductor*
%ADD21C,0.250000*%
G04 #@! TD*
G04 APERTURE END LIST*
D10*
X171502000Y-97191000D03*
X178002000Y-97191000D03*
X171502000Y-101691000D03*
X178002000Y-101691000D03*
D11*
X140716000Y-77089000D03*
D12*
X140716000Y-79629000D03*
X140716000Y-82169000D03*
X140716000Y-84709000D03*
X140716000Y-87249000D03*
X140716000Y-89789000D03*
X140716000Y-92329000D03*
X140716000Y-94869000D03*
X140716000Y-97409000D03*
X140716000Y-99949000D03*
X140716000Y-102489000D03*
X140716000Y-105029000D03*
X140716000Y-107569000D03*
X140716000Y-110109000D03*
X140716000Y-112649000D03*
X155956000Y-112649000D03*
X155956000Y-110109000D03*
X155956000Y-107569000D03*
X155956000Y-105029000D03*
X155956000Y-102489000D03*
X155956000Y-99949000D03*
X155956000Y-97409000D03*
X155956000Y-94869000D03*
X155956000Y-92329000D03*
X155956000Y-89789000D03*
X155956000Y-87249000D03*
X155956000Y-84709000D03*
X155956000Y-82169000D03*
X155956000Y-79629000D03*
X155956000Y-77089000D03*
D13*
X179070000Y-111379000D03*
D14*
X179070000Y-113919000D03*
X179070000Y-116459000D03*
D15*
X188526500Y-104617000D03*
D16*
X188526500Y-110617000D03*
D17*
X193226500Y-107617000D03*
D18*
X183134000Y-99949000D03*
D12*
X193294000Y-99949000D03*
X172212000Y-117094000D03*
D18*
X172212000Y-106934000D03*
D19*
X189230000Y-85725000D03*
X189230000Y-83185000D03*
X189230000Y-80645000D03*
X189230000Y-78105000D03*
X189230000Y-75565000D03*
X189230000Y-73025000D03*
X189230000Y-70485000D03*
D10*
X160632000Y-97191000D03*
X167132000Y-97191000D03*
X160632000Y-101691000D03*
X167132000Y-101691000D03*
D19*
X186436000Y-52197000D03*
X186436000Y-49657000D03*
X186436000Y-47117000D03*
X186436000Y-44577000D03*
D12*
X163322000Y-117221000D03*
D18*
X163322000Y-107061000D03*
D20*
X183419000Y-104617000D02*
X188526500Y-104617000D01*
X179070000Y-108966000D02*
X183419000Y-104617000D01*
X179070000Y-111379000D02*
X179070000Y-108966000D01*
D21*
X158115000Y-84709000D02*
X160632000Y-87226000D01*
X160632000Y-87226000D02*
X160632000Y-97191000D01*
X155956000Y-84709000D02*
X158115000Y-84709000D01*
X189611000Y-49657000D02*
X193040000Y-53086000D01*
X193040000Y-53086000D02*
X193040000Y-77724000D01*
X186436000Y-49657000D02*
X189611000Y-49657000D01*
X193040000Y-92964000D02*
X193040000Y-77724000D01*
X193040000Y-77724000D02*
X190881000Y-75565000D01*
X190881000Y-75565000D02*
X189230000Y-75565000D01*
X186055000Y-99949000D02*
X193040000Y-92964000D01*
X183134000Y-99949000D02*
X186055000Y-99949000D01*
X178002000Y-97191000D02*
X160632000Y-97191000D01*
X180760000Y-99949000D02*
X178002000Y-97191000D01*
X183134000Y-99949000D02*
X180760000Y-99949000D01*
D20*
X188626000Y-104617000D02*
X193294000Y-99949000D01*
D21*
X188526500Y-104617000D02*
X188626000Y-104617000D01*
X167640000Y-106934000D02*
X172212000Y-106934000D01*
X157480000Y-117094000D02*
X167640000Y-106934000D01*
X146050000Y-117094000D02*
X157480000Y-117094000D01*
X144018000Y-115062000D02*
X146050000Y-117094000D01*
X144018000Y-104140000D02*
X144018000Y-115062000D01*
X142367000Y-102489000D02*
X144018000Y-104140000D01*
X140716000Y-102489000D02*
X142367000Y-102489000D01*
G04 #@! TA.AperFunction,Conductor*
G36*
X196285039Y-33039685D02*
G01*
X196330794Y-33092489D01*
X196342000Y-33144000D01*
X196342000Y-119764000D01*
X196322315Y-119831039D01*
X196269511Y-119876794D01*
X196218000Y-119888000D01*
X137284000Y-119888000D01*
X137216961Y-119868315D01*
X137171206Y-119815511D01*
X137160000Y-119764000D01*
X137160000Y-112649001D01*
X139410532Y-112649001D01*
X139430364Y-112875686D01*
X139430366Y-112875697D01*
X139489258Y-113095488D01*
X139489261Y-113095497D01*
X139585431Y-113301732D01*
X139585432Y-113301734D01*
X139715954Y-113488141D01*
X139876858Y-113649045D01*
X139876861Y-113649047D01*
X140063266Y-113779568D01*
X140269504Y-113875739D01*
X140489308Y-113934635D01*
X140651230Y-113948801D01*
X140715998Y-113954468D01*
X140716000Y-113954468D01*
X140716002Y-113954468D01*
X140772672Y-113949509D01*
X140942692Y-113934635D01*
X141162496Y-113875739D01*
X141368734Y-113779568D01*
X141555139Y-113649047D01*
X141716047Y-113488139D01*
X141846568Y-113301734D01*
X141942739Y-113095496D01*
X142001635Y-112875692D01*
X142021468Y-112649000D01*
X142001635Y-112422308D01*
X141942739Y-112202504D01*
X141846568Y-111996266D01*
X141716047Y-111809861D01*
X141716045Y-111809858D01*
X141555141Y-111648954D01*
X141368735Y-111518433D01*
X141368736Y-111518433D01*
X141368734Y-111518432D01*
X141310722Y-111491380D01*
X141258284Y-111445208D01*
X141239133Y-111378014D01*
X141259349Y-111311133D01*
X141310721Y-111266619D01*
X141368734Y-111239568D01*
X141555139Y-111109047D01*
X141716047Y-110948139D01*
X141846568Y-110761734D01*
X141942739Y-110555496D01*
X142001635Y-110335692D01*
X142021468Y-110109000D01*
X142001635Y-109882308D01*
X141942739Y-109662504D01*
X141846568Y-109456266D01*
X141716047Y-109269861D01*
X141716045Y-109269858D01*
X141555141Y-109108954D01*
X141368735Y-108978433D01*
X141368736Y-108978433D01*
X141368734Y-108978432D01*
X141310722Y-108951380D01*
X141258284Y-108905208D01*
X141239133Y-108838014D01*
X141259349Y-108771133D01*
X141310721Y-108726619D01*
X141368734Y-108699568D01*
X141555139Y-108569047D01*
X141716047Y-108408139D01*
X141846568Y-108221734D01*
X141942739Y-108015496D01*
X142001635Y-107795692D01*
X142019122Y-107595819D01*
X142021468Y-107569001D01*
X142021468Y-107568998D01*
X142001635Y-107342313D01*
X142001635Y-107342308D01*
X141942739Y-107122504D01*
X141846568Y-106916266D01*
X141716047Y-106729861D01*
X141716045Y-106729858D01*
X141555141Y-106568954D01*
X141368734Y-106438432D01*
X141368728Y-106438429D01*
X141318212Y-106414873D01*
X141310724Y-106411381D01*
X141258285Y-106365210D01*
X141239133Y-106298017D01*
X141259348Y-106231135D01*
X141310725Y-106186618D01*
X141368734Y-106159568D01*
X141555139Y-106029047D01*
X141716047Y-105868139D01*
X141846568Y-105681734D01*
X141942739Y-105475496D01*
X142001635Y-105255692D01*
X142021468Y-105029000D01*
X142001635Y-104802308D01*
X141942739Y-104582504D01*
X141846568Y-104376266D01*
X141716047Y-104189861D01*
X141716045Y-104189858D01*
X141555141Y-104028954D01*
X141368734Y-103898432D01*
X141368728Y-103898429D01*
X141338136Y-103884164D01*
X141310724Y-103871381D01*
X141258285Y-103825210D01*
X141239133Y-103758017D01*
X141259348Y-103691135D01*
X141310725Y-103646618D01*
X141368734Y-103619568D01*
X141555139Y-103489047D01*
X141716047Y-103328139D01*
X141828612Y-103167377D01*
X141883189Y-103123752D01*
X141930188Y-103114500D01*
X142056548Y-103114500D01*
X142123587Y-103134185D01*
X142144229Y-103150819D01*
X143356181Y-104362771D01*
X143389666Y-104424094D01*
X143392500Y-104450452D01*
X143392500Y-114979255D01*
X143390775Y-114994872D01*
X143391061Y-114994899D01*
X143390326Y-115002666D01*
X143392469Y-115070846D01*
X143392500Y-115072793D01*
X143392500Y-115101343D01*
X143392501Y-115101360D01*
X143393368Y-115108231D01*
X143393826Y-115114050D01*
X143395290Y-115160624D01*
X143395291Y-115160627D01*
X143400880Y-115179867D01*
X143404824Y-115198911D01*
X143407336Y-115218792D01*
X143424490Y-115262119D01*
X143426382Y-115267647D01*
X143439381Y-115312388D01*
X143449580Y-115329634D01*
X143458138Y-115347103D01*
X143465514Y-115365732D01*
X143492898Y-115403423D01*
X143496106Y-115408307D01*
X143519827Y-115448416D01*
X143519833Y-115448424D01*
X143533990Y-115462580D01*
X143546628Y-115477376D01*
X143558405Y-115493586D01*
X143558406Y-115493587D01*
X143594309Y-115523288D01*
X143598620Y-115527210D01*
X145165409Y-117094000D01*
X145549197Y-117477788D01*
X145559022Y-117490051D01*
X145559243Y-117489869D01*
X145564211Y-117495874D01*
X145613932Y-117542566D01*
X145615332Y-117543923D01*
X145635523Y-117564115D01*
X145635527Y-117564118D01*
X145635529Y-117564120D01*
X145641011Y-117568373D01*
X145645443Y-117572157D01*
X145679418Y-117604062D01*
X145696976Y-117613714D01*
X145713233Y-117624393D01*
X145729064Y-117636673D01*
X145748737Y-117645186D01*
X145771833Y-117655182D01*
X145777077Y-117657750D01*
X145817908Y-117680197D01*
X145830523Y-117683435D01*
X145837305Y-117685177D01*
X145855719Y-117691481D01*
X145874104Y-117699438D01*
X145920157Y-117706732D01*
X145925826Y-117707906D01*
X145970981Y-117719500D01*
X145991016Y-117719500D01*
X146010413Y-117721026D01*
X146030196Y-117724160D01*
X146076583Y-117719775D01*
X146082422Y-117719500D01*
X157397257Y-117719500D01*
X157412877Y-117721224D01*
X157412904Y-117720939D01*
X157420666Y-117721673D01*
X157420666Y-117721672D01*
X157420667Y-117721673D01*
X157423999Y-117721568D01*
X157488847Y-117719531D01*
X157490794Y-117719500D01*
X157519347Y-117719500D01*
X157519350Y-117719500D01*
X157526228Y-117718630D01*
X157532041Y-117718172D01*
X157578627Y-117716709D01*
X157597869Y-117711117D01*
X157616912Y-117707174D01*
X157636792Y-117704664D01*
X157680122Y-117687507D01*
X157685646Y-117685617D01*
X157689396Y-117684527D01*
X157730390Y-117672618D01*
X157747629Y-117662422D01*
X157765103Y-117653862D01*
X157783727Y-117646488D01*
X157783727Y-117646487D01*
X157783732Y-117646486D01*
X157821449Y-117619082D01*
X157826305Y-117615892D01*
X157866420Y-117592170D01*
X157880589Y-117577999D01*
X157895379Y-117565368D01*
X157911587Y-117553594D01*
X157941299Y-117517676D01*
X157945212Y-117513376D01*
X158487589Y-116970999D01*
X162043127Y-116970999D01*
X162043128Y-116971000D01*
X163006314Y-116971000D01*
X162994359Y-116982955D01*
X162936835Y-117095852D01*
X162917014Y-117221000D01*
X162936835Y-117346148D01*
X162994359Y-117459045D01*
X163006314Y-117471000D01*
X162043128Y-117471000D01*
X162095730Y-117667317D01*
X162095734Y-117667326D01*
X162191865Y-117873482D01*
X162322342Y-118059820D01*
X162483179Y-118220657D01*
X162669517Y-118351134D01*
X162875673Y-118447265D01*
X162875682Y-118447269D01*
X163071999Y-118499872D01*
X163072000Y-118499871D01*
X163072000Y-117536686D01*
X163083955Y-117548641D01*
X163196852Y-117606165D01*
X163290519Y-117621000D01*
X163353481Y-117621000D01*
X163447148Y-117606165D01*
X163560045Y-117548641D01*
X163572000Y-117536686D01*
X163572000Y-118499872D01*
X163768317Y-118447269D01*
X163768326Y-118447265D01*
X163974482Y-118351134D01*
X164160820Y-118220657D01*
X164321657Y-118059820D01*
X164452134Y-117873482D01*
X164548265Y-117667326D01*
X164548269Y-117667317D01*
X164600872Y-117471000D01*
X163637686Y-117471000D01*
X163649641Y-117459045D01*
X163707165Y-117346148D01*
X163726986Y-117221000D01*
X163707165Y-117095852D01*
X163649641Y-116982955D01*
X163637686Y-116971000D01*
X164600872Y-116971000D01*
X164600872Y-116970999D01*
X164566842Y-116843999D01*
X170933127Y-116843999D01*
X170933128Y-116844000D01*
X171896314Y-116844000D01*
X171884359Y-116855955D01*
X171826835Y-116968852D01*
X171807014Y-117094000D01*
X171826835Y-117219148D01*
X171884359Y-117332045D01*
X171896314Y-117344000D01*
X170933128Y-117344000D01*
X170985730Y-117540317D01*
X170985734Y-117540326D01*
X171081865Y-117746482D01*
X171212342Y-117932820D01*
X171373179Y-118093657D01*
X171559517Y-118224134D01*
X171765673Y-118320265D01*
X171765682Y-118320269D01*
X171961999Y-118372872D01*
X171962000Y-118372871D01*
X171962000Y-117409686D01*
X171973955Y-117421641D01*
X172086852Y-117479165D01*
X172180519Y-117494000D01*
X172243481Y-117494000D01*
X172337148Y-117479165D01*
X172450045Y-117421641D01*
X172462000Y-117409686D01*
X172462000Y-118372872D01*
X172658317Y-118320269D01*
X172658326Y-118320265D01*
X172864482Y-118224134D01*
X173050820Y-118093657D01*
X173211657Y-117932820D01*
X173342134Y-117746482D01*
X173438265Y-117540326D01*
X173438269Y-117540317D01*
X173490872Y-117344000D01*
X172527686Y-117344000D01*
X172539641Y-117332045D01*
X172597165Y-117219148D01*
X172616986Y-117094000D01*
X172597165Y-116968852D01*
X172539641Y-116855955D01*
X172527686Y-116844000D01*
X173490872Y-116844000D01*
X173490872Y-116843999D01*
X173438269Y-116647682D01*
X173438265Y-116647673D01*
X173342134Y-116441517D01*
X173211657Y-116255179D01*
X173050820Y-116094342D01*
X172864482Y-115963865D01*
X172658328Y-115867734D01*
X172462000Y-115815127D01*
X172462000Y-116778313D01*
X172450045Y-116766359D01*
X172337148Y-116708835D01*
X172243481Y-116694000D01*
X172180519Y-116694000D01*
X172086852Y-116708835D01*
X171973955Y-116766359D01*
X171962000Y-116778314D01*
X171962000Y-115815127D01*
X171765671Y-115867734D01*
X171559517Y-115963865D01*
X171373179Y-116094342D01*
X171212342Y-116255179D01*
X171081865Y-116441517D01*
X170985734Y-116647673D01*
X170985730Y-116647682D01*
X170933127Y-116843999D01*
X164566842Y-116843999D01*
X164548269Y-116774682D01*
X164548265Y-116774673D01*
X164452134Y-116568517D01*
X164321657Y-116382179D01*
X164160820Y-116221342D01*
X163974482Y-116090865D01*
X163768328Y-115994734D01*
X163572000Y-115942127D01*
X163572000Y-116905314D01*
X163560045Y-116893359D01*
X163447148Y-116835835D01*
X163353481Y-116821000D01*
X163290519Y-116821000D01*
X163196852Y-116835835D01*
X163083955Y-116893359D01*
X163072000Y-116905314D01*
X163072000Y-115942127D01*
X162875671Y-115994734D01*
X162669517Y-116090865D01*
X162483179Y-116221342D01*
X162322342Y-116382179D01*
X162191865Y-116568517D01*
X162095734Y-116774673D01*
X162095730Y-116774682D01*
X162043127Y-116970999D01*
X158487589Y-116970999D01*
X161539588Y-113919000D01*
X177714341Y-113919000D01*
X177734936Y-114154403D01*
X177734938Y-114154413D01*
X177796094Y-114382655D01*
X177796096Y-114382659D01*
X177796097Y-114382663D01*
X177895965Y-114596830D01*
X177895967Y-114596834D01*
X178004281Y-114751521D01*
X178031505Y-114790401D01*
X178198599Y-114957495D01*
X178363261Y-115072793D01*
X178384594Y-115087730D01*
X178428219Y-115142307D01*
X178435413Y-115211805D01*
X178403890Y-115274160D01*
X178384595Y-115290880D01*
X178198922Y-115420890D01*
X178198920Y-115420891D01*
X178031891Y-115587920D01*
X178031886Y-115587926D01*
X177896400Y-115781420D01*
X177896399Y-115781422D01*
X177796570Y-115995507D01*
X177796567Y-115995513D01*
X177739364Y-116208999D01*
X177739364Y-116209000D01*
X178636314Y-116209000D01*
X178610507Y-116249156D01*
X178570000Y-116387111D01*
X178570000Y-116530889D01*
X178610507Y-116668844D01*
X178636314Y-116709000D01*
X177739364Y-116709000D01*
X177796567Y-116922486D01*
X177796570Y-116922492D01*
X177896399Y-117136578D01*
X178031894Y-117330082D01*
X178198917Y-117497105D01*
X178392421Y-117632600D01*
X178606507Y-117732429D01*
X178606516Y-117732433D01*
X178820000Y-117789634D01*
X178820000Y-116894501D01*
X178927685Y-116943680D01*
X179034237Y-116959000D01*
X179105763Y-116959000D01*
X179212315Y-116943680D01*
X179320000Y-116894501D01*
X179320000Y-117789633D01*
X179533483Y-117732433D01*
X179533492Y-117732429D01*
X179747578Y-117632600D01*
X179941082Y-117497105D01*
X180108105Y-117330082D01*
X180243600Y-117136578D01*
X180343429Y-116922492D01*
X180343432Y-116922486D01*
X180400636Y-116709000D01*
X179503686Y-116709000D01*
X179529493Y-116668844D01*
X179570000Y-116530889D01*
X179570000Y-116387111D01*
X179529493Y-116249156D01*
X179503686Y-116209000D01*
X180400636Y-116209000D01*
X180400635Y-116208999D01*
X180343432Y-115995513D01*
X180343429Y-115995507D01*
X180243600Y-115781422D01*
X180243599Y-115781420D01*
X180108113Y-115587926D01*
X180108108Y-115587920D01*
X179941078Y-115420890D01*
X179755405Y-115290879D01*
X179711780Y-115236302D01*
X179704588Y-115166804D01*
X179736110Y-115104449D01*
X179755406Y-115087730D01*
X179941401Y-114957495D01*
X180108495Y-114790401D01*
X180244035Y-114596830D01*
X180343903Y-114382663D01*
X180405063Y-114154408D01*
X180425659Y-113919000D01*
X180405063Y-113683592D01*
X180343903Y-113455337D01*
X180244035Y-113241171D01*
X180142033Y-113095497D01*
X180108496Y-113047600D01*
X180108496Y-113047599D01*
X179986567Y-112925671D01*
X179953084Y-112864351D01*
X179958068Y-112794659D01*
X179999939Y-112738725D01*
X180030915Y-112721810D01*
X180162331Y-112672796D01*
X180277546Y-112586546D01*
X180363796Y-112471331D01*
X180414091Y-112336483D01*
X180420500Y-112276873D01*
X180420499Y-110481128D01*
X180414091Y-110421517D01*
X180393757Y-110367000D01*
X186276500Y-110367000D01*
X187092814Y-110367000D01*
X187067007Y-110407156D01*
X187026500Y-110545111D01*
X187026500Y-110688889D01*
X187067007Y-110826844D01*
X187092814Y-110867000D01*
X186276501Y-110867000D01*
X186276501Y-111431197D01*
X186286900Y-111563332D01*
X186341877Y-111781519D01*
X186434928Y-111986374D01*
X186434931Y-111986380D01*
X186563059Y-112171323D01*
X186563069Y-112171335D01*
X186722164Y-112330430D01*
X186722176Y-112330440D01*
X186907119Y-112458568D01*
X186907125Y-112458571D01*
X187111980Y-112551622D01*
X187330167Y-112606599D01*
X187462310Y-112616999D01*
X188276499Y-112616999D01*
X188276500Y-112616998D01*
X188276500Y-111117000D01*
X188776500Y-111117000D01*
X188776500Y-112616999D01*
X189590682Y-112616999D01*
X189590697Y-112616998D01*
X189722832Y-112606599D01*
X189941019Y-112551622D01*
X190145874Y-112458571D01*
X190145880Y-112458568D01*
X190330823Y-112330440D01*
X190330835Y-112330430D01*
X190489930Y-112171335D01*
X190489940Y-112171323D01*
X190618068Y-111986380D01*
X190618071Y-111986374D01*
X190711122Y-111781519D01*
X190766099Y-111563332D01*
X190776499Y-111431196D01*
X190776500Y-111431184D01*
X190776500Y-110867000D01*
X189960186Y-110867000D01*
X189985993Y-110826844D01*
X190026500Y-110688889D01*
X190026500Y-110545111D01*
X189985993Y-110407156D01*
X189960186Y-110367000D01*
X190776499Y-110367000D01*
X190776499Y-109802817D01*
X190776498Y-109802802D01*
X190766099Y-109670667D01*
X190711122Y-109452480D01*
X190618071Y-109247625D01*
X190618068Y-109247619D01*
X190489940Y-109062676D01*
X190489930Y-109062664D01*
X190330835Y-108903569D01*
X190330823Y-108903559D01*
X190145880Y-108775431D01*
X190145874Y-108775428D01*
X189941019Y-108682377D01*
X189722832Y-108627400D01*
X189590696Y-108617000D01*
X188776500Y-108617000D01*
X188776500Y-110117000D01*
X188276500Y-110117000D01*
X188276500Y-108617000D01*
X187462317Y-108617000D01*
X187462302Y-108617001D01*
X187330167Y-108627400D01*
X187111980Y-108682377D01*
X186907125Y-108775428D01*
X186907119Y-108775431D01*
X186722176Y-108903559D01*
X186722164Y-108903569D01*
X186563069Y-109062664D01*
X186563059Y-109062676D01*
X186434931Y-109247619D01*
X186434928Y-109247625D01*
X186341877Y-109452480D01*
X186286900Y-109670667D01*
X186276500Y-109802803D01*
X186276500Y-110367000D01*
X180393757Y-110367000D01*
X180363797Y-110286671D01*
X180363793Y-110286664D01*
X180277547Y-110171455D01*
X180277544Y-110171452D01*
X180162335Y-110085206D01*
X180162332Y-110085205D01*
X180162331Y-110085204D01*
X180151161Y-110081038D01*
X180095231Y-110039166D01*
X180070816Y-109973701D01*
X180070500Y-109964858D01*
X180070500Y-109431782D01*
X180090185Y-109364743D01*
X180106819Y-109344101D01*
X183797102Y-105653819D01*
X183858425Y-105620334D01*
X183884783Y-105617500D01*
X186152001Y-105617500D01*
X186219040Y-105637185D01*
X186264795Y-105689989D01*
X186276001Y-105741500D01*
X186276001Y-106414876D01*
X186282408Y-106474483D01*
X186332702Y-106609328D01*
X186332706Y-106609335D01*
X186418952Y-106724544D01*
X186418955Y-106724547D01*
X186534164Y-106810793D01*
X186534171Y-106810797D01*
X186669017Y-106861091D01*
X186669016Y-106861091D01*
X186675944Y-106861835D01*
X186728627Y-106867500D01*
X190324372Y-106867499D01*
X190383983Y-106861091D01*
X190518831Y-106810796D01*
X190634046Y-106724546D01*
X190720296Y-106609331D01*
X190737926Y-106562060D01*
X190779796Y-106506128D01*
X190845259Y-106481710D01*
X190913533Y-106496561D01*
X190962939Y-106545965D01*
X190977933Y-106611971D01*
X190976001Y-106648342D01*
X190976000Y-106648386D01*
X190976000Y-108585613D01*
X190976001Y-108585652D01*
X190978795Y-108638243D01*
X190978795Y-108638244D01*
X191007871Y-108788582D01*
X191023255Y-108868126D01*
X191064882Y-108978430D01*
X191105925Y-109087189D01*
X191224429Y-109289131D01*
X191224434Y-109289138D01*
X191375356Y-109468141D01*
X191375358Y-109468143D01*
X191554361Y-109619065D01*
X191554368Y-109619070D01*
X191756310Y-109737574D01*
X191975374Y-109820245D01*
X192205259Y-109864705D01*
X192257878Y-109867500D01*
X192257886Y-109867500D01*
X194195114Y-109867500D01*
X194195122Y-109867500D01*
X194247741Y-109864705D01*
X194477626Y-109820245D01*
X194696690Y-109737574D01*
X194898632Y-109619070D01*
X195077642Y-109468142D01*
X195228570Y-109289132D01*
X195347074Y-109087190D01*
X195429745Y-108868126D01*
X195474205Y-108638241D01*
X195477000Y-108585622D01*
X195477000Y-106648378D01*
X195474205Y-106595759D01*
X195429745Y-106365874D01*
X195347074Y-106146810D01*
X195228570Y-105944868D01*
X195228565Y-105944861D01*
X195077643Y-105765858D01*
X195077641Y-105765856D01*
X194898638Y-105614934D01*
X194898631Y-105614929D01*
X194696689Y-105496425D01*
X194606332Y-105462326D01*
X194477626Y-105413755D01*
X194477621Y-105413754D01*
X194247743Y-105369295D01*
X194195152Y-105366501D01*
X194195129Y-105366500D01*
X194195122Y-105366500D01*
X192257878Y-105366500D01*
X192257870Y-105366500D01*
X192257847Y-105366501D01*
X192205256Y-105369295D01*
X192205255Y-105369295D01*
X191975378Y-105413754D01*
X191975376Y-105413754D01*
X191975374Y-105413755D01*
X191901433Y-105441658D01*
X191756310Y-105496425D01*
X191554368Y-105614929D01*
X191554361Y-105614934D01*
X191375358Y-105765856D01*
X191375356Y-105765858D01*
X191224434Y-105944861D01*
X191224429Y-105944868D01*
X191105925Y-106146810D01*
X191043854Y-106311290D01*
X191023367Y-106365579D01*
X191023253Y-106365880D01*
X191022740Y-106368532D01*
X191022212Y-106369552D01*
X191021817Y-106370950D01*
X191021532Y-106370869D01*
X190990675Y-106430609D01*
X190930139Y-106465497D01*
X190860351Y-106462117D01*
X190803468Y-106421544D01*
X190777551Y-106356659D01*
X190776999Y-106344989D01*
X190776999Y-103932281D01*
X190796684Y-103865243D01*
X190813313Y-103844606D01*
X193382034Y-101275885D01*
X193443355Y-101242402D01*
X193458900Y-101240041D01*
X193520692Y-101234635D01*
X193740496Y-101175739D01*
X193946734Y-101079568D01*
X194133139Y-100949047D01*
X194294047Y-100788139D01*
X194424568Y-100601734D01*
X194520739Y-100395496D01*
X194579635Y-100175692D01*
X194599468Y-99949000D01*
X194579635Y-99722308D01*
X194520739Y-99502504D01*
X194424568Y-99296266D01*
X194294047Y-99109861D01*
X194294045Y-99109858D01*
X194133141Y-98948954D01*
X193946734Y-98818432D01*
X193946732Y-98818431D01*
X193740497Y-98722261D01*
X193740488Y-98722258D01*
X193520697Y-98663366D01*
X193520693Y-98663365D01*
X193520692Y-98663365D01*
X193520691Y-98663364D01*
X193520686Y-98663364D01*
X193294002Y-98643532D01*
X193293998Y-98643532D01*
X193067313Y-98663364D01*
X193067302Y-98663366D01*
X192847511Y-98722258D01*
X192847502Y-98722261D01*
X192641267Y-98818431D01*
X192641265Y-98818432D01*
X192454858Y-98948954D01*
X192293954Y-99109858D01*
X192163432Y-99296265D01*
X192163431Y-99296267D01*
X192067261Y-99502502D01*
X192067258Y-99502511D01*
X192008366Y-99722302D01*
X192008364Y-99722311D01*
X192002959Y-99784094D01*
X191977506Y-99849162D01*
X191967112Y-99860966D01*
X189497897Y-102330181D01*
X189436574Y-102363666D01*
X189410216Y-102366500D01*
X186728629Y-102366500D01*
X186728623Y-102366501D01*
X186669016Y-102372908D01*
X186534171Y-102423202D01*
X186534164Y-102423206D01*
X186418955Y-102509452D01*
X186418952Y-102509455D01*
X186332706Y-102624664D01*
X186332702Y-102624671D01*
X186282408Y-102759517D01*
X186276001Y-102819116D01*
X186276000Y-102819135D01*
X186276000Y-103492500D01*
X186256315Y-103559539D01*
X186203511Y-103605294D01*
X186152000Y-103616500D01*
X183432493Y-103616500D01*
X183430930Y-103616480D01*
X183342637Y-103614243D01*
X183342628Y-103614243D01*
X183289636Y-103623741D01*
X183282254Y-103625064D01*
X183277595Y-103625718D01*
X183216564Y-103631925D01*
X183216562Y-103631926D01*
X183183780Y-103642210D01*
X183176156Y-103644081D01*
X183168308Y-103645488D01*
X183142349Y-103650141D01*
X183142341Y-103650143D01*
X183085382Y-103672895D01*
X183080946Y-103674474D01*
X183027849Y-103691135D01*
X183022412Y-103692841D01*
X183022410Y-103692842D01*
X183022403Y-103692845D01*
X182992384Y-103709507D01*
X182985290Y-103712876D01*
X182953390Y-103725619D01*
X182953388Y-103725619D01*
X182953383Y-103725622D01*
X182953376Y-103725626D01*
X182953377Y-103725626D01*
X182902154Y-103759383D01*
X182898126Y-103761824D01*
X182844502Y-103791588D01*
X182844499Y-103791590D01*
X182818427Y-103813970D01*
X182812160Y-103818695D01*
X182783482Y-103837598D01*
X182783475Y-103837603D01*
X182740116Y-103880962D01*
X182736661Y-103884164D01*
X182690106Y-103924132D01*
X182690105Y-103924133D01*
X182669076Y-103951300D01*
X182663884Y-103957194D01*
X178372091Y-108248987D01*
X178370967Y-108250083D01*
X178306946Y-108310942D01*
X178271899Y-108361294D01*
X178269062Y-108365056D01*
X178230302Y-108412592D01*
X178230299Y-108412597D01*
X178214392Y-108443047D01*
X178210324Y-108449761D01*
X178190702Y-108477954D01*
X178166509Y-108534330D01*
X178164488Y-108538584D01*
X178136091Y-108592951D01*
X178136090Y-108592952D01*
X178126640Y-108625975D01*
X178124007Y-108633371D01*
X178110459Y-108664943D01*
X178098113Y-108725019D01*
X178096990Y-108729595D01*
X178080113Y-108788577D01*
X178080113Y-108788579D01*
X178077503Y-108822841D01*
X178076414Y-108830608D01*
X178070980Y-108857052D01*
X178069500Y-108864258D01*
X178069500Y-108925597D01*
X178069321Y-108930306D01*
X178064662Y-108991474D01*
X178066707Y-109007527D01*
X178069003Y-109025560D01*
X178069500Y-109033388D01*
X178069500Y-109964858D01*
X178049815Y-110031897D01*
X177997011Y-110077652D01*
X177988847Y-110081034D01*
X177977669Y-110085204D01*
X177977664Y-110085206D01*
X177862455Y-110171452D01*
X177862452Y-110171455D01*
X177776206Y-110286664D01*
X177776202Y-110286671D01*
X177725908Y-110421517D01*
X177719501Y-110481116D01*
X177719501Y-110481123D01*
X177719500Y-110481135D01*
X177719500Y-112276870D01*
X177719501Y-112276876D01*
X177725908Y-112336483D01*
X177776202Y-112471328D01*
X177776206Y-112471335D01*
X177862452Y-112586544D01*
X177862455Y-112586547D01*
X177977664Y-112672793D01*
X177977671Y-112672797D01*
X178109081Y-112721810D01*
X178165015Y-112763681D01*
X178189432Y-112829145D01*
X178174580Y-112897418D01*
X178153430Y-112925673D01*
X178031503Y-113047600D01*
X177895965Y-113241169D01*
X177895964Y-113241171D01*
X177796098Y-113455335D01*
X177796094Y-113455344D01*
X177734938Y-113683586D01*
X177734936Y-113683596D01*
X177714341Y-113918999D01*
X177714341Y-113919000D01*
X161539588Y-113919000D01*
X167862770Y-107595819D01*
X167924094Y-107562334D01*
X167950452Y-107559500D01*
X170997812Y-107559500D01*
X171064851Y-107579185D01*
X171099387Y-107612377D01*
X171211954Y-107773141D01*
X171372858Y-107934045D01*
X171372861Y-107934047D01*
X171559266Y-108064568D01*
X171765504Y-108160739D01*
X171985308Y-108219635D01*
X172147230Y-108233801D01*
X172211998Y-108239468D01*
X172212000Y-108239468D01*
X172212002Y-108239468D01*
X172268673Y-108234509D01*
X172438692Y-108219635D01*
X172658496Y-108160739D01*
X172864734Y-108064568D01*
X173051139Y-107934047D01*
X173212047Y-107773139D01*
X173342568Y-107586734D01*
X173438739Y-107380496D01*
X173497635Y-107160692D01*
X173517468Y-106934000D01*
X173515916Y-106916266D01*
X173511089Y-106861091D01*
X173497635Y-106707308D01*
X173438739Y-106487504D01*
X173342568Y-106281266D01*
X173212047Y-106094861D01*
X173212045Y-106094858D01*
X173051141Y-105933954D01*
X172864734Y-105803432D01*
X172864732Y-105803431D01*
X172658497Y-105707261D01*
X172658488Y-105707258D01*
X172438697Y-105648366D01*
X172438693Y-105648365D01*
X172438692Y-105648365D01*
X172438691Y-105648364D01*
X172438686Y-105648364D01*
X172212002Y-105628532D01*
X172211998Y-105628532D01*
X171985313Y-105648364D01*
X171985302Y-105648366D01*
X171765511Y-105707258D01*
X171765502Y-105707261D01*
X171559267Y-105803431D01*
X171559265Y-105803432D01*
X171372858Y-105933954D01*
X171211954Y-106094858D01*
X171099387Y-106255623D01*
X171044811Y-106299248D01*
X170997812Y-106308500D01*
X167722743Y-106308500D01*
X167707122Y-106306775D01*
X167707096Y-106307061D01*
X167699333Y-106306326D01*
X167631153Y-106308469D01*
X167629206Y-106308500D01*
X167600649Y-106308500D01*
X167593766Y-106309369D01*
X167587949Y-106309826D01*
X167541373Y-106311290D01*
X167522129Y-106316881D01*
X167503079Y-106320825D01*
X167483211Y-106323334D01*
X167439884Y-106340488D01*
X167434358Y-106342379D01*
X167389614Y-106355379D01*
X167389610Y-106355381D01*
X167372366Y-106365579D01*
X167354905Y-106374133D01*
X167336274Y-106381510D01*
X167336262Y-106381517D01*
X167298570Y-106408902D01*
X167293687Y-106412109D01*
X167253580Y-106435829D01*
X167239414Y-106449995D01*
X167224624Y-106462627D01*
X167208414Y-106474404D01*
X167208411Y-106474407D01*
X167178710Y-106510309D01*
X167174777Y-106514631D01*
X157257228Y-116432181D01*
X157195905Y-116465666D01*
X157169547Y-116468500D01*
X146360452Y-116468500D01*
X146293413Y-116448815D01*
X146272771Y-116432181D01*
X144679819Y-114839228D01*
X144646334Y-114777905D01*
X144643500Y-114751547D01*
X144643500Y-112649001D01*
X154650532Y-112649001D01*
X154670364Y-112875686D01*
X154670366Y-112875697D01*
X154729258Y-113095488D01*
X154729261Y-113095497D01*
X154825431Y-113301732D01*
X154825432Y-113301734D01*
X154955954Y-113488141D01*
X155116858Y-113649045D01*
X155116861Y-113649047D01*
X155303266Y-113779568D01*
X155509504Y-113875739D01*
X155729308Y-113934635D01*
X155891230Y-113948801D01*
X155955998Y-113954468D01*
X155956000Y-113954468D01*
X155956002Y-113954468D01*
X156012673Y-113949509D01*
X156182692Y-113934635D01*
X156402496Y-113875739D01*
X156608734Y-113779568D01*
X156795139Y-113649047D01*
X156956047Y-113488139D01*
X157086568Y-113301734D01*
X157182739Y-113095496D01*
X157241635Y-112875692D01*
X157261468Y-112649000D01*
X157241635Y-112422308D01*
X157182739Y-112202504D01*
X157086568Y-111996266D01*
X156956047Y-111809861D01*
X156956045Y-111809858D01*
X156795141Y-111648954D01*
X156608735Y-111518433D01*
X156608736Y-111518433D01*
X156608734Y-111518432D01*
X156550722Y-111491380D01*
X156498284Y-111445208D01*
X156479133Y-111378014D01*
X156499349Y-111311133D01*
X156550721Y-111266619D01*
X156608734Y-111239568D01*
X156795139Y-111109047D01*
X156956047Y-110948139D01*
X157086568Y-110761734D01*
X157182739Y-110555496D01*
X157241635Y-110335692D01*
X157261468Y-110109000D01*
X157241635Y-109882308D01*
X157182739Y-109662504D01*
X157086568Y-109456266D01*
X156956047Y-109269861D01*
X156956045Y-109269858D01*
X156795141Y-109108954D01*
X156608735Y-108978433D01*
X156608736Y-108978433D01*
X156608734Y-108978432D01*
X156550722Y-108951380D01*
X156498284Y-108905208D01*
X156479133Y-108838014D01*
X156499349Y-108771133D01*
X156550721Y-108726619D01*
X156608734Y-108699568D01*
X156795139Y-108569047D01*
X156956047Y-108408139D01*
X157086568Y-108221734D01*
X157182739Y-108015496D01*
X157241635Y-107795692D01*
X157259122Y-107595819D01*
X157261468Y-107569001D01*
X157261468Y-107568998D01*
X157241635Y-107342313D01*
X157241635Y-107342308D01*
X157182739Y-107122504D01*
X157154059Y-107061001D01*
X162016532Y-107061001D01*
X162036364Y-107287686D01*
X162036366Y-107287697D01*
X162095258Y-107507488D01*
X162095261Y-107507497D01*
X162191431Y-107713732D01*
X162191432Y-107713734D01*
X162321954Y-107900141D01*
X162482858Y-108061045D01*
X162529693Y-108093839D01*
X162669266Y-108191568D01*
X162875504Y-108287739D01*
X163095308Y-108346635D01*
X163257230Y-108360801D01*
X163321998Y-108366468D01*
X163322000Y-108366468D01*
X163322002Y-108366468D01*
X163381139Y-108361294D01*
X163548692Y-108346635D01*
X163768496Y-108287739D01*
X163974734Y-108191568D01*
X164161139Y-108061047D01*
X164322047Y-107900139D01*
X164452568Y-107713734D01*
X164548739Y-107507496D01*
X164607635Y-107287692D01*
X164627468Y-107061000D01*
X164607635Y-106834308D01*
X164557818Y-106648386D01*
X164548741Y-106614511D01*
X164548738Y-106614502D01*
X164539996Y-106595755D01*
X164452568Y-106408266D01*
X164322047Y-106221861D01*
X164322045Y-106221858D01*
X164161141Y-106060954D01*
X163974734Y-105930432D01*
X163974732Y-105930431D01*
X163768497Y-105834261D01*
X163768488Y-105834258D01*
X163548697Y-105775366D01*
X163548693Y-105775365D01*
X163548692Y-105775365D01*
X163548691Y-105775364D01*
X163548686Y-105775364D01*
X163322002Y-105755532D01*
X163321998Y-105755532D01*
X163095313Y-105775364D01*
X163095302Y-105775366D01*
X162875511Y-105834258D01*
X162875502Y-105834261D01*
X162669267Y-105930431D01*
X162669265Y-105930432D01*
X162482858Y-106060954D01*
X162321954Y-106221858D01*
X162191432Y-106408265D01*
X162191431Y-106408267D01*
X162095261Y-106614502D01*
X162095258Y-106614511D01*
X162036366Y-106834302D01*
X162036364Y-106834313D01*
X162016532Y-107060998D01*
X162016532Y-107061001D01*
X157154059Y-107061001D01*
X157086568Y-106916266D01*
X156956047Y-106729861D01*
X156956045Y-106729858D01*
X156795141Y-106568954D01*
X156670542Y-106481710D01*
X156608734Y-106438432D01*
X156550722Y-106411380D01*
X156498284Y-106365208D01*
X156479133Y-106298014D01*
X156499349Y-106231133D01*
X156550721Y-106186619D01*
X156608734Y-106159568D01*
X156795139Y-106029047D01*
X156956047Y-105868139D01*
X157086568Y-105681734D01*
X157182739Y-105475496D01*
X157241635Y-105255692D01*
X157261468Y-105029000D01*
X157241635Y-104802308D01*
X157182739Y-104582504D01*
X157086568Y-104376266D01*
X156956047Y-104189861D01*
X156956045Y-104189858D01*
X156795141Y-104028954D01*
X156608734Y-103898432D01*
X156608728Y-103898429D01*
X156578136Y-103884164D01*
X156550724Y-103871381D01*
X156498285Y-103825210D01*
X156479133Y-103758017D01*
X156499348Y-103691135D01*
X156550725Y-103646618D01*
X156608734Y-103619568D01*
X156795139Y-103489047D01*
X156956047Y-103328139D01*
X157086568Y-103141734D01*
X157182739Y-102935496D01*
X157241635Y-102715692D01*
X157261468Y-102489000D01*
X157241635Y-102262308D01*
X157182739Y-102042504D01*
X157086568Y-101836266D01*
X156984856Y-101691005D01*
X159126357Y-101691005D01*
X159146890Y-101938812D01*
X159146892Y-101938824D01*
X159207936Y-102179881D01*
X159307826Y-102407606D01*
X159443833Y-102615782D01*
X159443836Y-102615785D01*
X159612256Y-102798738D01*
X159808491Y-102951474D01*
X160027190Y-103069828D01*
X160262386Y-103150571D01*
X160507665Y-103191500D01*
X160756335Y-103191500D01*
X161001614Y-103150571D01*
X161236810Y-103069828D01*
X161455509Y-102951474D01*
X161651744Y-102798738D01*
X161820164Y-102615785D01*
X161956173Y-102407607D01*
X162056063Y-102179881D01*
X162117108Y-101938821D01*
X162120093Y-101902802D01*
X162137643Y-101691005D01*
X165626357Y-101691005D01*
X165646890Y-101938812D01*
X165646892Y-101938824D01*
X165707936Y-102179881D01*
X165807826Y-102407606D01*
X165943833Y-102615782D01*
X165943836Y-102615785D01*
X166112256Y-102798738D01*
X166308491Y-102951474D01*
X166527190Y-103069828D01*
X166762386Y-103150571D01*
X167007665Y-103191500D01*
X167256335Y-103191500D01*
X167501614Y-103150571D01*
X167736810Y-103069828D01*
X167955509Y-102951474D01*
X168151744Y-102798738D01*
X168320164Y-102615785D01*
X168456173Y-102407607D01*
X168556063Y-102179881D01*
X168617108Y-101938821D01*
X168637643Y-101691005D01*
X169996357Y-101691005D01*
X170016890Y-101938812D01*
X170016892Y-101938824D01*
X170077936Y-102179881D01*
X170177826Y-102407606D01*
X170313833Y-102615782D01*
X170313836Y-102615785D01*
X170482256Y-102798738D01*
X170678491Y-102951474D01*
X170897190Y-103069828D01*
X171132386Y-103150571D01*
X171377665Y-103191500D01*
X171626335Y-103191500D01*
X171871614Y-103150571D01*
X172106810Y-103069828D01*
X172325509Y-102951474D01*
X172521744Y-102798738D01*
X172690164Y-102615785D01*
X172826173Y-102407607D01*
X172926063Y-102179881D01*
X172987108Y-101938821D01*
X173007643Y-101691005D01*
X176496357Y-101691005D01*
X176516890Y-101938812D01*
X176516892Y-101938824D01*
X176577936Y-102179881D01*
X176677826Y-102407606D01*
X176813833Y-102615782D01*
X176813836Y-102615785D01*
X176982256Y-102798738D01*
X177178491Y-102951474D01*
X177397190Y-103069828D01*
X177632386Y-103150571D01*
X177877665Y-103191500D01*
X178126335Y-103191500D01*
X178371614Y-103150571D01*
X178606810Y-103069828D01*
X178825509Y-102951474D01*
X179021744Y-102798738D01*
X179190164Y-102615785D01*
X179326173Y-102407607D01*
X179426063Y-102179881D01*
X179487108Y-101938821D01*
X179507643Y-101691000D01*
X179487108Y-101443179D01*
X179426063Y-101202119D01*
X179414491Y-101175738D01*
X179326173Y-100974393D01*
X179190166Y-100766217D01*
X179168557Y-100742744D01*
X179021744Y-100583262D01*
X178825509Y-100430526D01*
X178825507Y-100430525D01*
X178825506Y-100430524D01*
X178606811Y-100312172D01*
X178606802Y-100312169D01*
X178371616Y-100231429D01*
X178126335Y-100190500D01*
X177877665Y-100190500D01*
X177632383Y-100231429D01*
X177397197Y-100312169D01*
X177397188Y-100312172D01*
X177178493Y-100430524D01*
X176982257Y-100583261D01*
X176813833Y-100766217D01*
X176677826Y-100974393D01*
X176577936Y-101202118D01*
X176516892Y-101443175D01*
X176516890Y-101443187D01*
X176496357Y-101690994D01*
X176496357Y-101691005D01*
X173007643Y-101691005D01*
X173007643Y-101691000D01*
X172987108Y-101443179D01*
X172926063Y-101202119D01*
X172914491Y-101175738D01*
X172826173Y-100974393D01*
X172690166Y-100766217D01*
X172668557Y-100742744D01*
X172521744Y-100583262D01*
X172325509Y-100430526D01*
X172325507Y-100430525D01*
X172325506Y-100430524D01*
X172106811Y-100312172D01*
X172106802Y-100312169D01*
X171871616Y-100231429D01*
X171626335Y-100190500D01*
X171377665Y-100190500D01*
X171132383Y-100231429D01*
X170897197Y-100312169D01*
X170897188Y-100312172D01*
X170678493Y-100430524D01*
X170482257Y-100583261D01*
X170313833Y-100766217D01*
X170177826Y-100974393D01*
X170077936Y-101202118D01*
X170016892Y-101443175D01*
X170016890Y-101443187D01*
X169996357Y-101690994D01*
X169996357Y-101691005D01*
X168637643Y-101691005D01*
X168637643Y-101691000D01*
X168617108Y-101443179D01*
X168556063Y-101202119D01*
X168544491Y-101175738D01*
X168456173Y-100974393D01*
X168320166Y-100766217D01*
X168298557Y-100742744D01*
X168151744Y-100583262D01*
X167955509Y-100430526D01*
X167955507Y-100430525D01*
X167955506Y-100430524D01*
X167736811Y-100312172D01*
X167736802Y-100312169D01*
X167501616Y-100231429D01*
X167256335Y-100190500D01*
X167007665Y-100190500D01*
X166762383Y-100231429D01*
X166527197Y-100312169D01*
X166527188Y-100312172D01*
X166308493Y-100430524D01*
X166112257Y-100583261D01*
X165943833Y-100766217D01*
X165807826Y-100974393D01*
X165707936Y-101202118D01*
X165646892Y-101443175D01*
X165646890Y-101443187D01*
X165626357Y-101690994D01*
X165626357Y-101691005D01*
X162137643Y-101691005D01*
X162137643Y-101690994D01*
X162117109Y-101443187D01*
X162117107Y-101443175D01*
X162056063Y-101202118D01*
X161956173Y-100974393D01*
X161820166Y-100766217D01*
X161798557Y-100742744D01*
X161651744Y-100583262D01*
X161455509Y-100430526D01*
X161455507Y-100430525D01*
X161455506Y-100430524D01*
X161236811Y-100312172D01*
X161236802Y-100312169D01*
X161001616Y-100231429D01*
X160756335Y-100190500D01*
X160507665Y-100190500D01*
X160262383Y-100231429D01*
X160027197Y-100312169D01*
X160027188Y-100312172D01*
X159808493Y-100430524D01*
X159612257Y-100583261D01*
X159443833Y-100766217D01*
X159307826Y-100974393D01*
X159207936Y-101202118D01*
X159146892Y-101443175D01*
X159146890Y-101443187D01*
X159126357Y-101690994D01*
X159126357Y-101691005D01*
X156984856Y-101691005D01*
X156956047Y-101649861D01*
X156956045Y-101649858D01*
X156795141Y-101488954D01*
X156608734Y-101358432D01*
X156608728Y-101358429D01*
X156550725Y-101331382D01*
X156498285Y-101285210D01*
X156479133Y-101218017D01*
X156499348Y-101151135D01*
X156550725Y-101106618D01*
X156608734Y-101079568D01*
X156795139Y-100949047D01*
X156956047Y-100788139D01*
X157086568Y-100601734D01*
X157182739Y-100395496D01*
X157241635Y-100175692D01*
X157261468Y-99949000D01*
X157241635Y-99722308D01*
X157182739Y-99502504D01*
X157086568Y-99296266D01*
X156956047Y-99109861D01*
X156956045Y-99109858D01*
X156795141Y-98948954D01*
X156608734Y-98818432D01*
X156608728Y-98818429D01*
X156550725Y-98791382D01*
X156498285Y-98745210D01*
X156479133Y-98678017D01*
X156499348Y-98611135D01*
X156550725Y-98566618D01*
X156608734Y-98539568D01*
X156795139Y-98409047D01*
X156956047Y-98248139D01*
X157086568Y-98061734D01*
X157182739Y-97855496D01*
X157241635Y-97635692D01*
X157261468Y-97409000D01*
X157241635Y-97182308D01*
X157182739Y-96962504D01*
X157086568Y-96756266D01*
X156956047Y-96569861D01*
X156956045Y-96569858D01*
X156795141Y-96408954D01*
X156608734Y-96278432D01*
X156608728Y-96278429D01*
X156550725Y-96251382D01*
X156498285Y-96205210D01*
X156479133Y-96138017D01*
X156499348Y-96071135D01*
X156550725Y-96026618D01*
X156608734Y-95999568D01*
X156795139Y-95869047D01*
X156956047Y-95708139D01*
X157086568Y-95521734D01*
X157182739Y-95315496D01*
X157241635Y-95095692D01*
X157261468Y-94869000D01*
X157241635Y-94642308D01*
X157182739Y-94422504D01*
X157086568Y-94216266D01*
X156956047Y-94029861D01*
X156956045Y-94029858D01*
X156795141Y-93868954D01*
X156608734Y-93738432D01*
X156608728Y-93738429D01*
X156550725Y-93711382D01*
X156498285Y-93665210D01*
X156479133Y-93598017D01*
X156499348Y-93531135D01*
X156550725Y-93486618D01*
X156608734Y-93459568D01*
X156795139Y-93329047D01*
X156956047Y-93168139D01*
X157086568Y-92981734D01*
X157182739Y-92775496D01*
X157241635Y-92555692D01*
X157261468Y-92329000D01*
X157241635Y-92102308D01*
X157182739Y-91882504D01*
X157086568Y-91676266D01*
X156956047Y-91489861D01*
X156956045Y-91489858D01*
X156795141Y-91328954D01*
X156608734Y-91198432D01*
X156608728Y-91198429D01*
X156550725Y-91171382D01*
X156498285Y-91125210D01*
X156479133Y-91058017D01*
X156499348Y-90991135D01*
X156550725Y-90946618D01*
X156608734Y-90919568D01*
X156795139Y-90789047D01*
X156956047Y-90628139D01*
X157086568Y-90441734D01*
X157182739Y-90235496D01*
X157241635Y-90015692D01*
X157261468Y-89789000D01*
X157241635Y-89562308D01*
X157182739Y-89342504D01*
X157086568Y-89136266D01*
X156956047Y-88949861D01*
X156956045Y-88949858D01*
X156795141Y-88788954D01*
X156608734Y-88658432D01*
X156608728Y-88658429D01*
X156550725Y-88631382D01*
X156498285Y-88585210D01*
X156479133Y-88518017D01*
X156499348Y-88451135D01*
X156550725Y-88406618D01*
X156608734Y-88379568D01*
X156795139Y-88249047D01*
X156956047Y-88088139D01*
X157086568Y-87901734D01*
X157182739Y-87695496D01*
X157241635Y-87475692D01*
X157261468Y-87249000D01*
X157241635Y-87022308D01*
X157187029Y-86818515D01*
X157182741Y-86802511D01*
X157182738Y-86802502D01*
X157165115Y-86764709D01*
X157086568Y-86596266D01*
X156956047Y-86409861D01*
X156956045Y-86409858D01*
X156795141Y-86248954D01*
X156608734Y-86118432D01*
X156608728Y-86118429D01*
X156550725Y-86091382D01*
X156498285Y-86045210D01*
X156479133Y-85978017D01*
X156499348Y-85911135D01*
X156550725Y-85866618D01*
X156551319Y-85866341D01*
X156608734Y-85839568D01*
X156795139Y-85709047D01*
X156956047Y-85548139D01*
X157068612Y-85387377D01*
X157123189Y-85343752D01*
X157170188Y-85334500D01*
X157804548Y-85334500D01*
X157871587Y-85354185D01*
X157892229Y-85370819D01*
X159970181Y-87448771D01*
X160003666Y-87510094D01*
X160006500Y-87536452D01*
X160006500Y-95749479D01*
X159986815Y-95816518D01*
X159941519Y-95858533D01*
X159808496Y-95930522D01*
X159808494Y-95930523D01*
X159612257Y-96083261D01*
X159443833Y-96266217D01*
X159307826Y-96474393D01*
X159207936Y-96702118D01*
X159146892Y-96943175D01*
X159146890Y-96943187D01*
X159126357Y-97190994D01*
X159126357Y-97191005D01*
X159146890Y-97438812D01*
X159146892Y-97438824D01*
X159207936Y-97679881D01*
X159307826Y-97907606D01*
X159443833Y-98115782D01*
X159443836Y-98115785D01*
X159612256Y-98298738D01*
X159808491Y-98451474D01*
X160027190Y-98569828D01*
X160262386Y-98650571D01*
X160507665Y-98691500D01*
X160756335Y-98691500D01*
X161001614Y-98650571D01*
X161236810Y-98569828D01*
X161455509Y-98451474D01*
X161651744Y-98298738D01*
X161820164Y-98115785D01*
X161956173Y-97907607D01*
X161956175Y-97907603D01*
X161963595Y-97890689D01*
X162008551Y-97837203D01*
X162075287Y-97816514D01*
X162077150Y-97816500D01*
X165686850Y-97816500D01*
X165753889Y-97836185D01*
X165799644Y-97888989D01*
X165800405Y-97890689D01*
X165807824Y-97907603D01*
X165943833Y-98115782D01*
X165943836Y-98115785D01*
X166112256Y-98298738D01*
X166308491Y-98451474D01*
X166527190Y-98569828D01*
X166762386Y-98650571D01*
X167007665Y-98691500D01*
X167256335Y-98691500D01*
X167501614Y-98650571D01*
X167736810Y-98569828D01*
X167955509Y-98451474D01*
X168151744Y-98298738D01*
X168320164Y-98115785D01*
X168456173Y-97907607D01*
X168456175Y-97907603D01*
X168463595Y-97890689D01*
X168508551Y-97837203D01*
X168575287Y-97816514D01*
X168577150Y-97816500D01*
X170056850Y-97816500D01*
X170123889Y-97836185D01*
X170169644Y-97888989D01*
X170170405Y-97890689D01*
X170177824Y-97907603D01*
X170313833Y-98115782D01*
X170313836Y-98115785D01*
X170482256Y-98298738D01*
X170678491Y-98451474D01*
X170897190Y-98569828D01*
X171132386Y-98650571D01*
X171377665Y-98691500D01*
X171626335Y-98691500D01*
X171871614Y-98650571D01*
X172106810Y-98569828D01*
X172325509Y-98451474D01*
X172521744Y-98298738D01*
X172690164Y-98115785D01*
X172826173Y-97907607D01*
X172826175Y-97907603D01*
X172833595Y-97890689D01*
X172878551Y-97837203D01*
X172945287Y-97816514D01*
X172947150Y-97816500D01*
X176556850Y-97816500D01*
X176623889Y-97836185D01*
X176669644Y-97888989D01*
X176670405Y-97890689D01*
X176677824Y-97907603D01*
X176813833Y-98115782D01*
X176813836Y-98115785D01*
X176982256Y-98298738D01*
X177178491Y-98451474D01*
X177397190Y-98569828D01*
X177632386Y-98650571D01*
X177877665Y-98691500D01*
X178126335Y-98691500D01*
X178371614Y-98650571D01*
X178451287Y-98623218D01*
X178521082Y-98620068D01*
X178579229Y-98652819D01*
X180259197Y-100332788D01*
X180269022Y-100345051D01*
X180269243Y-100344869D01*
X180274211Y-100350874D01*
X180323932Y-100397566D01*
X180325332Y-100398923D01*
X180345523Y-100419115D01*
X180345527Y-100419118D01*
X180345529Y-100419120D01*
X180351011Y-100423373D01*
X180355443Y-100427157D01*
X180389418Y-100459062D01*
X180406976Y-100468714D01*
X180423233Y-100479393D01*
X180439064Y-100491673D01*
X180458737Y-100500186D01*
X180481833Y-100510182D01*
X180487077Y-100512750D01*
X180527908Y-100535197D01*
X180540523Y-100538435D01*
X180547305Y-100540177D01*
X180565719Y-100546481D01*
X180584104Y-100554438D01*
X180630157Y-100561732D01*
X180635826Y-100562906D01*
X180680981Y-100574500D01*
X180701016Y-100574500D01*
X180720413Y-100576026D01*
X180740196Y-100579160D01*
X180786583Y-100574775D01*
X180792422Y-100574500D01*
X181919812Y-100574500D01*
X181986851Y-100594185D01*
X182021387Y-100627377D01*
X182133954Y-100788141D01*
X182294858Y-100949045D01*
X182294861Y-100949047D01*
X182481266Y-101079568D01*
X182687504Y-101175739D01*
X182907308Y-101234635D01*
X183069230Y-101248801D01*
X183133998Y-101254468D01*
X183134000Y-101254468D01*
X183134002Y-101254468D01*
X183190672Y-101249509D01*
X183360692Y-101234635D01*
X183580496Y-101175739D01*
X183786734Y-101079568D01*
X183973139Y-100949047D01*
X184134047Y-100788139D01*
X184246612Y-100627377D01*
X184301189Y-100583752D01*
X184348188Y-100574500D01*
X185972257Y-100574500D01*
X185987877Y-100576224D01*
X185987904Y-100575939D01*
X185995666Y-100576673D01*
X185995666Y-100576672D01*
X185995667Y-100576673D01*
X185998999Y-100576568D01*
X186063847Y-100574531D01*
X186065794Y-100574500D01*
X186094347Y-100574500D01*
X186094350Y-100574500D01*
X186101228Y-100573630D01*
X186107041Y-100573172D01*
X186153627Y-100571709D01*
X186172869Y-100566117D01*
X186191912Y-100562174D01*
X186211792Y-100559664D01*
X186255122Y-100542507D01*
X186260646Y-100540617D01*
X186264396Y-100539527D01*
X186305390Y-100527618D01*
X186322629Y-100517422D01*
X186340103Y-100508862D01*
X186358727Y-100501488D01*
X186358727Y-100501487D01*
X186358732Y-100501486D01*
X186396449Y-100474082D01*
X186401305Y-100470892D01*
X186441420Y-100447170D01*
X186455589Y-100432999D01*
X186470379Y-100420368D01*
X186486587Y-100408594D01*
X186516299Y-100372676D01*
X186520212Y-100368376D01*
X193423786Y-93464802D01*
X193436048Y-93454980D01*
X193435865Y-93454759D01*
X193441873Y-93449788D01*
X193441877Y-93449786D01*
X193488649Y-93399977D01*
X193489891Y-93398697D01*
X193510120Y-93378470D01*
X193514373Y-93372986D01*
X193518150Y-93368563D01*
X193550062Y-93334582D01*
X193559714Y-93317023D01*
X193570389Y-93300772D01*
X193582674Y-93284936D01*
X193601186Y-93242152D01*
X193603742Y-93236935D01*
X193626197Y-93196092D01*
X193631180Y-93176680D01*
X193637477Y-93158291D01*
X193645438Y-93139895D01*
X193652729Y-93093853D01*
X193653908Y-93088162D01*
X193665500Y-93043019D01*
X193665500Y-93022974D01*
X193667025Y-93003591D01*
X193670160Y-92983804D01*
X193665775Y-92937415D01*
X193665500Y-92931577D01*
X193665500Y-77806738D01*
X193667224Y-77791124D01*
X193666938Y-77791097D01*
X193667672Y-77783334D01*
X193665531Y-77715171D01*
X193665500Y-77713224D01*
X193665500Y-53168737D01*
X193667224Y-53153123D01*
X193666938Y-53153096D01*
X193667672Y-53145333D01*
X193665531Y-53077171D01*
X193665500Y-53075224D01*
X193665500Y-53046651D01*
X193665500Y-53046650D01*
X193664629Y-53039759D01*
X193664172Y-53033945D01*
X193662709Y-52987373D01*
X193657121Y-52968139D01*
X193653174Y-52949081D01*
X193650664Y-52929208D01*
X193633507Y-52885875D01*
X193631614Y-52880346D01*
X193618618Y-52835614D01*
X193618617Y-52835610D01*
X193608420Y-52818368D01*
X193599863Y-52800902D01*
X193592486Y-52782268D01*
X193565083Y-52744550D01*
X193561900Y-52739705D01*
X193538170Y-52699579D01*
X193538165Y-52699573D01*
X193524005Y-52685413D01*
X193511370Y-52670620D01*
X193499593Y-52654412D01*
X193463693Y-52624713D01*
X193459381Y-52620790D01*
X190111802Y-49273212D01*
X190101980Y-49260950D01*
X190101759Y-49261134D01*
X190096786Y-49255122D01*
X190047066Y-49208432D01*
X190045666Y-49207075D01*
X190025476Y-49186884D01*
X190019986Y-49182625D01*
X190015561Y-49178847D01*
X189981582Y-49146938D01*
X189981580Y-49146936D01*
X189981577Y-49146935D01*
X189964029Y-49137288D01*
X189947763Y-49126604D01*
X189931933Y-49114325D01*
X189889168Y-49095818D01*
X189883922Y-49093248D01*
X189843093Y-49070803D01*
X189843092Y-49070802D01*
X189823693Y-49065822D01*
X189805281Y-49059518D01*
X189786898Y-49051562D01*
X189786892Y-49051560D01*
X189740874Y-49044272D01*
X189735152Y-49043087D01*
X189690021Y-49031500D01*
X189690019Y-49031500D01*
X189669984Y-49031500D01*
X189650586Y-49029973D01*
X189643162Y-49028797D01*
X189630805Y-49026840D01*
X189630804Y-49026840D01*
X189584416Y-49031225D01*
X189578578Y-49031500D01*
X187603799Y-49031500D01*
X187536760Y-49011815D01*
X187502224Y-48978623D01*
X187406827Y-48842381D01*
X187406823Y-48842377D01*
X187250620Y-48686174D01*
X187250616Y-48686171D01*
X187250615Y-48686170D01*
X187069666Y-48559468D01*
X187069658Y-48559464D01*
X186940811Y-48499382D01*
X186888371Y-48453210D01*
X186869219Y-48386017D01*
X186889435Y-48319135D01*
X186940811Y-48274618D01*
X186946802Y-48271824D01*
X187069662Y-48214534D01*
X187250620Y-48087826D01*
X187406826Y-47931620D01*
X187533534Y-47750662D01*
X187626894Y-47550450D01*
X187684070Y-47337068D01*
X187703323Y-47117000D01*
X187684070Y-46896932D01*
X187626894Y-46683550D01*
X187533534Y-46483339D01*
X187406826Y-46302380D01*
X187250620Y-46146174D01*
X187250616Y-46146171D01*
X187250615Y-46146170D01*
X187069666Y-46019468D01*
X187069658Y-46019464D01*
X186940811Y-45959382D01*
X186888371Y-45913210D01*
X186869219Y-45846017D01*
X186889435Y-45779135D01*
X186940811Y-45734618D01*
X186946802Y-45731824D01*
X187069662Y-45674534D01*
X187250620Y-45547826D01*
X187406826Y-45391620D01*
X187533534Y-45210662D01*
X187626894Y-45010450D01*
X187684070Y-44797068D01*
X187703323Y-44577000D01*
X187684070Y-44356932D01*
X187626894Y-44143550D01*
X187533534Y-43943339D01*
X187406826Y-43762380D01*
X187250620Y-43606174D01*
X187250616Y-43606171D01*
X187250615Y-43606170D01*
X187069666Y-43479468D01*
X187069662Y-43479466D01*
X187069662Y-43479465D01*
X186869450Y-43386106D01*
X186869447Y-43386105D01*
X186869445Y-43386104D01*
X186656070Y-43328930D01*
X186656062Y-43328929D01*
X186436002Y-43309677D01*
X186435998Y-43309677D01*
X186215937Y-43328929D01*
X186215929Y-43328930D01*
X186002554Y-43386104D01*
X186002548Y-43386107D01*
X185802340Y-43479465D01*
X185802338Y-43479466D01*
X185621377Y-43606175D01*
X185465175Y-43762377D01*
X185338466Y-43943338D01*
X185338465Y-43943340D01*
X185245107Y-44143548D01*
X185245104Y-44143554D01*
X185187930Y-44356929D01*
X185187929Y-44356937D01*
X185168677Y-44576997D01*
X185168677Y-44577002D01*
X185187929Y-44797062D01*
X185187930Y-44797070D01*
X185245104Y-45010445D01*
X185245105Y-45010447D01*
X185245106Y-45010450D01*
X185338465Y-45210661D01*
X185338466Y-45210662D01*
X185338468Y-45210666D01*
X185465170Y-45391615D01*
X185465175Y-45391621D01*
X185621378Y-45547824D01*
X185621384Y-45547829D01*
X185802333Y-45674531D01*
X185802335Y-45674532D01*
X185802338Y-45674534D01*
X185921748Y-45730215D01*
X185931189Y-45734618D01*
X185983628Y-45780790D01*
X186002780Y-45847984D01*
X185982564Y-45914865D01*
X185931189Y-45959382D01*
X185802340Y-46019465D01*
X185802338Y-46019466D01*
X185621377Y-46146175D01*
X185465175Y-46302377D01*
X185338466Y-46483338D01*
X185338465Y-46483340D01*
X185245107Y-46683548D01*
X185245104Y-46683554D01*
X185187930Y-46896929D01*
X185187929Y-46896937D01*
X185168677Y-47116997D01*
X185168677Y-47117002D01*
X185187929Y-47337062D01*
X185187930Y-47337070D01*
X185245104Y-47550445D01*
X185245105Y-47550447D01*
X185245106Y-47550450D01*
X185338465Y-47750661D01*
X185338466Y-47750662D01*
X185338468Y-47750666D01*
X185465170Y-47931615D01*
X185465175Y-47931621D01*
X185621378Y-48087824D01*
X185621384Y-48087829D01*
X185802333Y-48214531D01*
X185802335Y-48214532D01*
X185802338Y-48214534D01*
X185921748Y-48270215D01*
X185931189Y-48274618D01*
X185983628Y-48320790D01*
X186002780Y-48387984D01*
X185982564Y-48454865D01*
X185931189Y-48499382D01*
X185802340Y-48559465D01*
X185802338Y-48559466D01*
X185621377Y-48686175D01*
X185465175Y-48842377D01*
X185338466Y-49023338D01*
X185338465Y-49023340D01*
X185245107Y-49223548D01*
X185245104Y-49223554D01*
X185187930Y-49436929D01*
X185187929Y-49436937D01*
X185168677Y-49656997D01*
X185168677Y-49657002D01*
X185187929Y-49877062D01*
X185187930Y-49877070D01*
X185245104Y-50090445D01*
X185245105Y-50090447D01*
X185245106Y-50090450D01*
X185334660Y-50282500D01*
X185338466Y-50290662D01*
X185338468Y-50290666D01*
X185465170Y-50471615D01*
X185465175Y-50471621D01*
X185621378Y-50627824D01*
X185621384Y-50627829D01*
X185802333Y-50754531D01*
X185802335Y-50754532D01*
X185802338Y-50754534D01*
X185931781Y-50814894D01*
X185984220Y-50861066D01*
X186003372Y-50928260D01*
X185983156Y-50995141D01*
X185931781Y-51039658D01*
X185802586Y-51099903D01*
X185737812Y-51145257D01*
X185737811Y-51145258D01*
X186408554Y-51816000D01*
X186404431Y-51816000D01*
X186310579Y-51831661D01*
X186198749Y-51892180D01*
X186112629Y-51985731D01*
X186061552Y-52102177D01*
X186055894Y-52170446D01*
X185384258Y-51498811D01*
X185384257Y-51498812D01*
X185338903Y-51563586D01*
X185245579Y-51763720D01*
X185245575Y-51763729D01*
X185188426Y-51977013D01*
X185188424Y-51977023D01*
X185169179Y-52196999D01*
X185169179Y-52197000D01*
X185188424Y-52416976D01*
X185188426Y-52416986D01*
X185245575Y-52630270D01*
X185245580Y-52630284D01*
X185338899Y-52830407D01*
X185338900Y-52830409D01*
X185384258Y-52895187D01*
X186051096Y-52228348D01*
X186051051Y-52228898D01*
X186082266Y-52352162D01*
X186151813Y-52458612D01*
X186252157Y-52536713D01*
X186372422Y-52578000D01*
X186408553Y-52578000D01*
X185737811Y-53248741D01*
X185802582Y-53294094D01*
X185802592Y-53294100D01*
X186002715Y-53387419D01*
X186002729Y-53387424D01*
X186216013Y-53444573D01*
X186216023Y-53444575D01*
X186435999Y-53463821D01*
X186436001Y-53463821D01*
X186655976Y-53444575D01*
X186655986Y-53444573D01*
X186869270Y-53387424D01*
X186869284Y-53387419D01*
X187069408Y-53294100D01*
X187069420Y-53294093D01*
X187134186Y-53248742D01*
X187134187Y-53248740D01*
X186463448Y-52578000D01*
X186467569Y-52578000D01*
X186561421Y-52562339D01*
X186673251Y-52501820D01*
X186759371Y-52408269D01*
X186810448Y-52291823D01*
X186816105Y-52223552D01*
X187487740Y-52895187D01*
X187487742Y-52895186D01*
X187533093Y-52830420D01*
X187533100Y-52830408D01*
X187626419Y-52630284D01*
X187626424Y-52630270D01*
X187683573Y-52416986D01*
X187683575Y-52416976D01*
X187702821Y-52197000D01*
X187702821Y-52196999D01*
X187683575Y-51977023D01*
X187683573Y-51977013D01*
X187626424Y-51763729D01*
X187626420Y-51763720D01*
X187533098Y-51563590D01*
X187487740Y-51498811D01*
X186820903Y-52165648D01*
X186820949Y-52165102D01*
X186789734Y-52041838D01*
X186720187Y-51935388D01*
X186619843Y-51857287D01*
X186499578Y-51816000D01*
X186463447Y-51816000D01*
X187134187Y-51145258D01*
X187069409Y-51099900D01*
X187069407Y-51099899D01*
X186940219Y-51039658D01*
X186887779Y-50993486D01*
X186868627Y-50926293D01*
X186888843Y-50859411D01*
X186940219Y-50814894D01*
X187069662Y-50754534D01*
X187250620Y-50627826D01*
X187406826Y-50471620D01*
X187502224Y-50335376D01*
X187556802Y-50291752D01*
X187603800Y-50282500D01*
X189300548Y-50282500D01*
X189367587Y-50302185D01*
X189388229Y-50318819D01*
X192378181Y-53308771D01*
X192411666Y-53370094D01*
X192414500Y-53396452D01*
X192414500Y-75914546D01*
X192394815Y-75981585D01*
X192342011Y-76027340D01*
X192272853Y-76037284D01*
X192209297Y-76008259D01*
X192202819Y-76002227D01*
X191381803Y-75181212D01*
X191371980Y-75168950D01*
X191371759Y-75169134D01*
X191366786Y-75163122D01*
X191317066Y-75116432D01*
X191315666Y-75115075D01*
X191295476Y-75094884D01*
X191289986Y-75090625D01*
X191285561Y-75086847D01*
X191251582Y-75054938D01*
X191251580Y-75054936D01*
X191251577Y-75054935D01*
X191234029Y-75045288D01*
X191217763Y-75034604D01*
X191201933Y-75022325D01*
X191159168Y-75003818D01*
X191153922Y-75001248D01*
X191113093Y-74978803D01*
X191113092Y-74978802D01*
X191093693Y-74973822D01*
X191075281Y-74967518D01*
X191056898Y-74959562D01*
X191056892Y-74959560D01*
X191010874Y-74952272D01*
X191005152Y-74951087D01*
X190960021Y-74939500D01*
X190960019Y-74939500D01*
X190939984Y-74939500D01*
X190920586Y-74937973D01*
X190913162Y-74936797D01*
X190900805Y-74934840D01*
X190900804Y-74934840D01*
X190854416Y-74939225D01*
X190848578Y-74939500D01*
X190397799Y-74939500D01*
X190330760Y-74919815D01*
X190296224Y-74886623D01*
X190200827Y-74750381D01*
X190200823Y-74750377D01*
X190044620Y-74594174D01*
X190044616Y-74594171D01*
X190044615Y-74594170D01*
X189863666Y-74467468D01*
X189863658Y-74467464D01*
X189734219Y-74407106D01*
X189681779Y-74360934D01*
X189662627Y-74293741D01*
X189682843Y-74226859D01*
X189734219Y-74182342D01*
X189863408Y-74122100D01*
X189863420Y-74122093D01*
X189928186Y-74076742D01*
X189928187Y-74076740D01*
X189257448Y-73406000D01*
X189261569Y-73406000D01*
X189355421Y-73390339D01*
X189467251Y-73329820D01*
X189553371Y-73236269D01*
X189604448Y-73119823D01*
X189610105Y-73051552D01*
X190281740Y-73723187D01*
X190281742Y-73723186D01*
X190327093Y-73658420D01*
X190327100Y-73658408D01*
X190420419Y-73458284D01*
X190420424Y-73458270D01*
X190477573Y-73244986D01*
X190477575Y-73244976D01*
X190496821Y-73025000D01*
X190496821Y-73024999D01*
X190477575Y-72805023D01*
X190477573Y-72805013D01*
X190420424Y-72591729D01*
X190420420Y-72591720D01*
X190327098Y-72391590D01*
X190281740Y-72326811D01*
X189614903Y-72993648D01*
X189614949Y-72993102D01*
X189583734Y-72869838D01*
X189514187Y-72763388D01*
X189413843Y-72685287D01*
X189293578Y-72644000D01*
X189257447Y-72644000D01*
X189928187Y-71973258D01*
X189863409Y-71927900D01*
X189863407Y-71927899D01*
X189734219Y-71867658D01*
X189681779Y-71821486D01*
X189662627Y-71754293D01*
X189682843Y-71687411D01*
X189734219Y-71642894D01*
X189863662Y-71582534D01*
X190044620Y-71455826D01*
X190200826Y-71299620D01*
X190327534Y-71118662D01*
X190420894Y-70918450D01*
X190478070Y-70705068D01*
X190497323Y-70485000D01*
X190478070Y-70264932D01*
X190420894Y-70051550D01*
X190327534Y-69851339D01*
X190200826Y-69670380D01*
X190044620Y-69514174D01*
X190044616Y-69514171D01*
X190044615Y-69514170D01*
X189863666Y-69387468D01*
X189863662Y-69387466D01*
X189863660Y-69387465D01*
X189663450Y-69294106D01*
X189663447Y-69294105D01*
X189663445Y-69294104D01*
X189450070Y-69236930D01*
X189450062Y-69236929D01*
X189230002Y-69217677D01*
X189229998Y-69217677D01*
X189009937Y-69236929D01*
X189009929Y-69236930D01*
X188796554Y-69294104D01*
X188796548Y-69294107D01*
X188596340Y-69387465D01*
X188596338Y-69387466D01*
X188415377Y-69514175D01*
X188259175Y-69670377D01*
X188132466Y-69851338D01*
X188132465Y-69851340D01*
X188039107Y-70051548D01*
X188039104Y-70051554D01*
X187981930Y-70264929D01*
X187981929Y-70264937D01*
X187962677Y-70484997D01*
X187962677Y-70485002D01*
X187981929Y-70705062D01*
X187981930Y-70705070D01*
X188039104Y-70918445D01*
X188039105Y-70918447D01*
X188039106Y-70918450D01*
X188132466Y-71118661D01*
X188132466Y-71118662D01*
X188132468Y-71118666D01*
X188259170Y-71299615D01*
X188259175Y-71299621D01*
X188415378Y-71455824D01*
X188415384Y-71455829D01*
X188596333Y-71582531D01*
X188596335Y-71582532D01*
X188596338Y-71582534D01*
X188725781Y-71642894D01*
X188778220Y-71689066D01*
X188797372Y-71756260D01*
X188777156Y-71823141D01*
X188725781Y-71867658D01*
X188596586Y-71927903D01*
X188531812Y-71973257D01*
X188531811Y-71973258D01*
X189202554Y-72644000D01*
X189198431Y-72644000D01*
X189104579Y-72659661D01*
X188992749Y-72720180D01*
X188906629Y-72813731D01*
X188855552Y-72930177D01*
X188849894Y-72998446D01*
X188178258Y-72326811D01*
X188178257Y-72326812D01*
X188132903Y-72391586D01*
X188039579Y-72591720D01*
X188039575Y-72591729D01*
X187982426Y-72805013D01*
X187982424Y-72805023D01*
X187963179Y-73024999D01*
X187963179Y-73025000D01*
X187982424Y-73244976D01*
X187982426Y-73244986D01*
X188039575Y-73458270D01*
X188039580Y-73458284D01*
X188132899Y-73658407D01*
X188132900Y-73658409D01*
X188178258Y-73723187D01*
X188845096Y-73056349D01*
X188845051Y-73056898D01*
X188876266Y-73180162D01*
X188945813Y-73286612D01*
X189046157Y-73364713D01*
X189166422Y-73406000D01*
X189202553Y-73406000D01*
X188531811Y-74076741D01*
X188596582Y-74122094D01*
X188596588Y-74122098D01*
X188725781Y-74182342D01*
X188778220Y-74228514D01*
X188797372Y-74295708D01*
X188777156Y-74362589D01*
X188725781Y-74407106D01*
X188596340Y-74467465D01*
X188596338Y-74467466D01*
X188415377Y-74594175D01*
X188259175Y-74750377D01*
X188132466Y-74931338D01*
X188132465Y-74931340D01*
X188039107Y-75131548D01*
X188039104Y-75131554D01*
X187981930Y-75344929D01*
X187981929Y-75344937D01*
X187962677Y-75564997D01*
X187962677Y-75565002D01*
X187981929Y-75785062D01*
X187981930Y-75785070D01*
X188039104Y-75998445D01*
X188039105Y-75998447D01*
X188039106Y-75998450D01*
X188061591Y-76046669D01*
X188132466Y-76198662D01*
X188132468Y-76198666D01*
X188259170Y-76379615D01*
X188259175Y-76379621D01*
X188415378Y-76535824D01*
X188415384Y-76535829D01*
X188596333Y-76662531D01*
X188596335Y-76662532D01*
X188596338Y-76662534D01*
X188715748Y-76718215D01*
X188725189Y-76722618D01*
X188777628Y-76768790D01*
X188796780Y-76835984D01*
X188776564Y-76902865D01*
X188725189Y-76947382D01*
X188596340Y-77007465D01*
X188596338Y-77007466D01*
X188415377Y-77134175D01*
X188259175Y-77290377D01*
X188132466Y-77471338D01*
X188132465Y-77471340D01*
X188039107Y-77671548D01*
X188039104Y-77671554D01*
X187981930Y-77884929D01*
X187981929Y-77884937D01*
X187962677Y-78104997D01*
X187962677Y-78105002D01*
X187981929Y-78325062D01*
X187981930Y-78325070D01*
X188039104Y-78538445D01*
X188039105Y-78538447D01*
X188039106Y-78538450D01*
X188132466Y-78738662D01*
X188132468Y-78738666D01*
X188259170Y-78919615D01*
X188259175Y-78919621D01*
X188415378Y-79075824D01*
X188415384Y-79075829D01*
X188596333Y-79202531D01*
X188596335Y-79202532D01*
X188596338Y-79202534D01*
X188715748Y-79258215D01*
X188725189Y-79262618D01*
X188777628Y-79308790D01*
X188796780Y-79375984D01*
X188776564Y-79442865D01*
X188725189Y-79487382D01*
X188596340Y-79547465D01*
X188596338Y-79547466D01*
X188415377Y-79674175D01*
X188259175Y-79830377D01*
X188132466Y-80011338D01*
X188132465Y-80011340D01*
X188039107Y-80211548D01*
X188039104Y-80211554D01*
X187981930Y-80424929D01*
X187981929Y-80424937D01*
X187962677Y-80644997D01*
X187962677Y-80645002D01*
X187981929Y-80865062D01*
X187981930Y-80865070D01*
X188039104Y-81078445D01*
X188039105Y-81078447D01*
X188039106Y-81078450D01*
X188081308Y-81168953D01*
X188132466Y-81278662D01*
X188132468Y-81278666D01*
X188259170Y-81459615D01*
X188259175Y-81459621D01*
X188415378Y-81615824D01*
X188415384Y-81615829D01*
X188596333Y-81742531D01*
X188596335Y-81742532D01*
X188596338Y-81742534D01*
X188715748Y-81798215D01*
X188725189Y-81802618D01*
X188777628Y-81848790D01*
X188796780Y-81915984D01*
X188776564Y-81982865D01*
X188725189Y-82027382D01*
X188596340Y-82087465D01*
X188596338Y-82087466D01*
X188415377Y-82214175D01*
X188259175Y-82370377D01*
X188132466Y-82551338D01*
X188132465Y-82551340D01*
X188039107Y-82751548D01*
X188039104Y-82751554D01*
X187981930Y-82964929D01*
X187981929Y-82964937D01*
X187962677Y-83184997D01*
X187962677Y-83185002D01*
X187981929Y-83405062D01*
X187981930Y-83405070D01*
X188039104Y-83618445D01*
X188039105Y-83618447D01*
X188039106Y-83618450D01*
X188132466Y-83818662D01*
X188132468Y-83818666D01*
X188259170Y-83999615D01*
X188259175Y-83999621D01*
X188415378Y-84155824D01*
X188415384Y-84155829D01*
X188596333Y-84282531D01*
X188596335Y-84282532D01*
X188596338Y-84282534D01*
X188687862Y-84325212D01*
X188725189Y-84342618D01*
X188777628Y-84388790D01*
X188796780Y-84455984D01*
X188776564Y-84522865D01*
X188725189Y-84567382D01*
X188596340Y-84627465D01*
X188596338Y-84627466D01*
X188415377Y-84754175D01*
X188259175Y-84910377D01*
X188132466Y-85091338D01*
X188132465Y-85091340D01*
X188039107Y-85291548D01*
X188039104Y-85291554D01*
X187981930Y-85504929D01*
X187981929Y-85504937D01*
X187962677Y-85724997D01*
X187962677Y-85725002D01*
X187981929Y-85945062D01*
X187981930Y-85945070D01*
X188039104Y-86158445D01*
X188039105Y-86158447D01*
X188039106Y-86158450D01*
X188081308Y-86248953D01*
X188132466Y-86358662D01*
X188132468Y-86358666D01*
X188259170Y-86539615D01*
X188259175Y-86539621D01*
X188415378Y-86695824D01*
X188415384Y-86695829D01*
X188596333Y-86822531D01*
X188596335Y-86822532D01*
X188596338Y-86822534D01*
X188796550Y-86915894D01*
X189009932Y-86973070D01*
X189167123Y-86986822D01*
X189229998Y-86992323D01*
X189230000Y-86992323D01*
X189230002Y-86992323D01*
X189285016Y-86987509D01*
X189450068Y-86973070D01*
X189663450Y-86915894D01*
X189863662Y-86822534D01*
X190044620Y-86695826D01*
X190200826Y-86539620D01*
X190327534Y-86358662D01*
X190420894Y-86158450D01*
X190478070Y-85945068D01*
X190497323Y-85725000D01*
X190478070Y-85504932D01*
X190420894Y-85291550D01*
X190327534Y-85091339D01*
X190218550Y-84935692D01*
X190200827Y-84910381D01*
X190200823Y-84910377D01*
X190044620Y-84754174D01*
X190044616Y-84754171D01*
X190044615Y-84754170D01*
X189863666Y-84627468D01*
X189863658Y-84627464D01*
X189734811Y-84567382D01*
X189682371Y-84521210D01*
X189663219Y-84454017D01*
X189683435Y-84387135D01*
X189734811Y-84342618D01*
X189772138Y-84325212D01*
X189863662Y-84282534D01*
X190044620Y-84155826D01*
X190200826Y-83999620D01*
X190327534Y-83818662D01*
X190420894Y-83618450D01*
X190478070Y-83405068D01*
X190497323Y-83185000D01*
X190478070Y-82964932D01*
X190420894Y-82751550D01*
X190327534Y-82551339D01*
X190218550Y-82395692D01*
X190200827Y-82370381D01*
X190200823Y-82370377D01*
X190044620Y-82214174D01*
X190044616Y-82214171D01*
X190044615Y-82214170D01*
X189863666Y-82087468D01*
X189863658Y-82087464D01*
X189734811Y-82027382D01*
X189682371Y-81981210D01*
X189663219Y-81914017D01*
X189683435Y-81847135D01*
X189734811Y-81802618D01*
X189740802Y-81799824D01*
X189863662Y-81742534D01*
X190044620Y-81615826D01*
X190200826Y-81459620D01*
X190327534Y-81278662D01*
X190420894Y-81078450D01*
X190478070Y-80865068D01*
X190497323Y-80645000D01*
X190478070Y-80424932D01*
X190420894Y-80211550D01*
X190327534Y-80011339D01*
X190218550Y-79855692D01*
X190200827Y-79830381D01*
X190200823Y-79830377D01*
X190044620Y-79674174D01*
X190044616Y-79674171D01*
X190044615Y-79674170D01*
X189863666Y-79547468D01*
X189863658Y-79547464D01*
X189734811Y-79487382D01*
X189682371Y-79441210D01*
X189663219Y-79374017D01*
X189683435Y-79307135D01*
X189734811Y-79262618D01*
X189740802Y-79259824D01*
X189863662Y-79202534D01*
X190044620Y-79075826D01*
X190200826Y-78919620D01*
X190327534Y-78738662D01*
X190420894Y-78538450D01*
X190478070Y-78325068D01*
X190497323Y-78105000D01*
X190478070Y-77884932D01*
X190420894Y-77671550D01*
X190327534Y-77471339D01*
X190218550Y-77315692D01*
X190200827Y-77290381D01*
X190200823Y-77290377D01*
X190044620Y-77134174D01*
X190044616Y-77134171D01*
X190044615Y-77134170D01*
X189863666Y-77007468D01*
X189863658Y-77007464D01*
X189734811Y-76947382D01*
X189682371Y-76901210D01*
X189663219Y-76834017D01*
X189683435Y-76767135D01*
X189734811Y-76722618D01*
X189740802Y-76719824D01*
X189863662Y-76662534D01*
X190044620Y-76535826D01*
X190200826Y-76379620D01*
X190296224Y-76243376D01*
X190350802Y-76199752D01*
X190397800Y-76190500D01*
X190570548Y-76190500D01*
X190637587Y-76210185D01*
X190658229Y-76226819D01*
X192378181Y-77946771D01*
X192411666Y-78008094D01*
X192414500Y-78034452D01*
X192414500Y-92653547D01*
X192394815Y-92720586D01*
X192378181Y-92741228D01*
X185832228Y-99287181D01*
X185770905Y-99320666D01*
X185744547Y-99323500D01*
X184348188Y-99323500D01*
X184281149Y-99303815D01*
X184246613Y-99270623D01*
X184134045Y-99109858D01*
X183973141Y-98948954D01*
X183786734Y-98818432D01*
X183786732Y-98818431D01*
X183580497Y-98722261D01*
X183580488Y-98722258D01*
X183360697Y-98663366D01*
X183360693Y-98663365D01*
X183360692Y-98663365D01*
X183360691Y-98663364D01*
X183360686Y-98663364D01*
X183134002Y-98643532D01*
X183133998Y-98643532D01*
X182907313Y-98663364D01*
X182907302Y-98663366D01*
X182687511Y-98722258D01*
X182687502Y-98722261D01*
X182481267Y-98818431D01*
X182481265Y-98818432D01*
X182294858Y-98948954D01*
X182133954Y-99109858D01*
X182021387Y-99270623D01*
X181966811Y-99314248D01*
X181919812Y-99323500D01*
X181070452Y-99323500D01*
X181003413Y-99303815D01*
X180982771Y-99287181D01*
X179465660Y-97770070D01*
X179432175Y-97708747D01*
X179433135Y-97651950D01*
X179487108Y-97438821D01*
X179507643Y-97191000D01*
X179488710Y-96962511D01*
X179487109Y-96943187D01*
X179487107Y-96943175D01*
X179426063Y-96702118D01*
X179326173Y-96474393D01*
X179190166Y-96266217D01*
X179168557Y-96242744D01*
X179021744Y-96083262D01*
X178825509Y-95930526D01*
X178825507Y-95930525D01*
X178825506Y-95930524D01*
X178606811Y-95812172D01*
X178606802Y-95812169D01*
X178371616Y-95731429D01*
X178126335Y-95690500D01*
X177877665Y-95690500D01*
X177632383Y-95731429D01*
X177397197Y-95812169D01*
X177397188Y-95812172D01*
X177178493Y-95930524D01*
X176982257Y-96083261D01*
X176813833Y-96266217D01*
X176677824Y-96474396D01*
X176670405Y-96491311D01*
X176625449Y-96544797D01*
X176558713Y-96565486D01*
X176556850Y-96565500D01*
X172947150Y-96565500D01*
X172880111Y-96545815D01*
X172834356Y-96493011D01*
X172833595Y-96491311D01*
X172826175Y-96474396D01*
X172690166Y-96266217D01*
X172668557Y-96242744D01*
X172521744Y-96083262D01*
X172325509Y-95930526D01*
X172325507Y-95930525D01*
X172325506Y-95930524D01*
X172106811Y-95812172D01*
X172106802Y-95812169D01*
X171871616Y-95731429D01*
X171626335Y-95690500D01*
X171377665Y-95690500D01*
X171132383Y-95731429D01*
X170897197Y-95812169D01*
X170897188Y-95812172D01*
X170678493Y-95930524D01*
X170482257Y-96083261D01*
X170313833Y-96266217D01*
X170177824Y-96474396D01*
X170170405Y-96491311D01*
X170125449Y-96544797D01*
X170058713Y-96565486D01*
X170056850Y-96565500D01*
X168577150Y-96565500D01*
X168510111Y-96545815D01*
X168464356Y-96493011D01*
X168463595Y-96491311D01*
X168456175Y-96474396D01*
X168320166Y-96266217D01*
X168298557Y-96242744D01*
X168151744Y-96083262D01*
X167955509Y-95930526D01*
X167955507Y-95930525D01*
X167955506Y-95930524D01*
X167736811Y-95812172D01*
X167736802Y-95812169D01*
X167501616Y-95731429D01*
X167256335Y-95690500D01*
X167007665Y-95690500D01*
X166762383Y-95731429D01*
X166527197Y-95812169D01*
X166527188Y-95812172D01*
X166308493Y-95930524D01*
X166112257Y-96083261D01*
X165943833Y-96266217D01*
X165807824Y-96474396D01*
X165800405Y-96491311D01*
X165755449Y-96544797D01*
X165688713Y-96565486D01*
X165686850Y-96565500D01*
X162077150Y-96565500D01*
X162010111Y-96545815D01*
X161964356Y-96493011D01*
X161963595Y-96491311D01*
X161956175Y-96474396D01*
X161820166Y-96266217D01*
X161798557Y-96242744D01*
X161651744Y-96083262D01*
X161455509Y-95930526D01*
X161455508Y-95930525D01*
X161455505Y-95930523D01*
X161455503Y-95930522D01*
X161322481Y-95858533D01*
X161272891Y-95809313D01*
X161257500Y-95749479D01*
X161257500Y-87308742D01*
X161259224Y-87293122D01*
X161258939Y-87293095D01*
X161259673Y-87285333D01*
X161257531Y-87217139D01*
X161257500Y-87215192D01*
X161257500Y-87186656D01*
X161257500Y-87186650D01*
X161256631Y-87179779D01*
X161256173Y-87173952D01*
X161254710Y-87127373D01*
X161249119Y-87108130D01*
X161245173Y-87089078D01*
X161242664Y-87069208D01*
X161225504Y-87025867D01*
X161223624Y-87020379D01*
X161210618Y-86975610D01*
X161209115Y-86973069D01*
X161200423Y-86958371D01*
X161191861Y-86940894D01*
X161184487Y-86922270D01*
X161184486Y-86922268D01*
X161157079Y-86884545D01*
X161153888Y-86879686D01*
X161130172Y-86839583D01*
X161130165Y-86839574D01*
X161116006Y-86825415D01*
X161103368Y-86810619D01*
X161097471Y-86802502D01*
X161091594Y-86794413D01*
X161055688Y-86764709D01*
X161051376Y-86760786D01*
X158615803Y-84325212D01*
X158605980Y-84312950D01*
X158605759Y-84313134D01*
X158600786Y-84307122D01*
X158551066Y-84260432D01*
X158549666Y-84259075D01*
X158529476Y-84238884D01*
X158523986Y-84234625D01*
X158519561Y-84230847D01*
X158485582Y-84198938D01*
X158485580Y-84198936D01*
X158485577Y-84198935D01*
X158468029Y-84189288D01*
X158451763Y-84178604D01*
X158435933Y-84166325D01*
X158393168Y-84147818D01*
X158387922Y-84145248D01*
X158347093Y-84122803D01*
X158347092Y-84122802D01*
X158327693Y-84117822D01*
X158309281Y-84111518D01*
X158290898Y-84103562D01*
X158290892Y-84103560D01*
X158244874Y-84096272D01*
X158239152Y-84095087D01*
X158194021Y-84083500D01*
X158194019Y-84083500D01*
X158173984Y-84083500D01*
X158154586Y-84081973D01*
X158147162Y-84080797D01*
X158134805Y-84078840D01*
X158134804Y-84078840D01*
X158088416Y-84083225D01*
X158082578Y-84083500D01*
X157170188Y-84083500D01*
X157103149Y-84063815D01*
X157068613Y-84030623D01*
X156956045Y-83869858D01*
X156795141Y-83708954D01*
X156608734Y-83578432D01*
X156608728Y-83578429D01*
X156550725Y-83551382D01*
X156498285Y-83505210D01*
X156479133Y-83438017D01*
X156499348Y-83371135D01*
X156550725Y-83326618D01*
X156608734Y-83299568D01*
X156795139Y-83169047D01*
X156956047Y-83008139D01*
X157086568Y-82821734D01*
X157182739Y-82615496D01*
X157241635Y-82395692D01*
X157261468Y-82169000D01*
X157241635Y-81942308D01*
X157182739Y-81722504D01*
X157086568Y-81516266D01*
X156956047Y-81329861D01*
X156956045Y-81329858D01*
X156795141Y-81168954D01*
X156608734Y-81038432D01*
X156608732Y-81038431D01*
X156550725Y-81011382D01*
X156550132Y-81011105D01*
X156497694Y-80964934D01*
X156478542Y-80897740D01*
X156498758Y-80830859D01*
X156550134Y-80786341D01*
X156608484Y-80759132D01*
X156794820Y-80628657D01*
X156955657Y-80467820D01*
X157086134Y-80281482D01*
X157182265Y-80075326D01*
X157182269Y-80075317D01*
X157234872Y-79879000D01*
X156389686Y-79879000D01*
X156415493Y-79838844D01*
X156456000Y-79700889D01*
X156456000Y-79557111D01*
X156415493Y-79419156D01*
X156389686Y-79379000D01*
X157234872Y-79379000D01*
X157234872Y-79378999D01*
X157182269Y-79182682D01*
X157182265Y-79182673D01*
X157086134Y-78976517D01*
X156955657Y-78790179D01*
X156794820Y-78629342D01*
X156608482Y-78498865D01*
X156550133Y-78471657D01*
X156497694Y-78425484D01*
X156478542Y-78358291D01*
X156498758Y-78291410D01*
X156550129Y-78246895D01*
X156608734Y-78219568D01*
X156795139Y-78089047D01*
X156956047Y-77928139D01*
X157086568Y-77741734D01*
X157182739Y-77535496D01*
X157241635Y-77315692D01*
X157261468Y-77089000D01*
X157241635Y-76862308D01*
X157182739Y-76642504D01*
X157086568Y-76436266D01*
X156956047Y-76249861D01*
X156956045Y-76249858D01*
X156795141Y-76088954D01*
X156608734Y-75958432D01*
X156608732Y-75958431D01*
X156402497Y-75862261D01*
X156402488Y-75862258D01*
X156182697Y-75803366D01*
X156182693Y-75803365D01*
X156182692Y-75803365D01*
X156182691Y-75803364D01*
X156182686Y-75803364D01*
X155956002Y-75783532D01*
X155955998Y-75783532D01*
X155729313Y-75803364D01*
X155729302Y-75803366D01*
X155509511Y-75862258D01*
X155509502Y-75862261D01*
X155303267Y-75958431D01*
X155303265Y-75958432D01*
X155116858Y-76088954D01*
X154955954Y-76249858D01*
X154825432Y-76436265D01*
X154825431Y-76436267D01*
X154729261Y-76642502D01*
X154729258Y-76642511D01*
X154670366Y-76862302D01*
X154670364Y-76862313D01*
X154650532Y-77088998D01*
X154650532Y-77089001D01*
X154670364Y-77315686D01*
X154670366Y-77315697D01*
X154729258Y-77535488D01*
X154729261Y-77535497D01*
X154825431Y-77741732D01*
X154825432Y-77741734D01*
X154955954Y-77928141D01*
X155116858Y-78089045D01*
X155116861Y-78089047D01*
X155303266Y-78219568D01*
X155361865Y-78246893D01*
X155414305Y-78293065D01*
X155433457Y-78360258D01*
X155413242Y-78427139D01*
X155361867Y-78471657D01*
X155303515Y-78498867D01*
X155117179Y-78629342D01*
X154956342Y-78790179D01*
X154825865Y-78976517D01*
X154729734Y-79182673D01*
X154729730Y-79182682D01*
X154677127Y-79378999D01*
X154677128Y-79379000D01*
X155522314Y-79379000D01*
X155496507Y-79419156D01*
X155456000Y-79557111D01*
X155456000Y-79700889D01*
X155496507Y-79838844D01*
X155522314Y-79879000D01*
X154677128Y-79879000D01*
X154729730Y-80075317D01*
X154729734Y-80075326D01*
X154825865Y-80281482D01*
X154956342Y-80467820D01*
X155117179Y-80628657D01*
X155303518Y-80759134D01*
X155303520Y-80759135D01*
X155361865Y-80786342D01*
X155414305Y-80832514D01*
X155433457Y-80899707D01*
X155413242Y-80966589D01*
X155361867Y-81011105D01*
X155303268Y-81038431D01*
X155303264Y-81038433D01*
X155116858Y-81168954D01*
X154955954Y-81329858D01*
X154825432Y-81516265D01*
X154825431Y-81516267D01*
X154729261Y-81722502D01*
X154729258Y-81722511D01*
X154670366Y-81942302D01*
X154670364Y-81942313D01*
X154650532Y-82168998D01*
X154650532Y-82169001D01*
X154670364Y-82395686D01*
X154670366Y-82395697D01*
X154729258Y-82615488D01*
X154729261Y-82615497D01*
X154825431Y-82821732D01*
X154825432Y-82821734D01*
X154955954Y-83008141D01*
X155116858Y-83169045D01*
X155116861Y-83169047D01*
X155303266Y-83299568D01*
X155361275Y-83326618D01*
X155413714Y-83372791D01*
X155432866Y-83439984D01*
X155412650Y-83506865D01*
X155361275Y-83551382D01*
X155303267Y-83578431D01*
X155303265Y-83578432D01*
X155116858Y-83708954D01*
X154955954Y-83869858D01*
X154825432Y-84056265D01*
X154825431Y-84056267D01*
X154729261Y-84262502D01*
X154729258Y-84262511D01*
X154670366Y-84482302D01*
X154670364Y-84482313D01*
X154650532Y-84708998D01*
X154650532Y-84709001D01*
X154670364Y-84935686D01*
X154670366Y-84935697D01*
X154729258Y-85155488D01*
X154729261Y-85155497D01*
X154825431Y-85361732D01*
X154825432Y-85361734D01*
X154955954Y-85548141D01*
X155116858Y-85709045D01*
X155116861Y-85709047D01*
X155303266Y-85839568D01*
X155360681Y-85866341D01*
X155361275Y-85866618D01*
X155413714Y-85912791D01*
X155432866Y-85979984D01*
X155412650Y-86046865D01*
X155361275Y-86091382D01*
X155303267Y-86118431D01*
X155303265Y-86118432D01*
X155116858Y-86248954D01*
X154955954Y-86409858D01*
X154825432Y-86596265D01*
X154825431Y-86596267D01*
X154729261Y-86802502D01*
X154729258Y-86802511D01*
X154670366Y-87022302D01*
X154670364Y-87022313D01*
X154650532Y-87248998D01*
X154650532Y-87249001D01*
X154670364Y-87475686D01*
X154670366Y-87475697D01*
X154729258Y-87695488D01*
X154729261Y-87695497D01*
X154825431Y-87901732D01*
X154825432Y-87901734D01*
X154955954Y-88088141D01*
X155116858Y-88249045D01*
X155116861Y-88249047D01*
X155303266Y-88379568D01*
X155361275Y-88406618D01*
X155413714Y-88452791D01*
X155432866Y-88519984D01*
X155412650Y-88586865D01*
X155361275Y-88631382D01*
X155303267Y-88658431D01*
X155303265Y-88658432D01*
X155116858Y-88788954D01*
X154955954Y-88949858D01*
X154825432Y-89136265D01*
X154825431Y-89136267D01*
X154729261Y-89342502D01*
X154729258Y-89342511D01*
X154670366Y-89562302D01*
X154670364Y-89562313D01*
X154650532Y-89788998D01*
X154650532Y-89789001D01*
X154670364Y-90015686D01*
X154670366Y-90015697D01*
X154729258Y-90235488D01*
X154729261Y-90235497D01*
X154825431Y-90441732D01*
X154825432Y-90441734D01*
X154955954Y-90628141D01*
X155116858Y-90789045D01*
X155116861Y-90789047D01*
X155303266Y-90919568D01*
X155361278Y-90946619D01*
X155413713Y-90992788D01*
X155432866Y-91059982D01*
X155412651Y-91126863D01*
X155361277Y-91171380D01*
X155303268Y-91198430D01*
X155303265Y-91198432D01*
X155116858Y-91328954D01*
X154955954Y-91489858D01*
X154825432Y-91676265D01*
X154825431Y-91676267D01*
X154729261Y-91882502D01*
X154729258Y-91882511D01*
X154670366Y-92102302D01*
X154670364Y-92102313D01*
X154650532Y-92328998D01*
X154650532Y-92329001D01*
X154670364Y-92555686D01*
X154670366Y-92555697D01*
X154729258Y-92775488D01*
X154729261Y-92775497D01*
X154825431Y-92981732D01*
X154825432Y-92981734D01*
X154955954Y-93168141D01*
X155116858Y-93329045D01*
X155116861Y-93329047D01*
X155303266Y-93459568D01*
X155361275Y-93486618D01*
X155413714Y-93532791D01*
X155432866Y-93599984D01*
X155412650Y-93666865D01*
X155361275Y-93711382D01*
X155303267Y-93738431D01*
X155303265Y-93738432D01*
X155116858Y-93868954D01*
X154955954Y-94029858D01*
X154825432Y-94216265D01*
X154825431Y-94216267D01*
X154729261Y-94422502D01*
X154729258Y-94422511D01*
X154670366Y-94642302D01*
X154670364Y-94642313D01*
X154650532Y-94868998D01*
X154650532Y-94869001D01*
X154670364Y-95095686D01*
X154670366Y-95095697D01*
X154729258Y-95315488D01*
X154729261Y-95315497D01*
X154825431Y-95521732D01*
X154825432Y-95521734D01*
X154955954Y-95708141D01*
X155116858Y-95869045D01*
X155116861Y-95869047D01*
X155303266Y-95999568D01*
X155361275Y-96026618D01*
X155413714Y-96072791D01*
X155432866Y-96139984D01*
X155412650Y-96206865D01*
X155361275Y-96251382D01*
X155303267Y-96278431D01*
X155303265Y-96278432D01*
X155116858Y-96408954D01*
X154955954Y-96569858D01*
X154825432Y-96756265D01*
X154825431Y-96756267D01*
X154729261Y-96962502D01*
X154729258Y-96962511D01*
X154670366Y-97182302D01*
X154670364Y-97182313D01*
X154650532Y-97408998D01*
X154650532Y-97409001D01*
X154670364Y-97635686D01*
X154670366Y-97635697D01*
X154729258Y-97855488D01*
X154729261Y-97855497D01*
X154825431Y-98061732D01*
X154825432Y-98061734D01*
X154955954Y-98248141D01*
X155116858Y-98409045D01*
X155116861Y-98409047D01*
X155303266Y-98539568D01*
X155361275Y-98566618D01*
X155413714Y-98612791D01*
X155432866Y-98679984D01*
X155412650Y-98746865D01*
X155361275Y-98791382D01*
X155303267Y-98818431D01*
X155303265Y-98818432D01*
X155116858Y-98948954D01*
X154955954Y-99109858D01*
X154825432Y-99296265D01*
X154825431Y-99296267D01*
X154729261Y-99502502D01*
X154729258Y-99502511D01*
X154670366Y-99722302D01*
X154670364Y-99722313D01*
X154650532Y-99948998D01*
X154650532Y-99949001D01*
X154670364Y-100175686D01*
X154670366Y-100175697D01*
X154729258Y-100395488D01*
X154729261Y-100395497D01*
X154825431Y-100601732D01*
X154825432Y-100601734D01*
X154955954Y-100788141D01*
X155116858Y-100949045D01*
X155116861Y-100949047D01*
X155303266Y-101079568D01*
X155361275Y-101106618D01*
X155413714Y-101152791D01*
X155432866Y-101219984D01*
X155412650Y-101286865D01*
X155361275Y-101331382D01*
X155303267Y-101358431D01*
X155303265Y-101358432D01*
X155116858Y-101488954D01*
X154955954Y-101649858D01*
X154825432Y-101836265D01*
X154825431Y-101836267D01*
X154729261Y-102042502D01*
X154729258Y-102042511D01*
X154670366Y-102262302D01*
X154670364Y-102262313D01*
X154650532Y-102488998D01*
X154650532Y-102489001D01*
X154670364Y-102715686D01*
X154670366Y-102715697D01*
X154729258Y-102935488D01*
X154729261Y-102935497D01*
X154825431Y-103141732D01*
X154825432Y-103141734D01*
X154955954Y-103328141D01*
X155116858Y-103489045D01*
X155116861Y-103489047D01*
X155303266Y-103619568D01*
X155361275Y-103646618D01*
X155413714Y-103692791D01*
X155432866Y-103759984D01*
X155412650Y-103826865D01*
X155361275Y-103871382D01*
X155303267Y-103898431D01*
X155303265Y-103898432D01*
X155116858Y-104028954D01*
X154955954Y-104189858D01*
X154825432Y-104376265D01*
X154825431Y-104376267D01*
X154729261Y-104582502D01*
X154729258Y-104582511D01*
X154670366Y-104802302D01*
X154670364Y-104802313D01*
X154650532Y-105028998D01*
X154650532Y-105029001D01*
X154670364Y-105255686D01*
X154670366Y-105255697D01*
X154729258Y-105475488D01*
X154729261Y-105475497D01*
X154825431Y-105681732D01*
X154825432Y-105681734D01*
X154955954Y-105868141D01*
X155116858Y-106029045D01*
X155116861Y-106029047D01*
X155303266Y-106159568D01*
X155361275Y-106186618D01*
X155413714Y-106232791D01*
X155432866Y-106299984D01*
X155412650Y-106366865D01*
X155361275Y-106411381D01*
X155353788Y-106414873D01*
X155303267Y-106438431D01*
X155303265Y-106438432D01*
X155116858Y-106568954D01*
X154955954Y-106729858D01*
X154825432Y-106916265D01*
X154825431Y-106916267D01*
X154729261Y-107122502D01*
X154729258Y-107122511D01*
X154670366Y-107342302D01*
X154670364Y-107342313D01*
X154650532Y-107568998D01*
X154650532Y-107569001D01*
X154670364Y-107795686D01*
X154670366Y-107795697D01*
X154729258Y-108015488D01*
X154729261Y-108015497D01*
X154825431Y-108221732D01*
X154825432Y-108221734D01*
X154955954Y-108408141D01*
X155116858Y-108569045D01*
X155116861Y-108569047D01*
X155303266Y-108699568D01*
X155361275Y-108726618D01*
X155413714Y-108772791D01*
X155432866Y-108839984D01*
X155412650Y-108906865D01*
X155361275Y-108951382D01*
X155303267Y-108978431D01*
X155303265Y-108978432D01*
X155116858Y-109108954D01*
X154955954Y-109269858D01*
X154825432Y-109456265D01*
X154825431Y-109456267D01*
X154729261Y-109662502D01*
X154729258Y-109662511D01*
X154670366Y-109882302D01*
X154670364Y-109882313D01*
X154650532Y-110108998D01*
X154650532Y-110109001D01*
X154670364Y-110335686D01*
X154670366Y-110335697D01*
X154729258Y-110555488D01*
X154729261Y-110555497D01*
X154825431Y-110761732D01*
X154825432Y-110761734D01*
X154955954Y-110948141D01*
X155116858Y-111109045D01*
X155116861Y-111109047D01*
X155303266Y-111239568D01*
X155361275Y-111266618D01*
X155413714Y-111312791D01*
X155432866Y-111379984D01*
X155412650Y-111446865D01*
X155361275Y-111491382D01*
X155303267Y-111518431D01*
X155303265Y-111518432D01*
X155116858Y-111648954D01*
X154955954Y-111809858D01*
X154825432Y-111996265D01*
X154825431Y-111996267D01*
X154729261Y-112202502D01*
X154729258Y-112202511D01*
X154670366Y-112422302D01*
X154670364Y-112422313D01*
X154650532Y-112648998D01*
X154650532Y-112649001D01*
X144643500Y-112649001D01*
X144643500Y-104222742D01*
X144645224Y-104207122D01*
X144644939Y-104207095D01*
X144645673Y-104199333D01*
X144643531Y-104131139D01*
X144643500Y-104129192D01*
X144643500Y-104100656D01*
X144643500Y-104100650D01*
X144642631Y-104093779D01*
X144642173Y-104087952D01*
X144640710Y-104041373D01*
X144635119Y-104022130D01*
X144631173Y-104003078D01*
X144628664Y-103983208D01*
X144611504Y-103939867D01*
X144609624Y-103934379D01*
X144596618Y-103889610D01*
X144593397Y-103884164D01*
X144586423Y-103872371D01*
X144577861Y-103854894D01*
X144570487Y-103836270D01*
X144570486Y-103836268D01*
X144543079Y-103798545D01*
X144539888Y-103793686D01*
X144538648Y-103791590D01*
X144523975Y-103766777D01*
X144516172Y-103753583D01*
X144516165Y-103753574D01*
X144502006Y-103739415D01*
X144489368Y-103724619D01*
X144477594Y-103708413D01*
X144458775Y-103692845D01*
X144441688Y-103678709D01*
X144437376Y-103674786D01*
X142867803Y-102105212D01*
X142857980Y-102092950D01*
X142857759Y-102093134D01*
X142852786Y-102087122D01*
X142803066Y-102040432D01*
X142801666Y-102039075D01*
X142781476Y-102018884D01*
X142775986Y-102014625D01*
X142771561Y-102010847D01*
X142737582Y-101978938D01*
X142737580Y-101978936D01*
X142737577Y-101978935D01*
X142720029Y-101969288D01*
X142703763Y-101958604D01*
X142687933Y-101946325D01*
X142645168Y-101927818D01*
X142639922Y-101925248D01*
X142599093Y-101902803D01*
X142599092Y-101902802D01*
X142579693Y-101897822D01*
X142561281Y-101891518D01*
X142542898Y-101883562D01*
X142542892Y-101883560D01*
X142496874Y-101876272D01*
X142491152Y-101875087D01*
X142446021Y-101863500D01*
X142446019Y-101863500D01*
X142425984Y-101863500D01*
X142406586Y-101861973D01*
X142399162Y-101860797D01*
X142386805Y-101858840D01*
X142386804Y-101858840D01*
X142340416Y-101863225D01*
X142334578Y-101863500D01*
X141930188Y-101863500D01*
X141863149Y-101843815D01*
X141828613Y-101810623D01*
X141716045Y-101649858D01*
X141555141Y-101488954D01*
X141368734Y-101358432D01*
X141368728Y-101358429D01*
X141310725Y-101331382D01*
X141258285Y-101285210D01*
X141239133Y-101218017D01*
X141259348Y-101151135D01*
X141310725Y-101106618D01*
X141368734Y-101079568D01*
X141555139Y-100949047D01*
X141716047Y-100788139D01*
X141846568Y-100601734D01*
X141942739Y-100395496D01*
X142001635Y-100175692D01*
X142021468Y-99949000D01*
X142001635Y-99722308D01*
X141942739Y-99502504D01*
X141846568Y-99296266D01*
X141716047Y-99109861D01*
X141716045Y-99109858D01*
X141555141Y-98948954D01*
X141368734Y-98818432D01*
X141368728Y-98818429D01*
X141310725Y-98791382D01*
X141258285Y-98745210D01*
X141239133Y-98678017D01*
X141259348Y-98611135D01*
X141310725Y-98566618D01*
X141368734Y-98539568D01*
X141555139Y-98409047D01*
X141716047Y-98248139D01*
X141846568Y-98061734D01*
X141942739Y-97855496D01*
X142001635Y-97635692D01*
X142021468Y-97409000D01*
X142001635Y-97182308D01*
X141942739Y-96962504D01*
X141846568Y-96756266D01*
X141716047Y-96569861D01*
X141716045Y-96569858D01*
X141555141Y-96408954D01*
X141368734Y-96278432D01*
X141368728Y-96278429D01*
X141310725Y-96251382D01*
X141258285Y-96205210D01*
X141239133Y-96138017D01*
X141259348Y-96071135D01*
X141310725Y-96026618D01*
X141368734Y-95999568D01*
X141555139Y-95869047D01*
X141716047Y-95708139D01*
X141846568Y-95521734D01*
X141942739Y-95315496D01*
X142001635Y-95095692D01*
X142021468Y-94869000D01*
X142001635Y-94642308D01*
X141942739Y-94422504D01*
X141846568Y-94216266D01*
X141716047Y-94029861D01*
X141716045Y-94029858D01*
X141555141Y-93868954D01*
X141368734Y-93738432D01*
X141368728Y-93738429D01*
X141310725Y-93711382D01*
X141258285Y-93665210D01*
X141239133Y-93598017D01*
X141259348Y-93531135D01*
X141310725Y-93486618D01*
X141368734Y-93459568D01*
X141555139Y-93329047D01*
X141716047Y-93168139D01*
X141846568Y-92981734D01*
X141942739Y-92775496D01*
X142001635Y-92555692D01*
X142021468Y-92329000D01*
X142001635Y-92102308D01*
X141942739Y-91882504D01*
X141846568Y-91676266D01*
X141716047Y-91489861D01*
X141716045Y-91489858D01*
X141555141Y-91328954D01*
X141368734Y-91198432D01*
X141368728Y-91198429D01*
X141310725Y-91171382D01*
X141258285Y-91125210D01*
X141239133Y-91058017D01*
X141259348Y-90991135D01*
X141310725Y-90946618D01*
X141368734Y-90919568D01*
X141555139Y-90789047D01*
X141716047Y-90628139D01*
X141846568Y-90441734D01*
X141942739Y-90235496D01*
X142001635Y-90015692D01*
X142021468Y-89789000D01*
X142001635Y-89562308D01*
X141942739Y-89342504D01*
X141846568Y-89136266D01*
X141716047Y-88949861D01*
X141716045Y-88949858D01*
X141555141Y-88788954D01*
X141368734Y-88658432D01*
X141368728Y-88658429D01*
X141310725Y-88631382D01*
X141258285Y-88585210D01*
X141239133Y-88518017D01*
X141259348Y-88451135D01*
X141310725Y-88406618D01*
X141368734Y-88379568D01*
X141555139Y-88249047D01*
X141716047Y-88088139D01*
X141846568Y-87901734D01*
X141942739Y-87695496D01*
X142001635Y-87475692D01*
X142021468Y-87249000D01*
X142001635Y-87022308D01*
X141947029Y-86818515D01*
X141942741Y-86802511D01*
X141942738Y-86802502D01*
X141925115Y-86764709D01*
X141846568Y-86596266D01*
X141716047Y-86409861D01*
X141716045Y-86409858D01*
X141555141Y-86248954D01*
X141368734Y-86118432D01*
X141368732Y-86118431D01*
X141310725Y-86091382D01*
X141310132Y-86091105D01*
X141257694Y-86044934D01*
X141238542Y-85977740D01*
X141258758Y-85910859D01*
X141310134Y-85866341D01*
X141368484Y-85839132D01*
X141554820Y-85708657D01*
X141715657Y-85547820D01*
X141846134Y-85361482D01*
X141942265Y-85155326D01*
X141942269Y-85155317D01*
X141994872Y-84959000D01*
X141149686Y-84959000D01*
X141175493Y-84918844D01*
X141216000Y-84780889D01*
X141216000Y-84637111D01*
X141175493Y-84499156D01*
X141149686Y-84459000D01*
X141994872Y-84459000D01*
X141994872Y-84458999D01*
X141942269Y-84262682D01*
X141942265Y-84262673D01*
X141846134Y-84056517D01*
X141715657Y-83870179D01*
X141554820Y-83709342D01*
X141368482Y-83578865D01*
X141310133Y-83551657D01*
X141257694Y-83505484D01*
X141238542Y-83438291D01*
X141258758Y-83371410D01*
X141310129Y-83326895D01*
X141368734Y-83299568D01*
X141555139Y-83169047D01*
X141716047Y-83008139D01*
X141846568Y-82821734D01*
X141942739Y-82615496D01*
X142001635Y-82395692D01*
X142021468Y-82169000D01*
X142001635Y-81942308D01*
X141942739Y-81722504D01*
X141846568Y-81516266D01*
X141716047Y-81329861D01*
X141716045Y-81329858D01*
X141555141Y-81168954D01*
X141368734Y-81038432D01*
X141368728Y-81038429D01*
X141310725Y-81011382D01*
X141258285Y-80965210D01*
X141239133Y-80898017D01*
X141259348Y-80831135D01*
X141310725Y-80786618D01*
X141311319Y-80786341D01*
X141368734Y-80759568D01*
X141555139Y-80629047D01*
X141716047Y-80468139D01*
X141846568Y-80281734D01*
X141942739Y-80075496D01*
X142001635Y-79855692D01*
X142021468Y-79629000D01*
X142001635Y-79402308D01*
X141942739Y-79182504D01*
X141846568Y-78976266D01*
X141716047Y-78789861D01*
X141716045Y-78789858D01*
X141555143Y-78628956D01*
X141530536Y-78611726D01*
X141486912Y-78557149D01*
X141479719Y-78487650D01*
X141511241Y-78425296D01*
X141571471Y-78389882D01*
X141588404Y-78386861D01*
X141623483Y-78383091D01*
X141758331Y-78332796D01*
X141873546Y-78246546D01*
X141959796Y-78131331D01*
X142010091Y-77996483D01*
X142016500Y-77936873D01*
X142016499Y-76241128D01*
X142010091Y-76181517D01*
X141975567Y-76088954D01*
X141959797Y-76046671D01*
X141959793Y-76046664D01*
X141873547Y-75931455D01*
X141873544Y-75931452D01*
X141758335Y-75845206D01*
X141758328Y-75845202D01*
X141623482Y-75794908D01*
X141623483Y-75794908D01*
X141563883Y-75788501D01*
X141563881Y-75788500D01*
X141563873Y-75788500D01*
X141563864Y-75788500D01*
X139868129Y-75788500D01*
X139868123Y-75788501D01*
X139808516Y-75794908D01*
X139673671Y-75845202D01*
X139673664Y-75845206D01*
X139558455Y-75931452D01*
X139558452Y-75931455D01*
X139472206Y-76046664D01*
X139472202Y-76046671D01*
X139421908Y-76181517D01*
X139418426Y-76213909D01*
X139415501Y-76241123D01*
X139415500Y-76241135D01*
X139415500Y-77936870D01*
X139415501Y-77936876D01*
X139421908Y-77996483D01*
X139472202Y-78131328D01*
X139472206Y-78131335D01*
X139558452Y-78246544D01*
X139558455Y-78246547D01*
X139673664Y-78332793D01*
X139673671Y-78332797D01*
X139718618Y-78349560D01*
X139808517Y-78383091D01*
X139843596Y-78386862D01*
X139908144Y-78413599D01*
X139947993Y-78470991D01*
X139950488Y-78540816D01*
X139914836Y-78600905D01*
X139901464Y-78611725D01*
X139876858Y-78628954D01*
X139715954Y-78789858D01*
X139585432Y-78976265D01*
X139585431Y-78976267D01*
X139489261Y-79182502D01*
X139489258Y-79182511D01*
X139430366Y-79402302D01*
X139430364Y-79402313D01*
X139410532Y-79628998D01*
X139410532Y-79629001D01*
X139430364Y-79855686D01*
X139430366Y-79855697D01*
X139489258Y-80075488D01*
X139489261Y-80075497D01*
X139585431Y-80281732D01*
X139585432Y-80281734D01*
X139715954Y-80468141D01*
X139876858Y-80629045D01*
X139876861Y-80629047D01*
X140063266Y-80759568D01*
X140120681Y-80786341D01*
X140121275Y-80786618D01*
X140173714Y-80832791D01*
X140192866Y-80899984D01*
X140172650Y-80966865D01*
X140121275Y-81011382D01*
X140063267Y-81038431D01*
X140063265Y-81038432D01*
X139876858Y-81168954D01*
X139715954Y-81329858D01*
X139585432Y-81516265D01*
X139585431Y-81516267D01*
X139489261Y-81722502D01*
X139489258Y-81722511D01*
X139430366Y-81942302D01*
X139430364Y-81942313D01*
X139410532Y-82168998D01*
X139410532Y-82169001D01*
X139430364Y-82395686D01*
X139430366Y-82395697D01*
X139489258Y-82615488D01*
X139489261Y-82615497D01*
X139585431Y-82821732D01*
X139585432Y-82821734D01*
X139715954Y-83008141D01*
X139876858Y-83169045D01*
X139876861Y-83169047D01*
X140063266Y-83299568D01*
X140121865Y-83326893D01*
X140174305Y-83373065D01*
X140193457Y-83440258D01*
X140173242Y-83507139D01*
X140121867Y-83551657D01*
X140063515Y-83578867D01*
X139877179Y-83709342D01*
X139716342Y-83870179D01*
X139585865Y-84056517D01*
X139489734Y-84262673D01*
X139489730Y-84262682D01*
X139437127Y-84458999D01*
X139437128Y-84459000D01*
X140282314Y-84459000D01*
X140256507Y-84499156D01*
X140216000Y-84637111D01*
X140216000Y-84780889D01*
X140256507Y-84918844D01*
X140282314Y-84959000D01*
X139437128Y-84959000D01*
X139489730Y-85155317D01*
X139489734Y-85155326D01*
X139585865Y-85361482D01*
X139716342Y-85547820D01*
X139877179Y-85708657D01*
X140063518Y-85839134D01*
X140063520Y-85839135D01*
X140121865Y-85866342D01*
X140174305Y-85912514D01*
X140193457Y-85979707D01*
X140173242Y-86046589D01*
X140121867Y-86091105D01*
X140063268Y-86118431D01*
X140063264Y-86118433D01*
X139876858Y-86248954D01*
X139715954Y-86409858D01*
X139585432Y-86596265D01*
X139585431Y-86596267D01*
X139489261Y-86802502D01*
X139489258Y-86802511D01*
X139430366Y-87022302D01*
X139430364Y-87022313D01*
X139410532Y-87248998D01*
X139410532Y-87249001D01*
X139430364Y-87475686D01*
X139430366Y-87475697D01*
X139489258Y-87695488D01*
X139489261Y-87695497D01*
X139585431Y-87901732D01*
X139585432Y-87901734D01*
X139715954Y-88088141D01*
X139876858Y-88249045D01*
X139876861Y-88249047D01*
X140063266Y-88379568D01*
X140121275Y-88406618D01*
X140173714Y-88452791D01*
X140192866Y-88519984D01*
X140172650Y-88586865D01*
X140121275Y-88631382D01*
X140063267Y-88658431D01*
X140063265Y-88658432D01*
X139876858Y-88788954D01*
X139715954Y-88949858D01*
X139585432Y-89136265D01*
X139585431Y-89136267D01*
X139489261Y-89342502D01*
X139489258Y-89342511D01*
X139430366Y-89562302D01*
X139430364Y-89562313D01*
X139410532Y-89788998D01*
X139410532Y-89789001D01*
X139430364Y-90015686D01*
X139430366Y-90015697D01*
X139489258Y-90235488D01*
X139489261Y-90235497D01*
X139585431Y-90441732D01*
X139585432Y-90441734D01*
X139715954Y-90628141D01*
X139876858Y-90789045D01*
X139876861Y-90789047D01*
X140063266Y-90919568D01*
X140121275Y-90946618D01*
X140173714Y-90992791D01*
X140192866Y-91059984D01*
X140172650Y-91126865D01*
X140121275Y-91171382D01*
X140063267Y-91198431D01*
X140063265Y-91198432D01*
X139876858Y-91328954D01*
X139715954Y-91489858D01*
X139585432Y-91676265D01*
X139585431Y-91676267D01*
X139489261Y-91882502D01*
X139489258Y-91882511D01*
X139430366Y-92102302D01*
X139430364Y-92102313D01*
X139410532Y-92328998D01*
X139410532Y-92329001D01*
X139430364Y-92555686D01*
X139430366Y-92555697D01*
X139489258Y-92775488D01*
X139489261Y-92775497D01*
X139585431Y-92981732D01*
X139585432Y-92981734D01*
X139715954Y-93168141D01*
X139876858Y-93329045D01*
X139876861Y-93329047D01*
X140063266Y-93459568D01*
X140121275Y-93486618D01*
X140173714Y-93532791D01*
X140192866Y-93599984D01*
X140172650Y-93666865D01*
X140121275Y-93711382D01*
X140063267Y-93738431D01*
X140063265Y-93738432D01*
X139876858Y-93868954D01*
X139715954Y-94029858D01*
X139585432Y-94216265D01*
X139585431Y-94216267D01*
X139489261Y-94422502D01*
X139489258Y-94422511D01*
X139430366Y-94642302D01*
X139430364Y-94642313D01*
X139410532Y-94868998D01*
X139410532Y-94869001D01*
X139430364Y-95095686D01*
X139430366Y-95095697D01*
X139489258Y-95315488D01*
X139489261Y-95315497D01*
X139585431Y-95521732D01*
X139585432Y-95521734D01*
X139715954Y-95708141D01*
X139876858Y-95869045D01*
X139876861Y-95869047D01*
X140063266Y-95999568D01*
X140121275Y-96026618D01*
X140173714Y-96072791D01*
X140192866Y-96139984D01*
X140172650Y-96206865D01*
X140121275Y-96251382D01*
X140063267Y-96278431D01*
X140063265Y-96278432D01*
X139876858Y-96408954D01*
X139715954Y-96569858D01*
X139585432Y-96756265D01*
X139585431Y-96756267D01*
X139489261Y-96962502D01*
X139489258Y-96962511D01*
X139430366Y-97182302D01*
X139430364Y-97182313D01*
X139410532Y-97408998D01*
X139410532Y-97409001D01*
X139430364Y-97635686D01*
X139430366Y-97635697D01*
X139489258Y-97855488D01*
X139489261Y-97855497D01*
X139585431Y-98061732D01*
X139585432Y-98061734D01*
X139715954Y-98248141D01*
X139876858Y-98409045D01*
X139876861Y-98409047D01*
X140063266Y-98539568D01*
X140121275Y-98566618D01*
X140173714Y-98612791D01*
X140192866Y-98679984D01*
X140172650Y-98746865D01*
X140121275Y-98791382D01*
X140063267Y-98818431D01*
X140063265Y-98818432D01*
X139876858Y-98948954D01*
X139715954Y-99109858D01*
X139585432Y-99296265D01*
X139585431Y-99296267D01*
X139489261Y-99502502D01*
X139489258Y-99502511D01*
X139430366Y-99722302D01*
X139430364Y-99722313D01*
X139410532Y-99948998D01*
X139410532Y-99949001D01*
X139430364Y-100175686D01*
X139430366Y-100175697D01*
X139489258Y-100395488D01*
X139489261Y-100395497D01*
X139585431Y-100601732D01*
X139585432Y-100601734D01*
X139715954Y-100788141D01*
X139876858Y-100949045D01*
X139876861Y-100949047D01*
X140063266Y-101079568D01*
X140121275Y-101106618D01*
X140173714Y-101152791D01*
X140192866Y-101219984D01*
X140172650Y-101286865D01*
X140121275Y-101331382D01*
X140063267Y-101358431D01*
X140063265Y-101358432D01*
X139876858Y-101488954D01*
X139715954Y-101649858D01*
X139585432Y-101836265D01*
X139585431Y-101836267D01*
X139489261Y-102042502D01*
X139489258Y-102042511D01*
X139430366Y-102262302D01*
X139430364Y-102262313D01*
X139410532Y-102488998D01*
X139410532Y-102489001D01*
X139430364Y-102715686D01*
X139430366Y-102715697D01*
X139489258Y-102935488D01*
X139489261Y-102935497D01*
X139585431Y-103141732D01*
X139585432Y-103141734D01*
X139715954Y-103328141D01*
X139876858Y-103489045D01*
X139876861Y-103489047D01*
X140063266Y-103619568D01*
X140121275Y-103646618D01*
X140173714Y-103692791D01*
X140192866Y-103759984D01*
X140172650Y-103826865D01*
X140121275Y-103871382D01*
X140063267Y-103898431D01*
X140063265Y-103898432D01*
X139876858Y-104028954D01*
X139715954Y-104189858D01*
X139585432Y-104376265D01*
X139585431Y-104376267D01*
X139489261Y-104582502D01*
X139489258Y-104582511D01*
X139430366Y-104802302D01*
X139430364Y-104802313D01*
X139410532Y-105028998D01*
X139410532Y-105029001D01*
X139430364Y-105255686D01*
X139430366Y-105255697D01*
X139489258Y-105475488D01*
X139489261Y-105475497D01*
X139585431Y-105681732D01*
X139585432Y-105681734D01*
X139715954Y-105868141D01*
X139876858Y-106029045D01*
X140045046Y-106146810D01*
X140063266Y-106159568D01*
X140121278Y-106186619D01*
X140173713Y-106232788D01*
X140192866Y-106299982D01*
X140172651Y-106366863D01*
X140121277Y-106411380D01*
X140063268Y-106438430D01*
X140063265Y-106438432D01*
X139876858Y-106568954D01*
X139715954Y-106729858D01*
X139585432Y-106916265D01*
X139585431Y-106916267D01*
X139489261Y-107122502D01*
X139489258Y-107122511D01*
X139430366Y-107342302D01*
X139430364Y-107342313D01*
X139410532Y-107568998D01*
X139410532Y-107569001D01*
X139430364Y-107795686D01*
X139430366Y-107795697D01*
X139489258Y-108015488D01*
X139489261Y-108015497D01*
X139585431Y-108221732D01*
X139585432Y-108221734D01*
X139715954Y-108408141D01*
X139876858Y-108569045D01*
X139945346Y-108617000D01*
X140063266Y-108699568D01*
X140121278Y-108726619D01*
X140173713Y-108772788D01*
X140192866Y-108839982D01*
X140172651Y-108906863D01*
X140121277Y-108951380D01*
X140063268Y-108978430D01*
X140063265Y-108978432D01*
X139876858Y-109108954D01*
X139715954Y-109269858D01*
X139585432Y-109456265D01*
X139585431Y-109456267D01*
X139489261Y-109662502D01*
X139489258Y-109662511D01*
X139430366Y-109882302D01*
X139430364Y-109882313D01*
X139410532Y-110108998D01*
X139410532Y-110109001D01*
X139430364Y-110335686D01*
X139430366Y-110335697D01*
X139489258Y-110555488D01*
X139489261Y-110555497D01*
X139585431Y-110761732D01*
X139585432Y-110761734D01*
X139715954Y-110948141D01*
X139876858Y-111109045D01*
X139876861Y-111109047D01*
X140063266Y-111239568D01*
X140121278Y-111266619D01*
X140173713Y-111312788D01*
X140192866Y-111379982D01*
X140172651Y-111446863D01*
X140121277Y-111491380D01*
X140063268Y-111518430D01*
X140063265Y-111518432D01*
X139876858Y-111648954D01*
X139715954Y-111809858D01*
X139585432Y-111996265D01*
X139585431Y-111996267D01*
X139489261Y-112202502D01*
X139489258Y-112202511D01*
X139430366Y-112422302D01*
X139430364Y-112422313D01*
X139410532Y-112648998D01*
X139410532Y-112649001D01*
X137160000Y-112649001D01*
X137160000Y-33144000D01*
X137179685Y-33076961D01*
X137232489Y-33031206D01*
X137284000Y-33020000D01*
X196218000Y-33020000D01*
X196285039Y-33039685D01*
G37*
G04 #@! TD.AperFunction*
M02*
