G04 #@! TF.GenerationSoftware,KiCad,Pcbnew,7.0.5*
G04 #@! TF.CreationDate,2023-06-25T17:44:05+02:00*
G04 #@! TF.ProjectId,test,74657374-2e6b-4696-9361-645f70636258,rev?*
G04 #@! TF.SameCoordinates,Original*
G04 #@! TF.FileFunction,Copper,L2,Bot*
G04 #@! TF.FilePolarity,Positive*
%FSLAX46Y46*%
G04 Gerber Fmt 4.6, Leading zero omitted, Abs format (unit mm)*
G04 Created by KiCad (PCBNEW 7.0.5) date 2023-06-25 17:44:05*
%MOMM*%
%LPD*%
G01*
G04 APERTURE LIST*
G04 Aperture macros list*
%AMRoundRect*
0 Rectangle with rounded corners*
0 $1 Rounding radius*
0 $2 $3 $4 $5 $6 $7 $8 $9 X,Y pos of 4 corners*
0 Add a 4 corners polygon primitive as box body*
4,1,4,$2,$3,$4,$5,$6,$7,$8,$9,$2,$3,0*
0 Add four circle primitives for the rounded corners*
1,1,$1+$1,$2,$3*
1,1,$1+$1,$4,$5*
1,1,$1+$1,$6,$7*
1,1,$1+$1,$8,$9*
0 Add four rect primitives between the rounded corners*
20,1,$1+$1,$2,$3,$4,$5,0*
20,1,$1+$1,$4,$5,$6,$7,0*
20,1,$1+$1,$6,$7,$8,$9,0*
20,1,$1+$1,$8,$9,$2,$3,0*%
G04 Aperture macros list end*
G04 #@! TA.AperFunction,ComponentPad*
%ADD10C,2.000000*%
G04 #@! TD*
G04 #@! TA.AperFunction,ComponentPad*
%ADD11R,1.600000X1.600000*%
G04 #@! TD*
G04 #@! TA.AperFunction,ComponentPad*
%ADD12O,1.600000X1.600000*%
G04 #@! TD*
G04 #@! TA.AperFunction,ComponentPad*
%ADD13R,1.700000X1.700000*%
G04 #@! TD*
G04 #@! TA.AperFunction,ComponentPad*
%ADD14O,1.700000X1.700000*%
G04 #@! TD*
G04 #@! TA.AperFunction,ComponentPad*
%ADD15R,3.500000X3.500000*%
G04 #@! TD*
G04 #@! TA.AperFunction,ComponentPad*
%ADD16RoundRect,0.750000X1.000000X-0.750000X1.000000X0.750000X-1.000000X0.750000X-1.000000X-0.750000X0*%
G04 #@! TD*
G04 #@! TA.AperFunction,ComponentPad*
%ADD17RoundRect,0.875000X0.875000X-0.875000X0.875000X0.875000X-0.875000X0.875000X-0.875000X-0.875000X0*%
G04 #@! TD*
G04 #@! TA.AperFunction,ComponentPad*
%ADD18C,1.600000*%
G04 #@! TD*
G04 #@! TA.AperFunction,ComponentPad*
%ADD19C,1.524000*%
G04 #@! TD*
G04 #@! TA.AperFunction,Conductor*
%ADD20C,0.250000*%
G04 #@! TD*
G04 APERTURE END LIST*
D10*
X171502000Y-97191000D03*
X178002000Y-97191000D03*
X171502000Y-101691000D03*
X178002000Y-101691000D03*
D11*
X140716000Y-77089000D03*
D12*
X140716000Y-79629000D03*
X140716000Y-82169000D03*
X140716000Y-84709000D03*
X140716000Y-87249000D03*
X140716000Y-89789000D03*
X140716000Y-92329000D03*
X140716000Y-94869000D03*
X140716000Y-97409000D03*
X140716000Y-99949000D03*
X140716000Y-102489000D03*
X140716000Y-105029000D03*
X140716000Y-107569000D03*
X140716000Y-110109000D03*
X140716000Y-112649000D03*
X155956000Y-112649000D03*
X155956000Y-110109000D03*
X155956000Y-107569000D03*
X155956000Y-105029000D03*
X155956000Y-102489000D03*
X155956000Y-99949000D03*
X155956000Y-97409000D03*
X155956000Y-94869000D03*
X155956000Y-92329000D03*
X155956000Y-89789000D03*
X155956000Y-87249000D03*
X155956000Y-84709000D03*
X155956000Y-82169000D03*
X155956000Y-79629000D03*
X155956000Y-77089000D03*
D13*
X179070000Y-111379000D03*
D14*
X179070000Y-113919000D03*
X179070000Y-116459000D03*
D15*
X188526500Y-104617000D03*
D16*
X188526500Y-110617000D03*
D17*
X193226500Y-107617000D03*
D18*
X183134000Y-99949000D03*
D12*
X193294000Y-99949000D03*
X172212000Y-117094000D03*
D18*
X172212000Y-106934000D03*
D19*
X189230000Y-85725000D03*
X189230000Y-83185000D03*
X189230000Y-80645000D03*
X189230000Y-78105000D03*
X189230000Y-75565000D03*
X189230000Y-73025000D03*
X189230000Y-70485000D03*
D10*
X160632000Y-97191000D03*
X167132000Y-97191000D03*
X160632000Y-101691000D03*
X167132000Y-101691000D03*
D19*
X186436000Y-52197000D03*
X186436000Y-49657000D03*
X186436000Y-47117000D03*
X186436000Y-44577000D03*
D12*
X163322000Y-117221000D03*
D18*
X163322000Y-107061000D03*
D20*
X145982396Y-117660000D02*
X143452000Y-115129604D01*
X143452000Y-115129604D02*
X143452000Y-102685000D01*
X163322000Y-112139604D02*
X157801604Y-117660000D01*
X157801604Y-117660000D02*
X145982396Y-117660000D01*
X163322000Y-107061000D02*
X163322000Y-112139604D01*
X143452000Y-102685000D02*
X140716000Y-99949000D01*
X143002000Y-115316000D02*
X143002000Y-105664000D01*
X145796000Y-118110000D02*
X143002000Y-115316000D01*
X162179000Y-113919000D02*
X157988000Y-118110000D01*
X157988000Y-118110000D02*
X145796000Y-118110000D01*
X143002000Y-105664000D02*
X142367000Y-105029000D01*
X179070000Y-113919000D02*
X162179000Y-113919000D01*
X142367000Y-105029000D02*
X140716000Y-105029000D01*
X172212000Y-102401000D02*
X171502000Y-101691000D01*
X172212000Y-106934000D02*
X172212000Y-102401000D01*
X178002000Y-101691000D02*
X171502000Y-101691000D01*
X167132000Y-101691000D02*
X160632000Y-101691000D01*
X163322000Y-107061000D02*
X163322000Y-104381000D01*
X163322000Y-104381000D02*
X160632000Y-101691000D01*
X153797000Y-94869000D02*
X155956000Y-94869000D01*
X151892000Y-92964000D02*
X153797000Y-94869000D01*
X151892000Y-75692000D02*
X151892000Y-92964000D01*
X153924000Y-73660000D02*
X151892000Y-75692000D01*
X161036000Y-73660000D02*
X153924000Y-73660000D01*
X165481000Y-78105000D02*
X161036000Y-73660000D01*
X189230000Y-78105000D02*
X165481000Y-78105000D01*
X157099000Y-92329000D02*
X155956000Y-92329000D01*
X168783000Y-80645000D02*
X157099000Y-92329000D01*
X189230000Y-80645000D02*
X168783000Y-80645000D01*
X144526000Y-83439000D02*
X140716000Y-87249000D01*
X144526000Y-72898000D02*
X144526000Y-83439000D01*
X172847000Y-44577000D02*
X144526000Y-72898000D01*
X186436000Y-44577000D02*
X172847000Y-44577000D01*
X144976000Y-73084396D02*
X144976000Y-85529000D01*
X170943396Y-47117000D02*
X144976000Y-73084396D01*
X144976000Y-85529000D02*
X140716000Y-89789000D01*
X186436000Y-47117000D02*
X170943396Y-47117000D01*
G04 #@! TA.AperFunction,Conductor*
G36*
X160792587Y-74305185D02*
G01*
X160813229Y-74321819D01*
X164980197Y-78488788D01*
X164990022Y-78501051D01*
X164990243Y-78500869D01*
X164995211Y-78506874D01*
X165044932Y-78553566D01*
X165046332Y-78554923D01*
X165066523Y-78575115D01*
X165066527Y-78575118D01*
X165066529Y-78575120D01*
X165072011Y-78579373D01*
X165076443Y-78583157D01*
X165110418Y-78615062D01*
X165127976Y-78624714D01*
X165144235Y-78635395D01*
X165160064Y-78647673D01*
X165202838Y-78666182D01*
X165208056Y-78668738D01*
X165248908Y-78691197D01*
X165268316Y-78696180D01*
X165286717Y-78702480D01*
X165305104Y-78710437D01*
X165348488Y-78717308D01*
X165351119Y-78717725D01*
X165356839Y-78718909D01*
X165401981Y-78730500D01*
X165422016Y-78730500D01*
X165441414Y-78732026D01*
X165461194Y-78735159D01*
X165461195Y-78735160D01*
X165461195Y-78735159D01*
X165461196Y-78735160D01*
X165507583Y-78730775D01*
X165513422Y-78730500D01*
X188062200Y-78730500D01*
X188129239Y-78750185D01*
X188163775Y-78783376D01*
X188259174Y-78919620D01*
X188259175Y-78919621D01*
X188415378Y-79075824D01*
X188415384Y-79075829D01*
X188596333Y-79202531D01*
X188596335Y-79202532D01*
X188596338Y-79202534D01*
X188715748Y-79258215D01*
X188725189Y-79262618D01*
X188777628Y-79308790D01*
X188796780Y-79375984D01*
X188776564Y-79442865D01*
X188725189Y-79487382D01*
X188596340Y-79547465D01*
X188596338Y-79547466D01*
X188415377Y-79674175D01*
X188259175Y-79830377D01*
X188163776Y-79966623D01*
X188109199Y-80010248D01*
X188062201Y-80019500D01*
X168865737Y-80019500D01*
X168850120Y-80017776D01*
X168850093Y-80018062D01*
X168842331Y-80017327D01*
X168774171Y-80019469D01*
X168772224Y-80019500D01*
X168743650Y-80019500D01*
X168742929Y-80019590D01*
X168736757Y-80020369D01*
X168730945Y-80020826D01*
X168684373Y-80022290D01*
X168684372Y-80022290D01*
X168665129Y-80027881D01*
X168646079Y-80031825D01*
X168626211Y-80034334D01*
X168626209Y-80034335D01*
X168582884Y-80051488D01*
X168577357Y-80053380D01*
X168532610Y-80066381D01*
X168532609Y-80066382D01*
X168515367Y-80076579D01*
X168497899Y-80085137D01*
X168479269Y-80092513D01*
X168479267Y-80092514D01*
X168441576Y-80119898D01*
X168436694Y-80123105D01*
X168396579Y-80146830D01*
X168382408Y-80161000D01*
X168367623Y-80173628D01*
X168351412Y-80185407D01*
X168321709Y-80221310D01*
X168317777Y-80225631D01*
X157092478Y-91450929D01*
X157031155Y-91484414D01*
X156961463Y-91479430D01*
X156917116Y-91450929D01*
X156795141Y-91328954D01*
X156608734Y-91198432D01*
X156608728Y-91198429D01*
X156550725Y-91171382D01*
X156498285Y-91125210D01*
X156479133Y-91058017D01*
X156499348Y-90991135D01*
X156550725Y-90946618D01*
X156608734Y-90919568D01*
X156795139Y-90789047D01*
X156956047Y-90628139D01*
X157086568Y-90441734D01*
X157182739Y-90235496D01*
X157241635Y-90015692D01*
X157261468Y-89789000D01*
X157241635Y-89562308D01*
X157182739Y-89342504D01*
X157086568Y-89136266D01*
X156956047Y-88949861D01*
X156956045Y-88949858D01*
X156795141Y-88788954D01*
X156608734Y-88658432D01*
X156608728Y-88658429D01*
X156550725Y-88631382D01*
X156498285Y-88585210D01*
X156479133Y-88518017D01*
X156499348Y-88451135D01*
X156550725Y-88406618D01*
X156608734Y-88379568D01*
X156795139Y-88249047D01*
X156956047Y-88088139D01*
X157086568Y-87901734D01*
X157182739Y-87695496D01*
X157241635Y-87475692D01*
X157261468Y-87249000D01*
X157241635Y-87022308D01*
X157182739Y-86802504D01*
X157086568Y-86596266D01*
X156956047Y-86409861D01*
X156956045Y-86409858D01*
X156795141Y-86248954D01*
X156608734Y-86118432D01*
X156608728Y-86118429D01*
X156550725Y-86091382D01*
X156498285Y-86045210D01*
X156479133Y-85978017D01*
X156499348Y-85911135D01*
X156550725Y-85866618D01*
X156552563Y-85865761D01*
X156608734Y-85839568D01*
X156795139Y-85709047D01*
X156956047Y-85548139D01*
X157086568Y-85361734D01*
X157182739Y-85155496D01*
X157241635Y-84935692D01*
X157261468Y-84709000D01*
X157241635Y-84482308D01*
X157182739Y-84262504D01*
X157086568Y-84056266D01*
X156956047Y-83869861D01*
X156956045Y-83869858D01*
X156795141Y-83708954D01*
X156608734Y-83578432D01*
X156608728Y-83578429D01*
X156550725Y-83551382D01*
X156498285Y-83505210D01*
X156479133Y-83438017D01*
X156499348Y-83371135D01*
X156550725Y-83326618D01*
X156608734Y-83299568D01*
X156795139Y-83169047D01*
X156956047Y-83008139D01*
X157086568Y-82821734D01*
X157182739Y-82615496D01*
X157241635Y-82395692D01*
X157261468Y-82169000D01*
X157241635Y-81942308D01*
X157182739Y-81722504D01*
X157086568Y-81516266D01*
X156956047Y-81329861D01*
X156956045Y-81329858D01*
X156795141Y-81168954D01*
X156608734Y-81038432D01*
X156608732Y-81038431D01*
X156550725Y-81011382D01*
X156550132Y-81011105D01*
X156497694Y-80964934D01*
X156478542Y-80897740D01*
X156498758Y-80830859D01*
X156550134Y-80786341D01*
X156608484Y-80759132D01*
X156794820Y-80628657D01*
X156955657Y-80467820D01*
X157086134Y-80281482D01*
X157182265Y-80075326D01*
X157182269Y-80075317D01*
X157234872Y-79879000D01*
X156389686Y-79879000D01*
X156415493Y-79838844D01*
X156456000Y-79700889D01*
X156456000Y-79557111D01*
X156415493Y-79419156D01*
X156389686Y-79379000D01*
X157234872Y-79379000D01*
X157234872Y-79378999D01*
X157182269Y-79182682D01*
X157182265Y-79182673D01*
X157086134Y-78976517D01*
X156955657Y-78790179D01*
X156794820Y-78629342D01*
X156608482Y-78498865D01*
X156550133Y-78471657D01*
X156497694Y-78425484D01*
X156478542Y-78358291D01*
X156498758Y-78291410D01*
X156550129Y-78246895D01*
X156608734Y-78219568D01*
X156795139Y-78089047D01*
X156956047Y-77928139D01*
X157086568Y-77741734D01*
X157182739Y-77535496D01*
X157241635Y-77315692D01*
X157261468Y-77089000D01*
X157241635Y-76862308D01*
X157182739Y-76642504D01*
X157086568Y-76436266D01*
X156956047Y-76249861D01*
X156956045Y-76249858D01*
X156795141Y-76088954D01*
X156608734Y-75958432D01*
X156608732Y-75958431D01*
X156402497Y-75862261D01*
X156402488Y-75862258D01*
X156182697Y-75803366D01*
X156182693Y-75803365D01*
X156182692Y-75803365D01*
X156182691Y-75803364D01*
X156182686Y-75803364D01*
X155956002Y-75783532D01*
X155955998Y-75783532D01*
X155729313Y-75803364D01*
X155729302Y-75803366D01*
X155509511Y-75862258D01*
X155509502Y-75862261D01*
X155303267Y-75958431D01*
X155303265Y-75958432D01*
X155116858Y-76088954D01*
X154955954Y-76249858D01*
X154825432Y-76436265D01*
X154825431Y-76436267D01*
X154729261Y-76642502D01*
X154729258Y-76642511D01*
X154670366Y-76862302D01*
X154670364Y-76862313D01*
X154650532Y-77088998D01*
X154650532Y-77089001D01*
X154670364Y-77315686D01*
X154670366Y-77315697D01*
X154729258Y-77535488D01*
X154729261Y-77535497D01*
X154825431Y-77741732D01*
X154825432Y-77741734D01*
X154955954Y-77928141D01*
X155116858Y-78089045D01*
X155116861Y-78089047D01*
X155303266Y-78219568D01*
X155361865Y-78246893D01*
X155414305Y-78293065D01*
X155433457Y-78360258D01*
X155413242Y-78427139D01*
X155361867Y-78471657D01*
X155303515Y-78498867D01*
X155117179Y-78629342D01*
X154956342Y-78790179D01*
X154825865Y-78976517D01*
X154729734Y-79182673D01*
X154729730Y-79182682D01*
X154677127Y-79378999D01*
X154677128Y-79379000D01*
X155522314Y-79379000D01*
X155496507Y-79419156D01*
X155456000Y-79557111D01*
X155456000Y-79700889D01*
X155496507Y-79838844D01*
X155522314Y-79879000D01*
X154677128Y-79879000D01*
X154729730Y-80075317D01*
X154729734Y-80075326D01*
X154825865Y-80281482D01*
X154956342Y-80467820D01*
X155117179Y-80628657D01*
X155303518Y-80759134D01*
X155303520Y-80759135D01*
X155361865Y-80786342D01*
X155414305Y-80832514D01*
X155433457Y-80899707D01*
X155413242Y-80966589D01*
X155361867Y-81011105D01*
X155303268Y-81038431D01*
X155303264Y-81038433D01*
X155116858Y-81168954D01*
X154955954Y-81329858D01*
X154825432Y-81516265D01*
X154825431Y-81516267D01*
X154729261Y-81722502D01*
X154729258Y-81722511D01*
X154670366Y-81942302D01*
X154670364Y-81942313D01*
X154650532Y-82168998D01*
X154650532Y-82169001D01*
X154670364Y-82395686D01*
X154670366Y-82395697D01*
X154729258Y-82615488D01*
X154729261Y-82615497D01*
X154825431Y-82821732D01*
X154825432Y-82821734D01*
X154955954Y-83008141D01*
X155116858Y-83169045D01*
X155116861Y-83169047D01*
X155303266Y-83299568D01*
X155361275Y-83326618D01*
X155413714Y-83372791D01*
X155432866Y-83439984D01*
X155412650Y-83506865D01*
X155361275Y-83551382D01*
X155303267Y-83578431D01*
X155303265Y-83578432D01*
X155116858Y-83708954D01*
X154955954Y-83869858D01*
X154825432Y-84056265D01*
X154825431Y-84056267D01*
X154729261Y-84262502D01*
X154729258Y-84262511D01*
X154670366Y-84482302D01*
X154670364Y-84482313D01*
X154650532Y-84708998D01*
X154650532Y-84709001D01*
X154670364Y-84935686D01*
X154670366Y-84935697D01*
X154729258Y-85155488D01*
X154729261Y-85155497D01*
X154825431Y-85361732D01*
X154825432Y-85361734D01*
X154955954Y-85548141D01*
X155116858Y-85709045D01*
X155116861Y-85709047D01*
X155303266Y-85839568D01*
X155359437Y-85865761D01*
X155361275Y-85866618D01*
X155413714Y-85912791D01*
X155432866Y-85979984D01*
X155412650Y-86046865D01*
X155361275Y-86091382D01*
X155303267Y-86118431D01*
X155303265Y-86118432D01*
X155116858Y-86248954D01*
X154955954Y-86409858D01*
X154825432Y-86596265D01*
X154825431Y-86596267D01*
X154729261Y-86802502D01*
X154729258Y-86802511D01*
X154670366Y-87022302D01*
X154670364Y-87022313D01*
X154650532Y-87248998D01*
X154650532Y-87249001D01*
X154670364Y-87475686D01*
X154670366Y-87475697D01*
X154729258Y-87695488D01*
X154729261Y-87695497D01*
X154825431Y-87901732D01*
X154825432Y-87901734D01*
X154955954Y-88088141D01*
X155116858Y-88249045D01*
X155116861Y-88249047D01*
X155303266Y-88379568D01*
X155361275Y-88406618D01*
X155413714Y-88452791D01*
X155432866Y-88519984D01*
X155412650Y-88586865D01*
X155361275Y-88631382D01*
X155303267Y-88658431D01*
X155303265Y-88658432D01*
X155116858Y-88788954D01*
X154955954Y-88949858D01*
X154825432Y-89136265D01*
X154825431Y-89136267D01*
X154729261Y-89342502D01*
X154729258Y-89342511D01*
X154670366Y-89562302D01*
X154670364Y-89562313D01*
X154650532Y-89788998D01*
X154650532Y-89789001D01*
X154670364Y-90015686D01*
X154670366Y-90015697D01*
X154729258Y-90235488D01*
X154729261Y-90235497D01*
X154825431Y-90441732D01*
X154825432Y-90441734D01*
X154955954Y-90628141D01*
X155116858Y-90789045D01*
X155116861Y-90789047D01*
X155303266Y-90919568D01*
X155361278Y-90946619D01*
X155413713Y-90992788D01*
X155432866Y-91059982D01*
X155412651Y-91126863D01*
X155361277Y-91171380D01*
X155303268Y-91198430D01*
X155303265Y-91198432D01*
X155116858Y-91328954D01*
X154955954Y-91489858D01*
X154825432Y-91676265D01*
X154825431Y-91676267D01*
X154729261Y-91882502D01*
X154729258Y-91882511D01*
X154670366Y-92102302D01*
X154670364Y-92102313D01*
X154650532Y-92328998D01*
X154650532Y-92329001D01*
X154670364Y-92555686D01*
X154670366Y-92555697D01*
X154729258Y-92775488D01*
X154729261Y-92775497D01*
X154825431Y-92981732D01*
X154825432Y-92981734D01*
X154955954Y-93168141D01*
X155116858Y-93329045D01*
X155116861Y-93329047D01*
X155303266Y-93459568D01*
X155361275Y-93486618D01*
X155413714Y-93532791D01*
X155432866Y-93599984D01*
X155412650Y-93666865D01*
X155361275Y-93711382D01*
X155303267Y-93738431D01*
X155303265Y-93738432D01*
X155116858Y-93868954D01*
X154955954Y-94029858D01*
X154843387Y-94190623D01*
X154788811Y-94234248D01*
X154741812Y-94243500D01*
X154107452Y-94243500D01*
X154040413Y-94223815D01*
X154019771Y-94207181D01*
X152553819Y-92741228D01*
X152520334Y-92679905D01*
X152517500Y-92653547D01*
X152517500Y-76002452D01*
X152537185Y-75935413D01*
X152553819Y-75914771D01*
X154146772Y-74321819D01*
X154208095Y-74288334D01*
X154234453Y-74285500D01*
X160725548Y-74285500D01*
X160792587Y-74305185D01*
G37*
G04 #@! TD.AperFunction*
G04 #@! TA.AperFunction,Conductor*
G36*
X196285039Y-33039685D02*
G01*
X196330794Y-33092489D01*
X196342000Y-33144000D01*
X196342000Y-119764000D01*
X196322315Y-119831039D01*
X196269511Y-119876794D01*
X196218000Y-119888000D01*
X137284000Y-119888000D01*
X137216961Y-119868315D01*
X137171206Y-119815511D01*
X137160000Y-119764000D01*
X137160000Y-112649001D01*
X139410532Y-112649001D01*
X139430364Y-112875686D01*
X139430366Y-112875697D01*
X139489258Y-113095488D01*
X139489261Y-113095497D01*
X139585431Y-113301732D01*
X139585432Y-113301734D01*
X139715954Y-113488141D01*
X139876858Y-113649045D01*
X139876861Y-113649047D01*
X140063266Y-113779568D01*
X140269504Y-113875739D01*
X140489308Y-113934635D01*
X140651230Y-113948801D01*
X140715998Y-113954468D01*
X140716000Y-113954468D01*
X140716002Y-113954468D01*
X140772672Y-113949509D01*
X140942692Y-113934635D01*
X141162496Y-113875739D01*
X141368734Y-113779568D01*
X141555139Y-113649047D01*
X141716047Y-113488139D01*
X141846568Y-113301734D01*
X141942739Y-113095496D01*
X142001635Y-112875692D01*
X142021468Y-112649000D01*
X142020716Y-112640410D01*
X142013163Y-112554075D01*
X142001635Y-112422308D01*
X141942739Y-112202504D01*
X141846568Y-111996266D01*
X141716047Y-111809861D01*
X141716045Y-111809858D01*
X141555141Y-111648954D01*
X141368735Y-111518433D01*
X141368736Y-111518433D01*
X141368734Y-111518432D01*
X141310722Y-111491380D01*
X141258284Y-111445208D01*
X141239133Y-111378014D01*
X141259349Y-111311133D01*
X141310721Y-111266619D01*
X141368734Y-111239568D01*
X141555139Y-111109047D01*
X141716047Y-110948139D01*
X141846568Y-110761734D01*
X141942739Y-110555496D01*
X142001635Y-110335692D01*
X142021468Y-110109000D01*
X142001635Y-109882308D01*
X141942739Y-109662504D01*
X141846568Y-109456266D01*
X141716047Y-109269861D01*
X141716045Y-109269858D01*
X141555141Y-109108954D01*
X141368735Y-108978433D01*
X141368736Y-108978433D01*
X141368734Y-108978432D01*
X141310722Y-108951380D01*
X141258284Y-108905208D01*
X141239133Y-108838014D01*
X141259349Y-108771133D01*
X141310721Y-108726619D01*
X141368734Y-108699568D01*
X141555139Y-108569047D01*
X141716047Y-108408139D01*
X141846568Y-108221734D01*
X141942739Y-108015496D01*
X142001635Y-107795692D01*
X142018634Y-107601384D01*
X142021468Y-107569001D01*
X142021468Y-107568998D01*
X142001635Y-107342313D01*
X142001635Y-107342308D01*
X141942739Y-107122504D01*
X141846568Y-106916266D01*
X141716047Y-106729861D01*
X141716045Y-106729858D01*
X141555141Y-106568954D01*
X141368734Y-106438432D01*
X141368728Y-106438429D01*
X141318212Y-106414873D01*
X141310724Y-106411381D01*
X141258285Y-106365210D01*
X141239133Y-106298017D01*
X141259348Y-106231135D01*
X141310725Y-106186618D01*
X141368734Y-106159568D01*
X141555139Y-106029047D01*
X141716047Y-105868139D01*
X141794681Y-105755836D01*
X141828613Y-105707377D01*
X141883189Y-105663752D01*
X141930188Y-105654500D01*
X142056548Y-105654500D01*
X142123587Y-105674185D01*
X142144229Y-105690819D01*
X142340181Y-105886771D01*
X142373666Y-105948094D01*
X142376500Y-105974452D01*
X142376500Y-115233255D01*
X142374775Y-115248872D01*
X142375061Y-115248899D01*
X142374326Y-115256666D01*
X142376469Y-115324846D01*
X142376500Y-115326793D01*
X142376500Y-115355343D01*
X142376501Y-115355360D01*
X142377368Y-115362231D01*
X142377826Y-115368050D01*
X142379290Y-115414624D01*
X142379291Y-115414627D01*
X142384880Y-115433867D01*
X142388824Y-115452911D01*
X142391336Y-115472791D01*
X142408490Y-115516119D01*
X142410382Y-115521647D01*
X142423381Y-115566388D01*
X142433580Y-115583634D01*
X142442138Y-115601103D01*
X142449514Y-115619732D01*
X142476898Y-115657423D01*
X142480106Y-115662307D01*
X142503827Y-115702416D01*
X142503833Y-115702424D01*
X142517990Y-115716580D01*
X142530628Y-115731376D01*
X142542405Y-115747586D01*
X142542406Y-115747587D01*
X142578309Y-115777288D01*
X142582620Y-115781210D01*
X144020558Y-117219148D01*
X145295194Y-118493784D01*
X145305019Y-118506048D01*
X145305240Y-118505866D01*
X145310210Y-118511874D01*
X145359949Y-118558582D01*
X145361316Y-118559906D01*
X145381530Y-118580120D01*
X145387004Y-118584366D01*
X145391442Y-118588156D01*
X145425418Y-118620062D01*
X145425422Y-118620064D01*
X145442973Y-118629713D01*
X145459231Y-118640392D01*
X145475064Y-118652674D01*
X145497015Y-118662172D01*
X145517837Y-118671183D01*
X145523081Y-118673752D01*
X145563908Y-118696197D01*
X145583312Y-118701179D01*
X145601710Y-118707478D01*
X145620105Y-118715438D01*
X145666129Y-118722726D01*
X145671832Y-118723907D01*
X145716981Y-118735500D01*
X145737016Y-118735500D01*
X145756413Y-118737026D01*
X145776196Y-118740160D01*
X145822583Y-118735775D01*
X145828422Y-118735500D01*
X157905257Y-118735500D01*
X157920877Y-118737224D01*
X157920904Y-118736939D01*
X157928666Y-118737673D01*
X157928666Y-118737672D01*
X157928667Y-118737673D01*
X157931999Y-118737568D01*
X157996847Y-118735531D01*
X157998794Y-118735500D01*
X158027347Y-118735500D01*
X158027350Y-118735500D01*
X158034228Y-118734630D01*
X158040041Y-118734172D01*
X158086627Y-118732709D01*
X158105869Y-118727117D01*
X158124912Y-118723174D01*
X158144792Y-118720664D01*
X158188122Y-118703507D01*
X158193646Y-118701617D01*
X158197396Y-118700527D01*
X158238390Y-118688618D01*
X158255629Y-118678422D01*
X158273103Y-118669862D01*
X158291727Y-118662488D01*
X158291727Y-118662487D01*
X158291732Y-118662486D01*
X158329449Y-118635082D01*
X158334305Y-118631892D01*
X158374420Y-118608170D01*
X158388589Y-118593999D01*
X158403379Y-118581368D01*
X158419587Y-118569594D01*
X158449299Y-118533676D01*
X158453212Y-118529376D01*
X160011590Y-116970999D01*
X162043127Y-116970999D01*
X162043128Y-116971000D01*
X163006314Y-116971000D01*
X162994359Y-116982955D01*
X162936835Y-117095852D01*
X162917014Y-117221000D01*
X162936835Y-117346148D01*
X162994359Y-117459045D01*
X163006314Y-117471000D01*
X162043128Y-117471000D01*
X162095730Y-117667317D01*
X162095734Y-117667326D01*
X162191865Y-117873482D01*
X162322342Y-118059820D01*
X162483179Y-118220657D01*
X162669517Y-118351134D01*
X162875673Y-118447265D01*
X162875682Y-118447269D01*
X163071999Y-118499872D01*
X163072000Y-118499871D01*
X163072000Y-117536686D01*
X163083955Y-117548641D01*
X163196852Y-117606165D01*
X163290519Y-117621000D01*
X163353481Y-117621000D01*
X163447148Y-117606165D01*
X163560045Y-117548641D01*
X163572000Y-117536686D01*
X163572000Y-118499872D01*
X163768317Y-118447269D01*
X163768326Y-118447265D01*
X163974482Y-118351134D01*
X164160820Y-118220657D01*
X164321657Y-118059820D01*
X164452134Y-117873482D01*
X164548265Y-117667326D01*
X164548269Y-117667317D01*
X164600872Y-117471000D01*
X163637686Y-117471000D01*
X163649641Y-117459045D01*
X163707165Y-117346148D01*
X163726986Y-117221000D01*
X163707165Y-117095852D01*
X163649641Y-116982955D01*
X163637686Y-116971000D01*
X164600872Y-116971000D01*
X164600872Y-116970999D01*
X164566842Y-116843999D01*
X170933127Y-116843999D01*
X170933128Y-116844000D01*
X171896314Y-116844000D01*
X171884359Y-116855955D01*
X171826835Y-116968852D01*
X171807014Y-117094000D01*
X171826835Y-117219148D01*
X171884359Y-117332045D01*
X171896314Y-117344000D01*
X170933128Y-117344000D01*
X170985730Y-117540317D01*
X170985734Y-117540326D01*
X171081865Y-117746482D01*
X171212342Y-117932820D01*
X171373179Y-118093657D01*
X171559517Y-118224134D01*
X171765673Y-118320265D01*
X171765682Y-118320269D01*
X171961999Y-118372872D01*
X171962000Y-118372871D01*
X171962000Y-117409686D01*
X171973955Y-117421641D01*
X172086852Y-117479165D01*
X172180519Y-117494000D01*
X172243481Y-117494000D01*
X172337148Y-117479165D01*
X172450045Y-117421641D01*
X172462000Y-117409686D01*
X172462000Y-118372872D01*
X172658317Y-118320269D01*
X172658326Y-118320265D01*
X172864482Y-118224134D01*
X173050820Y-118093657D01*
X173211657Y-117932820D01*
X173342134Y-117746482D01*
X173438265Y-117540326D01*
X173438269Y-117540317D01*
X173490872Y-117344000D01*
X172527686Y-117344000D01*
X172539641Y-117332045D01*
X172597165Y-117219148D01*
X172616986Y-117094000D01*
X172597165Y-116968852D01*
X172539641Y-116855955D01*
X172527686Y-116844000D01*
X173490872Y-116844000D01*
X173490872Y-116843999D01*
X173438269Y-116647682D01*
X173438265Y-116647673D01*
X173342134Y-116441517D01*
X173211657Y-116255179D01*
X173050820Y-116094342D01*
X172864482Y-115963865D01*
X172658328Y-115867734D01*
X172462000Y-115815127D01*
X172462000Y-116778313D01*
X172450045Y-116766359D01*
X172337148Y-116708835D01*
X172243481Y-116694000D01*
X172180519Y-116694000D01*
X172086852Y-116708835D01*
X171973955Y-116766359D01*
X171962000Y-116778314D01*
X171962000Y-115815127D01*
X171765671Y-115867734D01*
X171559517Y-115963865D01*
X171373179Y-116094342D01*
X171212342Y-116255179D01*
X171081865Y-116441517D01*
X170985734Y-116647673D01*
X170985730Y-116647682D01*
X170933127Y-116843999D01*
X164566842Y-116843999D01*
X164548269Y-116774682D01*
X164548265Y-116774673D01*
X164452134Y-116568517D01*
X164321657Y-116382179D01*
X164160820Y-116221342D01*
X163974482Y-116090865D01*
X163768328Y-115994734D01*
X163572000Y-115942127D01*
X163572000Y-116905314D01*
X163560045Y-116893359D01*
X163447148Y-116835835D01*
X163353481Y-116821000D01*
X163290519Y-116821000D01*
X163196852Y-116835835D01*
X163083955Y-116893359D01*
X163072000Y-116905314D01*
X163072000Y-115942127D01*
X162875671Y-115994734D01*
X162669517Y-116090865D01*
X162483179Y-116221342D01*
X162322342Y-116382179D01*
X162191865Y-116568517D01*
X162095734Y-116774673D01*
X162095730Y-116774682D01*
X162043127Y-116970999D01*
X160011590Y-116970999D01*
X162401771Y-114580819D01*
X162463095Y-114547334D01*
X162489453Y-114544500D01*
X177794773Y-114544500D01*
X177861812Y-114564185D01*
X177896348Y-114597377D01*
X178031501Y-114790396D01*
X178031506Y-114790402D01*
X178198597Y-114957493D01*
X178198603Y-114957498D01*
X178384594Y-115087730D01*
X178428219Y-115142307D01*
X178435413Y-115211805D01*
X178403890Y-115274160D01*
X178384595Y-115290880D01*
X178198922Y-115420890D01*
X178198920Y-115420891D01*
X178031891Y-115587920D01*
X178031886Y-115587926D01*
X177896400Y-115781420D01*
X177896399Y-115781422D01*
X177796570Y-115995507D01*
X177796567Y-115995513D01*
X177739364Y-116208999D01*
X177739364Y-116209000D01*
X178636314Y-116209000D01*
X178610507Y-116249156D01*
X178570000Y-116387111D01*
X178570000Y-116530889D01*
X178610507Y-116668844D01*
X178636314Y-116709000D01*
X177739364Y-116709000D01*
X177796567Y-116922486D01*
X177796570Y-116922492D01*
X177896399Y-117136578D01*
X178031894Y-117330082D01*
X178198917Y-117497105D01*
X178392421Y-117632600D01*
X178606507Y-117732429D01*
X178606516Y-117732433D01*
X178820000Y-117789634D01*
X178820000Y-116894501D01*
X178927685Y-116943680D01*
X179034237Y-116959000D01*
X179105763Y-116959000D01*
X179212315Y-116943680D01*
X179320000Y-116894501D01*
X179320000Y-117789633D01*
X179533483Y-117732433D01*
X179533492Y-117732429D01*
X179747578Y-117632600D01*
X179941082Y-117497105D01*
X180108105Y-117330082D01*
X180243600Y-117136578D01*
X180343429Y-116922492D01*
X180343432Y-116922486D01*
X180400636Y-116709000D01*
X179503686Y-116709000D01*
X179529493Y-116668844D01*
X179570000Y-116530889D01*
X179570000Y-116387111D01*
X179529493Y-116249156D01*
X179503686Y-116209000D01*
X180400636Y-116209000D01*
X180400635Y-116208999D01*
X180343432Y-115995513D01*
X180343429Y-115995507D01*
X180243600Y-115781422D01*
X180243599Y-115781420D01*
X180108113Y-115587926D01*
X180108108Y-115587920D01*
X179941078Y-115420890D01*
X179755405Y-115290879D01*
X179711780Y-115236302D01*
X179704588Y-115166804D01*
X179736110Y-115104449D01*
X179755406Y-115087730D01*
X179941401Y-114957495D01*
X180108495Y-114790401D01*
X180244035Y-114596830D01*
X180343903Y-114382663D01*
X180405063Y-114154408D01*
X180425659Y-113919000D01*
X180405063Y-113683592D01*
X180343903Y-113455337D01*
X180244035Y-113241171D01*
X180243651Y-113240623D01*
X180108496Y-113047600D01*
X180108496Y-113047599D01*
X179986567Y-112925671D01*
X179953084Y-112864351D01*
X179958068Y-112794659D01*
X179999939Y-112738725D01*
X180030915Y-112721810D01*
X180162331Y-112672796D01*
X180277546Y-112586546D01*
X180363796Y-112471331D01*
X180414091Y-112336483D01*
X180420500Y-112276873D01*
X180420499Y-110481128D01*
X180414091Y-110421517D01*
X180393757Y-110367000D01*
X186276500Y-110367000D01*
X187092814Y-110367000D01*
X187067007Y-110407156D01*
X187026500Y-110545111D01*
X187026500Y-110688889D01*
X187067007Y-110826844D01*
X187092814Y-110867000D01*
X186276501Y-110867000D01*
X186276501Y-111431197D01*
X186286900Y-111563332D01*
X186341877Y-111781519D01*
X186434928Y-111986374D01*
X186434931Y-111986380D01*
X186563059Y-112171323D01*
X186563069Y-112171335D01*
X186722164Y-112330430D01*
X186722176Y-112330440D01*
X186907119Y-112458568D01*
X186907125Y-112458571D01*
X187111980Y-112551622D01*
X187330167Y-112606599D01*
X187462310Y-112616999D01*
X188276499Y-112616999D01*
X188276500Y-112616998D01*
X188276500Y-111117000D01*
X188776500Y-111117000D01*
X188776500Y-112616999D01*
X189590682Y-112616999D01*
X189590697Y-112616998D01*
X189722832Y-112606599D01*
X189941019Y-112551622D01*
X190145874Y-112458571D01*
X190145880Y-112458568D01*
X190330823Y-112330440D01*
X190330835Y-112330430D01*
X190489930Y-112171335D01*
X190489940Y-112171323D01*
X190618068Y-111986380D01*
X190618071Y-111986374D01*
X190711122Y-111781519D01*
X190766099Y-111563332D01*
X190776499Y-111431196D01*
X190776500Y-111431184D01*
X190776500Y-110867000D01*
X189960186Y-110867000D01*
X189985993Y-110826844D01*
X190026500Y-110688889D01*
X190026500Y-110545111D01*
X189985993Y-110407156D01*
X189960186Y-110367000D01*
X190776499Y-110367000D01*
X190776499Y-109802817D01*
X190776498Y-109802802D01*
X190766099Y-109670667D01*
X190711122Y-109452480D01*
X190618071Y-109247625D01*
X190618068Y-109247619D01*
X190489940Y-109062676D01*
X190489930Y-109062664D01*
X190330835Y-108903569D01*
X190330823Y-108903559D01*
X190145880Y-108775431D01*
X190145874Y-108775428D01*
X189941019Y-108682377D01*
X189722832Y-108627400D01*
X189590696Y-108617000D01*
X188776500Y-108617000D01*
X188776500Y-110117000D01*
X188276500Y-110117000D01*
X188276500Y-108617000D01*
X187462317Y-108617000D01*
X187462302Y-108617001D01*
X187330167Y-108627400D01*
X187111980Y-108682377D01*
X186907125Y-108775428D01*
X186907119Y-108775431D01*
X186722176Y-108903559D01*
X186722164Y-108903569D01*
X186563069Y-109062664D01*
X186563059Y-109062676D01*
X186434931Y-109247619D01*
X186434928Y-109247625D01*
X186341877Y-109452480D01*
X186286900Y-109670667D01*
X186276500Y-109802803D01*
X186276500Y-110367000D01*
X180393757Y-110367000D01*
X180363797Y-110286671D01*
X180363793Y-110286664D01*
X180277547Y-110171455D01*
X180277544Y-110171452D01*
X180162335Y-110085206D01*
X180162328Y-110085202D01*
X180027482Y-110034908D01*
X180027483Y-110034908D01*
X179967883Y-110028501D01*
X179967881Y-110028500D01*
X179967873Y-110028500D01*
X179967864Y-110028500D01*
X178172129Y-110028500D01*
X178172123Y-110028501D01*
X178112516Y-110034908D01*
X177977671Y-110085202D01*
X177977664Y-110085206D01*
X177862455Y-110171452D01*
X177862452Y-110171455D01*
X177776206Y-110286664D01*
X177776202Y-110286671D01*
X177725908Y-110421517D01*
X177719501Y-110481116D01*
X177719501Y-110481123D01*
X177719500Y-110481135D01*
X177719500Y-112276870D01*
X177719501Y-112276876D01*
X177725908Y-112336483D01*
X177776202Y-112471328D01*
X177776206Y-112471335D01*
X177862452Y-112586544D01*
X177862455Y-112586547D01*
X177977664Y-112672793D01*
X177977671Y-112672797D01*
X178109081Y-112721810D01*
X178165015Y-112763681D01*
X178189432Y-112829145D01*
X178174580Y-112897418D01*
X178153430Y-112925673D01*
X178031503Y-113047600D01*
X177896348Y-113240623D01*
X177841771Y-113284248D01*
X177794773Y-113293500D01*
X163352057Y-113293500D01*
X163285018Y-113273815D01*
X163239263Y-113221011D01*
X163229319Y-113151853D01*
X163258344Y-113088297D01*
X163264376Y-113081819D01*
X163582513Y-112763681D01*
X163705788Y-112640405D01*
X163718042Y-112630590D01*
X163717859Y-112630368D01*
X163723868Y-112625395D01*
X163723877Y-112625390D01*
X163770607Y-112575626D01*
X163771846Y-112574347D01*
X163792120Y-112554075D01*
X163796379Y-112548582D01*
X163800152Y-112544165D01*
X163832062Y-112510186D01*
X163841715Y-112492624D01*
X163852389Y-112476374D01*
X163864673Y-112460540D01*
X163883180Y-112417771D01*
X163885749Y-112412528D01*
X163908196Y-112371697D01*
X163908197Y-112371696D01*
X163913177Y-112352295D01*
X163919478Y-112333892D01*
X163927438Y-112315500D01*
X163934730Y-112269453D01*
X163935911Y-112263756D01*
X163947500Y-112218623D01*
X163947500Y-112198578D01*
X163949025Y-112179195D01*
X163952160Y-112159408D01*
X163947775Y-112113019D01*
X163947500Y-112107181D01*
X163947500Y-108275188D01*
X163967185Y-108208149D01*
X164000377Y-108173613D01*
X164156110Y-108064568D01*
X164161139Y-108061047D01*
X164322047Y-107900139D01*
X164452568Y-107713734D01*
X164548739Y-107507496D01*
X164607635Y-107287692D01*
X164627468Y-107061000D01*
X164607635Y-106834308D01*
X164557818Y-106648386D01*
X164548741Y-106614511D01*
X164548738Y-106614502D01*
X164539996Y-106595755D01*
X164452568Y-106408266D01*
X164322047Y-106221861D01*
X164322045Y-106221858D01*
X164161140Y-106060953D01*
X164000377Y-105948386D01*
X163956752Y-105893809D01*
X163947500Y-105846811D01*
X163947500Y-104463737D01*
X163949224Y-104448123D01*
X163948938Y-104448096D01*
X163949672Y-104440333D01*
X163947531Y-104372170D01*
X163947500Y-104370223D01*
X163947500Y-104341651D01*
X163947500Y-104341650D01*
X163946629Y-104334759D01*
X163946172Y-104328945D01*
X163944709Y-104282374D01*
X163944709Y-104282372D01*
X163939120Y-104263137D01*
X163935174Y-104244084D01*
X163932664Y-104224208D01*
X163915501Y-104180859D01*
X163913614Y-104175346D01*
X163900617Y-104130610D01*
X163900616Y-104130608D01*
X163890421Y-104113369D01*
X163881860Y-104095893D01*
X163874486Y-104077269D01*
X163874486Y-104077267D01*
X163864474Y-104063488D01*
X163847083Y-104039550D01*
X163843900Y-104034705D01*
X163820170Y-103994579D01*
X163820165Y-103994573D01*
X163806005Y-103980413D01*
X163793370Y-103965620D01*
X163781593Y-103949412D01*
X163745693Y-103919713D01*
X163741381Y-103915790D01*
X162353772Y-102528181D01*
X162320287Y-102466858D01*
X162325271Y-102397166D01*
X162367143Y-102341233D01*
X162432607Y-102316816D01*
X162441453Y-102316500D01*
X165686850Y-102316500D01*
X165753889Y-102336185D01*
X165799644Y-102388989D01*
X165800405Y-102390689D01*
X165807824Y-102407603D01*
X165943833Y-102615782D01*
X165971329Y-102645650D01*
X166112256Y-102798738D01*
X166308491Y-102951474D01*
X166527190Y-103069828D01*
X166762386Y-103150571D01*
X167007665Y-103191500D01*
X167256335Y-103191500D01*
X167501614Y-103150571D01*
X167736810Y-103069828D01*
X167955509Y-102951474D01*
X168151744Y-102798738D01*
X168320164Y-102615785D01*
X168456173Y-102407607D01*
X168556063Y-102179881D01*
X168617108Y-101938821D01*
X168637643Y-101691005D01*
X169996357Y-101691005D01*
X170016890Y-101938812D01*
X170016892Y-101938824D01*
X170077936Y-102179881D01*
X170177826Y-102407606D01*
X170313833Y-102615782D01*
X170341329Y-102645650D01*
X170482256Y-102798738D01*
X170678491Y-102951474D01*
X170897190Y-103069828D01*
X171132386Y-103150571D01*
X171377665Y-103191500D01*
X171462500Y-103191500D01*
X171529539Y-103211185D01*
X171575294Y-103263989D01*
X171586500Y-103315500D01*
X171586500Y-105719811D01*
X171566815Y-105786850D01*
X171533623Y-105821386D01*
X171372859Y-105933953D01*
X171211954Y-106094858D01*
X171081432Y-106281265D01*
X171081431Y-106281267D01*
X170985261Y-106487502D01*
X170985258Y-106487511D01*
X170926366Y-106707302D01*
X170926364Y-106707313D01*
X170906532Y-106933998D01*
X170906532Y-106934001D01*
X170926364Y-107160686D01*
X170926366Y-107160697D01*
X170985258Y-107380488D01*
X170985261Y-107380497D01*
X171081431Y-107586732D01*
X171081432Y-107586734D01*
X171211954Y-107773141D01*
X171372858Y-107934045D01*
X171372861Y-107934047D01*
X171559266Y-108064568D01*
X171765504Y-108160739D01*
X171985308Y-108219635D01*
X172147230Y-108233801D01*
X172211998Y-108239468D01*
X172212000Y-108239468D01*
X172212002Y-108239468D01*
X172268673Y-108234509D01*
X172438692Y-108219635D01*
X172658496Y-108160739D01*
X172864734Y-108064568D01*
X173051139Y-107934047D01*
X173212047Y-107773139D01*
X173342568Y-107586734D01*
X173438739Y-107380496D01*
X173497635Y-107160692D01*
X173517468Y-106934000D01*
X173515916Y-106916266D01*
X173511089Y-106861091D01*
X173497635Y-106707308D01*
X173438739Y-106487504D01*
X173404869Y-106414870D01*
X186276000Y-106414870D01*
X186276001Y-106414876D01*
X186282408Y-106474483D01*
X186332702Y-106609328D01*
X186332706Y-106609335D01*
X186418952Y-106724544D01*
X186418955Y-106724547D01*
X186534164Y-106810793D01*
X186534171Y-106810797D01*
X186669017Y-106861091D01*
X186669016Y-106861091D01*
X186675944Y-106861835D01*
X186728627Y-106867500D01*
X190324372Y-106867499D01*
X190383983Y-106861091D01*
X190518831Y-106810796D01*
X190634046Y-106724546D01*
X190720296Y-106609331D01*
X190737926Y-106562060D01*
X190779796Y-106506128D01*
X190845259Y-106481710D01*
X190913533Y-106496561D01*
X190962939Y-106545965D01*
X190977933Y-106611971D01*
X190976001Y-106648342D01*
X190976000Y-106648386D01*
X190976000Y-108585613D01*
X190976001Y-108585652D01*
X190978795Y-108638243D01*
X190978795Y-108638244D01*
X191009255Y-108795739D01*
X191023255Y-108868126D01*
X191064882Y-108978430D01*
X191105925Y-109087189D01*
X191224429Y-109289131D01*
X191224434Y-109289138D01*
X191375356Y-109468141D01*
X191375358Y-109468143D01*
X191554361Y-109619065D01*
X191554368Y-109619070D01*
X191756310Y-109737574D01*
X191975374Y-109820245D01*
X192205259Y-109864705D01*
X192257878Y-109867500D01*
X192257886Y-109867500D01*
X194195114Y-109867500D01*
X194195122Y-109867500D01*
X194247741Y-109864705D01*
X194477626Y-109820245D01*
X194696690Y-109737574D01*
X194898632Y-109619070D01*
X195077642Y-109468142D01*
X195228570Y-109289132D01*
X195347074Y-109087190D01*
X195429745Y-108868126D01*
X195474205Y-108638241D01*
X195477000Y-108585622D01*
X195477000Y-106648378D01*
X195474205Y-106595759D01*
X195429745Y-106365874D01*
X195347074Y-106146810D01*
X195228570Y-105944868D01*
X195228565Y-105944861D01*
X195077643Y-105765858D01*
X195077641Y-105765856D01*
X194898638Y-105614934D01*
X194898631Y-105614929D01*
X194696689Y-105496425D01*
X194606332Y-105462326D01*
X194477626Y-105413755D01*
X194477621Y-105413754D01*
X194247743Y-105369295D01*
X194195152Y-105366501D01*
X194195129Y-105366500D01*
X194195122Y-105366500D01*
X192257878Y-105366500D01*
X192257870Y-105366500D01*
X192257847Y-105366501D01*
X192205256Y-105369295D01*
X192205255Y-105369295D01*
X191975378Y-105413754D01*
X191975376Y-105413754D01*
X191975374Y-105413755D01*
X191901433Y-105441658D01*
X191756310Y-105496425D01*
X191554368Y-105614929D01*
X191554361Y-105614934D01*
X191375358Y-105765856D01*
X191375356Y-105765858D01*
X191224434Y-105944861D01*
X191224429Y-105944868D01*
X191105925Y-106146810D01*
X191048121Y-106299984D01*
X191023507Y-106365208D01*
X191023253Y-106365880D01*
X191022740Y-106368532D01*
X191022212Y-106369552D01*
X191021817Y-106370950D01*
X191021532Y-106370869D01*
X190990675Y-106430609D01*
X190930139Y-106465497D01*
X190860351Y-106462117D01*
X190803468Y-106421544D01*
X190777551Y-106356659D01*
X190776999Y-106344989D01*
X190776999Y-102819128D01*
X190770591Y-102759517D01*
X190768551Y-102754048D01*
X190720297Y-102624671D01*
X190720293Y-102624664D01*
X190634047Y-102509455D01*
X190634044Y-102509452D01*
X190518835Y-102423206D01*
X190518828Y-102423202D01*
X190383982Y-102372908D01*
X190383983Y-102372908D01*
X190324383Y-102366501D01*
X190324381Y-102366500D01*
X190324373Y-102366500D01*
X190324364Y-102366500D01*
X186728629Y-102366500D01*
X186728623Y-102366501D01*
X186669016Y-102372908D01*
X186534171Y-102423202D01*
X186534164Y-102423206D01*
X186418955Y-102509452D01*
X186418952Y-102509455D01*
X186332706Y-102624664D01*
X186332702Y-102624671D01*
X186282408Y-102759517D01*
X186278192Y-102798738D01*
X186276001Y-102819123D01*
X186276000Y-102819135D01*
X186276000Y-106414870D01*
X173404869Y-106414870D01*
X173342568Y-106281266D01*
X173212047Y-106094861D01*
X173212045Y-106094858D01*
X173051140Y-105933953D01*
X172890377Y-105821386D01*
X172846752Y-105766809D01*
X172837500Y-105719811D01*
X172837500Y-102483742D01*
X172839224Y-102468122D01*
X172838939Y-102468095D01*
X172839671Y-102460340D01*
X172839673Y-102460333D01*
X172839172Y-102444394D01*
X172856741Y-102376770D01*
X172908082Y-102329379D01*
X172963111Y-102316500D01*
X176556850Y-102316500D01*
X176623889Y-102336185D01*
X176669644Y-102388989D01*
X176670405Y-102390689D01*
X176677824Y-102407603D01*
X176813833Y-102615782D01*
X176841329Y-102645650D01*
X176982256Y-102798738D01*
X177178491Y-102951474D01*
X177397190Y-103069828D01*
X177632386Y-103150571D01*
X177877665Y-103191500D01*
X178126335Y-103191500D01*
X178371614Y-103150571D01*
X178606810Y-103069828D01*
X178825509Y-102951474D01*
X179021744Y-102798738D01*
X179190164Y-102615785D01*
X179326173Y-102407607D01*
X179426063Y-102179881D01*
X179487108Y-101938821D01*
X179507643Y-101691000D01*
X179487108Y-101443179D01*
X179426063Y-101202119D01*
X179424164Y-101197790D01*
X179326173Y-100974393D01*
X179190166Y-100766217D01*
X179168557Y-100742744D01*
X179021744Y-100583262D01*
X178825509Y-100430526D01*
X178825507Y-100430525D01*
X178825506Y-100430524D01*
X178606811Y-100312172D01*
X178606802Y-100312169D01*
X178371616Y-100231429D01*
X178126335Y-100190500D01*
X177877665Y-100190500D01*
X177632383Y-100231429D01*
X177397197Y-100312169D01*
X177397188Y-100312172D01*
X177178493Y-100430524D01*
X176982257Y-100583261D01*
X176813833Y-100766217D01*
X176677824Y-100974396D01*
X176670405Y-100991311D01*
X176625449Y-101044797D01*
X176558713Y-101065486D01*
X176556850Y-101065500D01*
X172947150Y-101065500D01*
X172880111Y-101045815D01*
X172834356Y-100993011D01*
X172833595Y-100991311D01*
X172826175Y-100974396D01*
X172690166Y-100766217D01*
X172668557Y-100742744D01*
X172521744Y-100583262D01*
X172325509Y-100430526D01*
X172325507Y-100430525D01*
X172325506Y-100430524D01*
X172106811Y-100312172D01*
X172106802Y-100312169D01*
X171871616Y-100231429D01*
X171626335Y-100190500D01*
X171377665Y-100190500D01*
X171132383Y-100231429D01*
X170897197Y-100312169D01*
X170897188Y-100312172D01*
X170678493Y-100430524D01*
X170482257Y-100583261D01*
X170313833Y-100766217D01*
X170177826Y-100974393D01*
X170077936Y-101202118D01*
X170016892Y-101443175D01*
X170016890Y-101443187D01*
X169996357Y-101690994D01*
X169996357Y-101691005D01*
X168637643Y-101691005D01*
X168637643Y-101691000D01*
X168617108Y-101443179D01*
X168556063Y-101202119D01*
X168554164Y-101197790D01*
X168456173Y-100974393D01*
X168320166Y-100766217D01*
X168298557Y-100742744D01*
X168151744Y-100583262D01*
X167955509Y-100430526D01*
X167955507Y-100430525D01*
X167955506Y-100430524D01*
X167736811Y-100312172D01*
X167736802Y-100312169D01*
X167501616Y-100231429D01*
X167256335Y-100190500D01*
X167007665Y-100190500D01*
X166762383Y-100231429D01*
X166527197Y-100312169D01*
X166527188Y-100312172D01*
X166308493Y-100430524D01*
X166112257Y-100583261D01*
X165943833Y-100766217D01*
X165807824Y-100974396D01*
X165800405Y-100991311D01*
X165755449Y-101044797D01*
X165688713Y-101065486D01*
X165686850Y-101065500D01*
X162077150Y-101065500D01*
X162010111Y-101045815D01*
X161964356Y-100993011D01*
X161963595Y-100991311D01*
X161956175Y-100974396D01*
X161820166Y-100766217D01*
X161798557Y-100742744D01*
X161651744Y-100583262D01*
X161455509Y-100430526D01*
X161455507Y-100430525D01*
X161455506Y-100430524D01*
X161236811Y-100312172D01*
X161236802Y-100312169D01*
X161001616Y-100231429D01*
X160756335Y-100190500D01*
X160507665Y-100190500D01*
X160262383Y-100231429D01*
X160027197Y-100312169D01*
X160027188Y-100312172D01*
X159808493Y-100430524D01*
X159612257Y-100583261D01*
X159443833Y-100766217D01*
X159307826Y-100974393D01*
X159207936Y-101202118D01*
X159146892Y-101443175D01*
X159146890Y-101443187D01*
X159126357Y-101690994D01*
X159126357Y-101691005D01*
X159146890Y-101938812D01*
X159146892Y-101938824D01*
X159207936Y-102179881D01*
X159307826Y-102407606D01*
X159443833Y-102615782D01*
X159471329Y-102645650D01*
X159612256Y-102798738D01*
X159808491Y-102951474D01*
X160027190Y-103069828D01*
X160262386Y-103150571D01*
X160507665Y-103191500D01*
X160756335Y-103191500D01*
X161001614Y-103150571D01*
X161081287Y-103123218D01*
X161151082Y-103120068D01*
X161209229Y-103152819D01*
X162660181Y-104603771D01*
X162693666Y-104665094D01*
X162696500Y-104691452D01*
X162696500Y-105846811D01*
X162676815Y-105913850D01*
X162643623Y-105948386D01*
X162482859Y-106060953D01*
X162321954Y-106221858D01*
X162191432Y-106408265D01*
X162191431Y-106408267D01*
X162095261Y-106614502D01*
X162095258Y-106614511D01*
X162036366Y-106834302D01*
X162036364Y-106834313D01*
X162016532Y-107060998D01*
X162016532Y-107061001D01*
X162036364Y-107287686D01*
X162036366Y-107287697D01*
X162095258Y-107507488D01*
X162095261Y-107507497D01*
X162191431Y-107713732D01*
X162191432Y-107713734D01*
X162321954Y-107900141D01*
X162482858Y-108061045D01*
X162643623Y-108173613D01*
X162687248Y-108228189D01*
X162696500Y-108275188D01*
X162696500Y-111829151D01*
X162676815Y-111896190D01*
X162660181Y-111916832D01*
X157578832Y-116998181D01*
X157517509Y-117031666D01*
X157491151Y-117034500D01*
X146292849Y-117034500D01*
X146225810Y-117014815D01*
X146205168Y-116998181D01*
X144113819Y-114906832D01*
X144080334Y-114845509D01*
X144077500Y-114819151D01*
X144077500Y-102767737D01*
X144079224Y-102752123D01*
X144078938Y-102752096D01*
X144079672Y-102744333D01*
X144077531Y-102676171D01*
X144077500Y-102674224D01*
X144077500Y-102645651D01*
X144077500Y-102645650D01*
X144076629Y-102638759D01*
X144076172Y-102632945D01*
X144075633Y-102615782D01*
X144074709Y-102586373D01*
X144069121Y-102567139D01*
X144065174Y-102548081D01*
X144062664Y-102528208D01*
X144055239Y-102509455D01*
X144045507Y-102484875D01*
X144043614Y-102479346D01*
X144030618Y-102434614D01*
X144030617Y-102434610D01*
X144020420Y-102417368D01*
X144011863Y-102399902D01*
X144004486Y-102381268D01*
X143977083Y-102343550D01*
X143973900Y-102338705D01*
X143950170Y-102298579D01*
X143950165Y-102298573D01*
X143936005Y-102284413D01*
X143923370Y-102269620D01*
X143911593Y-102253412D01*
X143875693Y-102223713D01*
X143871381Y-102219790D01*
X142015413Y-100363822D01*
X141981928Y-100302499D01*
X141983319Y-100244048D01*
X141986700Y-100231429D01*
X142001635Y-100175692D01*
X142021468Y-99949000D01*
X142001635Y-99722308D01*
X141942739Y-99502504D01*
X141846568Y-99296266D01*
X141716047Y-99109861D01*
X141716045Y-99109858D01*
X141555141Y-98948954D01*
X141368734Y-98818432D01*
X141368728Y-98818429D01*
X141310725Y-98791382D01*
X141258285Y-98745210D01*
X141239133Y-98678017D01*
X141259348Y-98611135D01*
X141310725Y-98566618D01*
X141368734Y-98539568D01*
X141555139Y-98409047D01*
X141716047Y-98248139D01*
X141846568Y-98061734D01*
X141942739Y-97855496D01*
X142001635Y-97635692D01*
X142021468Y-97409000D01*
X142001635Y-97182308D01*
X141942739Y-96962504D01*
X141846568Y-96756266D01*
X141716047Y-96569861D01*
X141716045Y-96569858D01*
X141555141Y-96408954D01*
X141368734Y-96278432D01*
X141368728Y-96278429D01*
X141310725Y-96251382D01*
X141258285Y-96205210D01*
X141239133Y-96138017D01*
X141259348Y-96071135D01*
X141310725Y-96026618D01*
X141368734Y-95999568D01*
X141555139Y-95869047D01*
X141716047Y-95708139D01*
X141846568Y-95521734D01*
X141942739Y-95315496D01*
X142001635Y-95095692D01*
X142021468Y-94869000D01*
X142001635Y-94642308D01*
X141942739Y-94422504D01*
X141846568Y-94216266D01*
X141716047Y-94029861D01*
X141716045Y-94029858D01*
X141555141Y-93868954D01*
X141368734Y-93738432D01*
X141368728Y-93738429D01*
X141310725Y-93711382D01*
X141258285Y-93665210D01*
X141239133Y-93598017D01*
X141259348Y-93531135D01*
X141310725Y-93486618D01*
X141368734Y-93459568D01*
X141555139Y-93329047D01*
X141716047Y-93168139D01*
X141846568Y-92981734D01*
X141942739Y-92775496D01*
X142001635Y-92555692D01*
X142021468Y-92329000D01*
X142001635Y-92102308D01*
X141942739Y-91882504D01*
X141846568Y-91676266D01*
X141716047Y-91489861D01*
X141716045Y-91489858D01*
X141555141Y-91328954D01*
X141368734Y-91198432D01*
X141368728Y-91198429D01*
X141310725Y-91171382D01*
X141258285Y-91125210D01*
X141239133Y-91058017D01*
X141259348Y-90991135D01*
X141310725Y-90946618D01*
X141368734Y-90919568D01*
X141555139Y-90789047D01*
X141716047Y-90628139D01*
X141846568Y-90441734D01*
X141942739Y-90235496D01*
X142001635Y-90015692D01*
X142021468Y-89789000D01*
X142001635Y-89562308D01*
X141983318Y-89493947D01*
X141984981Y-89424101D01*
X142015410Y-89374178D01*
X145359786Y-86029802D01*
X145372048Y-86019980D01*
X145371865Y-86019759D01*
X145377873Y-86014788D01*
X145377877Y-86014786D01*
X145424649Y-85964977D01*
X145425891Y-85963697D01*
X145446120Y-85943470D01*
X145450373Y-85937986D01*
X145454150Y-85933563D01*
X145486062Y-85899582D01*
X145495714Y-85882023D01*
X145506389Y-85865772D01*
X145518674Y-85849936D01*
X145537186Y-85807152D01*
X145539742Y-85801935D01*
X145562197Y-85761092D01*
X145567180Y-85741680D01*
X145573477Y-85723291D01*
X145581438Y-85704895D01*
X145588729Y-85658853D01*
X145589908Y-85653162D01*
X145601500Y-85608019D01*
X145601500Y-85587982D01*
X145603027Y-85568582D01*
X145606160Y-85548804D01*
X145601775Y-85502415D01*
X145601500Y-85496577D01*
X145601500Y-75672194D01*
X151261839Y-75672194D01*
X151266224Y-75718580D01*
X151266499Y-75724417D01*
X151266499Y-92881255D01*
X151264776Y-92896872D01*
X151265061Y-92896899D01*
X151264326Y-92904666D01*
X151266469Y-92972846D01*
X151266500Y-92974793D01*
X151266500Y-93003343D01*
X151266501Y-93003360D01*
X151267368Y-93010231D01*
X151267826Y-93016050D01*
X151269290Y-93062624D01*
X151269291Y-93062627D01*
X151274880Y-93081867D01*
X151278824Y-93100911D01*
X151281336Y-93120791D01*
X151298490Y-93164119D01*
X151300382Y-93169647D01*
X151313381Y-93214388D01*
X151323580Y-93231634D01*
X151332138Y-93249103D01*
X151339514Y-93267732D01*
X151366898Y-93305423D01*
X151370106Y-93310307D01*
X151393827Y-93350416D01*
X151393833Y-93350424D01*
X151407990Y-93364580D01*
X151420628Y-93379376D01*
X151432405Y-93395586D01*
X151432406Y-93395587D01*
X151468309Y-93425288D01*
X151472620Y-93429210D01*
X152912407Y-94868998D01*
X153296197Y-95252788D01*
X153306022Y-95265051D01*
X153306243Y-95264869D01*
X153311211Y-95270874D01*
X153360932Y-95317566D01*
X153362332Y-95318923D01*
X153382523Y-95339115D01*
X153382527Y-95339118D01*
X153382529Y-95339120D01*
X153388011Y-95343373D01*
X153392443Y-95347157D01*
X153426418Y-95379062D01*
X153443976Y-95388714D01*
X153460233Y-95399393D01*
X153476064Y-95411673D01*
X153495737Y-95420186D01*
X153518833Y-95430182D01*
X153524077Y-95432750D01*
X153564908Y-95455197D01*
X153577523Y-95458435D01*
X153584305Y-95460177D01*
X153602719Y-95466481D01*
X153621104Y-95474438D01*
X153667157Y-95481732D01*
X153672826Y-95482906D01*
X153717981Y-95494500D01*
X153738016Y-95494500D01*
X153757413Y-95496026D01*
X153777196Y-95499160D01*
X153823583Y-95494775D01*
X153829422Y-95494500D01*
X154741812Y-95494500D01*
X154808851Y-95514185D01*
X154843387Y-95547377D01*
X154955954Y-95708141D01*
X155116858Y-95869045D01*
X155116861Y-95869047D01*
X155303266Y-95999568D01*
X155361275Y-96026618D01*
X155413714Y-96072791D01*
X155432866Y-96139984D01*
X155412650Y-96206865D01*
X155361275Y-96251382D01*
X155303267Y-96278431D01*
X155303265Y-96278432D01*
X155116858Y-96408954D01*
X154955954Y-96569858D01*
X154825432Y-96756265D01*
X154825431Y-96756267D01*
X154729261Y-96962502D01*
X154729258Y-96962511D01*
X154670366Y-97182302D01*
X154670364Y-97182313D01*
X154650532Y-97408998D01*
X154650532Y-97409001D01*
X154670364Y-97635686D01*
X154670366Y-97635697D01*
X154729258Y-97855488D01*
X154729261Y-97855497D01*
X154825431Y-98061732D01*
X154825432Y-98061734D01*
X154955954Y-98248141D01*
X155116858Y-98409045D01*
X155116861Y-98409047D01*
X155303266Y-98539568D01*
X155361275Y-98566618D01*
X155413714Y-98612791D01*
X155432866Y-98679984D01*
X155412650Y-98746865D01*
X155361275Y-98791382D01*
X155303267Y-98818431D01*
X155303265Y-98818432D01*
X155116858Y-98948954D01*
X154955954Y-99109858D01*
X154825432Y-99296265D01*
X154825431Y-99296267D01*
X154729261Y-99502502D01*
X154729258Y-99502511D01*
X154670366Y-99722302D01*
X154670364Y-99722313D01*
X154650532Y-99948998D01*
X154650532Y-99949001D01*
X154670364Y-100175686D01*
X154670366Y-100175697D01*
X154729258Y-100395488D01*
X154729261Y-100395497D01*
X154825431Y-100601732D01*
X154825432Y-100601734D01*
X154955954Y-100788141D01*
X155116858Y-100949045D01*
X155116861Y-100949047D01*
X155303266Y-101079568D01*
X155361275Y-101106618D01*
X155413714Y-101152791D01*
X155432866Y-101219984D01*
X155412650Y-101286865D01*
X155361275Y-101331382D01*
X155303267Y-101358431D01*
X155303265Y-101358432D01*
X155116858Y-101488954D01*
X154955954Y-101649858D01*
X154825432Y-101836265D01*
X154825431Y-101836267D01*
X154729261Y-102042502D01*
X154729258Y-102042511D01*
X154670366Y-102262302D01*
X154670364Y-102262313D01*
X154650532Y-102488998D01*
X154650532Y-102489001D01*
X154670364Y-102715686D01*
X154670366Y-102715697D01*
X154729258Y-102935488D01*
X154729261Y-102935497D01*
X154825431Y-103141732D01*
X154825432Y-103141734D01*
X154955954Y-103328141D01*
X155116858Y-103489045D01*
X155116861Y-103489047D01*
X155303266Y-103619568D01*
X155361275Y-103646618D01*
X155413714Y-103692791D01*
X155432866Y-103759984D01*
X155412650Y-103826865D01*
X155361275Y-103871382D01*
X155303267Y-103898431D01*
X155303265Y-103898432D01*
X155116858Y-104028954D01*
X154955954Y-104189858D01*
X154825432Y-104376265D01*
X154825431Y-104376267D01*
X154729261Y-104582502D01*
X154729258Y-104582511D01*
X154670366Y-104802302D01*
X154670364Y-104802313D01*
X154650532Y-105028998D01*
X154650532Y-105029001D01*
X154670364Y-105255686D01*
X154670366Y-105255697D01*
X154729258Y-105475488D01*
X154729261Y-105475497D01*
X154825431Y-105681732D01*
X154825432Y-105681734D01*
X154955954Y-105868141D01*
X155116858Y-106029045D01*
X155116861Y-106029047D01*
X155303266Y-106159568D01*
X155361275Y-106186618D01*
X155413714Y-106232791D01*
X155432866Y-106299984D01*
X155412650Y-106366865D01*
X155361275Y-106411381D01*
X155353788Y-106414873D01*
X155303267Y-106438431D01*
X155303265Y-106438432D01*
X155116858Y-106568954D01*
X154955954Y-106729858D01*
X154825432Y-106916265D01*
X154825431Y-106916267D01*
X154729261Y-107122502D01*
X154729258Y-107122511D01*
X154670366Y-107342302D01*
X154670364Y-107342313D01*
X154650532Y-107568998D01*
X154650532Y-107569001D01*
X154670364Y-107795686D01*
X154670366Y-107795697D01*
X154729258Y-108015488D01*
X154729261Y-108015497D01*
X154825431Y-108221732D01*
X154825432Y-108221734D01*
X154955954Y-108408141D01*
X155116858Y-108569045D01*
X155116861Y-108569047D01*
X155303266Y-108699568D01*
X155361275Y-108726618D01*
X155413714Y-108772791D01*
X155432866Y-108839984D01*
X155412650Y-108906865D01*
X155361275Y-108951382D01*
X155303267Y-108978431D01*
X155303265Y-108978432D01*
X155116858Y-109108954D01*
X154955954Y-109269858D01*
X154825432Y-109456265D01*
X154825431Y-109456267D01*
X154729261Y-109662502D01*
X154729258Y-109662511D01*
X154670366Y-109882302D01*
X154670364Y-109882313D01*
X154650532Y-110108998D01*
X154650532Y-110109001D01*
X154670364Y-110335686D01*
X154670366Y-110335697D01*
X154729258Y-110555488D01*
X154729261Y-110555497D01*
X154825431Y-110761732D01*
X154825432Y-110761734D01*
X154955954Y-110948141D01*
X155116858Y-111109045D01*
X155116861Y-111109047D01*
X155303266Y-111239568D01*
X155361275Y-111266618D01*
X155413714Y-111312791D01*
X155432866Y-111379984D01*
X155412650Y-111446865D01*
X155361275Y-111491382D01*
X155303267Y-111518431D01*
X155303265Y-111518432D01*
X155116858Y-111648954D01*
X154955954Y-111809858D01*
X154825432Y-111996265D01*
X154825431Y-111996267D01*
X154729261Y-112202502D01*
X154729258Y-112202511D01*
X154670366Y-112422302D01*
X154670364Y-112422313D01*
X154650532Y-112648998D01*
X154650532Y-112649001D01*
X154670364Y-112875686D01*
X154670366Y-112875697D01*
X154729258Y-113095488D01*
X154729261Y-113095497D01*
X154825431Y-113301732D01*
X154825432Y-113301734D01*
X154955954Y-113488141D01*
X155116858Y-113649045D01*
X155116861Y-113649047D01*
X155303266Y-113779568D01*
X155509504Y-113875739D01*
X155729308Y-113934635D01*
X155891230Y-113948801D01*
X155955998Y-113954468D01*
X155956000Y-113954468D01*
X155956002Y-113954468D01*
X156012673Y-113949509D01*
X156182692Y-113934635D01*
X156402496Y-113875739D01*
X156608734Y-113779568D01*
X156795139Y-113649047D01*
X156956047Y-113488139D01*
X157086568Y-113301734D01*
X157182739Y-113095496D01*
X157241635Y-112875692D01*
X157261468Y-112649000D01*
X157260716Y-112640410D01*
X157253163Y-112554075D01*
X157241635Y-112422308D01*
X157182739Y-112202504D01*
X157086568Y-111996266D01*
X156956047Y-111809861D01*
X156956045Y-111809858D01*
X156795141Y-111648954D01*
X156608735Y-111518433D01*
X156608736Y-111518433D01*
X156608734Y-111518432D01*
X156550722Y-111491380D01*
X156498284Y-111445208D01*
X156479133Y-111378014D01*
X156499349Y-111311133D01*
X156550721Y-111266619D01*
X156608734Y-111239568D01*
X156795139Y-111109047D01*
X156956047Y-110948139D01*
X157086568Y-110761734D01*
X157182739Y-110555496D01*
X157241635Y-110335692D01*
X157261468Y-110109000D01*
X157241635Y-109882308D01*
X157182739Y-109662504D01*
X157086568Y-109456266D01*
X156956047Y-109269861D01*
X156956045Y-109269858D01*
X156795141Y-109108954D01*
X156608735Y-108978433D01*
X156608736Y-108978433D01*
X156608734Y-108978432D01*
X156550722Y-108951380D01*
X156498284Y-108905208D01*
X156479133Y-108838014D01*
X156499349Y-108771133D01*
X156550721Y-108726619D01*
X156608734Y-108699568D01*
X156795139Y-108569047D01*
X156956047Y-108408139D01*
X157086568Y-108221734D01*
X157182739Y-108015496D01*
X157241635Y-107795692D01*
X157258634Y-107601384D01*
X157261468Y-107569001D01*
X157261468Y-107568998D01*
X157241635Y-107342313D01*
X157241635Y-107342308D01*
X157182739Y-107122504D01*
X157086568Y-106916266D01*
X156956047Y-106729861D01*
X156956045Y-106729858D01*
X156795141Y-106568954D01*
X156670542Y-106481710D01*
X156608734Y-106438432D01*
X156550722Y-106411380D01*
X156498284Y-106365208D01*
X156479133Y-106298014D01*
X156499349Y-106231133D01*
X156550721Y-106186619D01*
X156608734Y-106159568D01*
X156795139Y-106029047D01*
X156956047Y-105868139D01*
X157086568Y-105681734D01*
X157182739Y-105475496D01*
X157241635Y-105255692D01*
X157261468Y-105029000D01*
X157241635Y-104802308D01*
X157196916Y-104635415D01*
X157182741Y-104582511D01*
X157182738Y-104582502D01*
X157086568Y-104376266D01*
X156956047Y-104189861D01*
X156956045Y-104189858D01*
X156795141Y-104028954D01*
X156608734Y-103898432D01*
X156608728Y-103898429D01*
X156550725Y-103871382D01*
X156498285Y-103825210D01*
X156479133Y-103758017D01*
X156499348Y-103691135D01*
X156550725Y-103646618D01*
X156608734Y-103619568D01*
X156795139Y-103489047D01*
X156956047Y-103328139D01*
X157086568Y-103141734D01*
X157182739Y-102935496D01*
X157241635Y-102715692D01*
X157261468Y-102489000D01*
X157260623Y-102479346D01*
X157253672Y-102399893D01*
X157241635Y-102262308D01*
X157182739Y-102042504D01*
X157086568Y-101836266D01*
X156956047Y-101649861D01*
X156956045Y-101649858D01*
X156795141Y-101488954D01*
X156608734Y-101358432D01*
X156608728Y-101358429D01*
X156550725Y-101331382D01*
X156498285Y-101285210D01*
X156479133Y-101218017D01*
X156499348Y-101151135D01*
X156550725Y-101106618D01*
X156608734Y-101079568D01*
X156795139Y-100949047D01*
X156956047Y-100788139D01*
X157086568Y-100601734D01*
X157182739Y-100395496D01*
X157241635Y-100175692D01*
X157261468Y-99949001D01*
X181828532Y-99949001D01*
X181848364Y-100175686D01*
X181848366Y-100175697D01*
X181907258Y-100395488D01*
X181907261Y-100395497D01*
X182003431Y-100601732D01*
X182003432Y-100601734D01*
X182133954Y-100788141D01*
X182294858Y-100949045D01*
X182294861Y-100949047D01*
X182481266Y-101079568D01*
X182687504Y-101175739D01*
X182907308Y-101234635D01*
X183069230Y-101248801D01*
X183133998Y-101254468D01*
X183134000Y-101254468D01*
X183134002Y-101254468D01*
X183190672Y-101249509D01*
X183360692Y-101234635D01*
X183580496Y-101175739D01*
X183786734Y-101079568D01*
X183973139Y-100949047D01*
X184134047Y-100788139D01*
X184264568Y-100601734D01*
X184360739Y-100395496D01*
X184419635Y-100175692D01*
X184439468Y-99949001D01*
X191988532Y-99949001D01*
X192008364Y-100175686D01*
X192008366Y-100175697D01*
X192067258Y-100395488D01*
X192067261Y-100395497D01*
X192163431Y-100601732D01*
X192163432Y-100601734D01*
X192293954Y-100788141D01*
X192454858Y-100949045D01*
X192454861Y-100949047D01*
X192641266Y-101079568D01*
X192847504Y-101175739D01*
X193067308Y-101234635D01*
X193229230Y-101248801D01*
X193293998Y-101254468D01*
X193294000Y-101254468D01*
X193294002Y-101254468D01*
X193350672Y-101249509D01*
X193520692Y-101234635D01*
X193740496Y-101175739D01*
X193946734Y-101079568D01*
X194133139Y-100949047D01*
X194294047Y-100788139D01*
X194424568Y-100601734D01*
X194520739Y-100395496D01*
X194579635Y-100175692D01*
X194599468Y-99949000D01*
X194579635Y-99722308D01*
X194520739Y-99502504D01*
X194424568Y-99296266D01*
X194294047Y-99109861D01*
X194294045Y-99109858D01*
X194133141Y-98948954D01*
X193946734Y-98818432D01*
X193946732Y-98818431D01*
X193740497Y-98722261D01*
X193740488Y-98722258D01*
X193520697Y-98663366D01*
X193520693Y-98663365D01*
X193520692Y-98663365D01*
X193520691Y-98663364D01*
X193520686Y-98663364D01*
X193294002Y-98643532D01*
X193293998Y-98643532D01*
X193067313Y-98663364D01*
X193067302Y-98663366D01*
X192847511Y-98722258D01*
X192847502Y-98722261D01*
X192641267Y-98818431D01*
X192641265Y-98818432D01*
X192454858Y-98948954D01*
X192293954Y-99109858D01*
X192163432Y-99296265D01*
X192163431Y-99296267D01*
X192067261Y-99502502D01*
X192067258Y-99502511D01*
X192008366Y-99722302D01*
X192008364Y-99722313D01*
X191988532Y-99948998D01*
X191988532Y-99949001D01*
X184439468Y-99949001D01*
X184439468Y-99949000D01*
X184419635Y-99722308D01*
X184360739Y-99502504D01*
X184264568Y-99296266D01*
X184134047Y-99109861D01*
X184134045Y-99109858D01*
X183973141Y-98948954D01*
X183786734Y-98818432D01*
X183786732Y-98818431D01*
X183580497Y-98722261D01*
X183580488Y-98722258D01*
X183360697Y-98663366D01*
X183360693Y-98663365D01*
X183360692Y-98663365D01*
X183360691Y-98663364D01*
X183360686Y-98663364D01*
X183134002Y-98643532D01*
X183133998Y-98643532D01*
X182907313Y-98663364D01*
X182907302Y-98663366D01*
X182687511Y-98722258D01*
X182687502Y-98722261D01*
X182481267Y-98818431D01*
X182481265Y-98818432D01*
X182294858Y-98948954D01*
X182133954Y-99109858D01*
X182003432Y-99296265D01*
X182003431Y-99296267D01*
X181907261Y-99502502D01*
X181907258Y-99502511D01*
X181848366Y-99722302D01*
X181848364Y-99722313D01*
X181828532Y-99948998D01*
X181828532Y-99949001D01*
X157261468Y-99949001D01*
X157261468Y-99949000D01*
X157241635Y-99722308D01*
X157182739Y-99502504D01*
X157086568Y-99296266D01*
X156956047Y-99109861D01*
X156956045Y-99109858D01*
X156795141Y-98948954D01*
X156608734Y-98818432D01*
X156608728Y-98818429D01*
X156550725Y-98791382D01*
X156498285Y-98745210D01*
X156479133Y-98678017D01*
X156499348Y-98611135D01*
X156550725Y-98566618D01*
X156608734Y-98539568D01*
X156795139Y-98409047D01*
X156956047Y-98248139D01*
X157086568Y-98061734D01*
X157182739Y-97855496D01*
X157241635Y-97635692D01*
X157261468Y-97409000D01*
X157242396Y-97191005D01*
X159126357Y-97191005D01*
X159146890Y-97438812D01*
X159146892Y-97438824D01*
X159207936Y-97679881D01*
X159307826Y-97907606D01*
X159443833Y-98115782D01*
X159443836Y-98115785D01*
X159612256Y-98298738D01*
X159808491Y-98451474D01*
X160027190Y-98569828D01*
X160262386Y-98650571D01*
X160507665Y-98691500D01*
X160756335Y-98691500D01*
X161001614Y-98650571D01*
X161236810Y-98569828D01*
X161455509Y-98451474D01*
X161651744Y-98298738D01*
X161820164Y-98115785D01*
X161956173Y-97907607D01*
X162056063Y-97679881D01*
X162117108Y-97438821D01*
X162137643Y-97191005D01*
X165626357Y-97191005D01*
X165646890Y-97438812D01*
X165646892Y-97438824D01*
X165707936Y-97679881D01*
X165807826Y-97907606D01*
X165943833Y-98115782D01*
X165943836Y-98115785D01*
X166112256Y-98298738D01*
X166308491Y-98451474D01*
X166527190Y-98569828D01*
X166762386Y-98650571D01*
X167007665Y-98691500D01*
X167256335Y-98691500D01*
X167501614Y-98650571D01*
X167736810Y-98569828D01*
X167955509Y-98451474D01*
X168151744Y-98298738D01*
X168320164Y-98115785D01*
X168456173Y-97907607D01*
X168556063Y-97679881D01*
X168617108Y-97438821D01*
X168637643Y-97191005D01*
X169996357Y-97191005D01*
X170016890Y-97438812D01*
X170016892Y-97438824D01*
X170077936Y-97679881D01*
X170177826Y-97907606D01*
X170313833Y-98115782D01*
X170313836Y-98115785D01*
X170482256Y-98298738D01*
X170678491Y-98451474D01*
X170897190Y-98569828D01*
X171132386Y-98650571D01*
X171377665Y-98691500D01*
X171626335Y-98691500D01*
X171871614Y-98650571D01*
X172106810Y-98569828D01*
X172325509Y-98451474D01*
X172521744Y-98298738D01*
X172690164Y-98115785D01*
X172826173Y-97907607D01*
X172926063Y-97679881D01*
X172987108Y-97438821D01*
X173007643Y-97191005D01*
X176496357Y-97191005D01*
X176516890Y-97438812D01*
X176516892Y-97438824D01*
X176577936Y-97679881D01*
X176677826Y-97907606D01*
X176813833Y-98115782D01*
X176813836Y-98115785D01*
X176982256Y-98298738D01*
X177178491Y-98451474D01*
X177397190Y-98569828D01*
X177632386Y-98650571D01*
X177877665Y-98691500D01*
X178126335Y-98691500D01*
X178371614Y-98650571D01*
X178606810Y-98569828D01*
X178825509Y-98451474D01*
X179021744Y-98298738D01*
X179190164Y-98115785D01*
X179326173Y-97907607D01*
X179426063Y-97679881D01*
X179487108Y-97438821D01*
X179507643Y-97191000D01*
X179488710Y-96962511D01*
X179487109Y-96943187D01*
X179487107Y-96943175D01*
X179426063Y-96702118D01*
X179326173Y-96474393D01*
X179190166Y-96266217D01*
X179168557Y-96242744D01*
X179021744Y-96083262D01*
X178825509Y-95930526D01*
X178825507Y-95930525D01*
X178825506Y-95930524D01*
X178606811Y-95812172D01*
X178606802Y-95812169D01*
X178371616Y-95731429D01*
X178126335Y-95690500D01*
X177877665Y-95690500D01*
X177632383Y-95731429D01*
X177397197Y-95812169D01*
X177397188Y-95812172D01*
X177178493Y-95930524D01*
X176982257Y-96083261D01*
X176813833Y-96266217D01*
X176677826Y-96474393D01*
X176577936Y-96702118D01*
X176516892Y-96943175D01*
X176516890Y-96943187D01*
X176496357Y-97190994D01*
X176496357Y-97191005D01*
X173007643Y-97191005D01*
X173007643Y-97191000D01*
X172988710Y-96962511D01*
X172987109Y-96943187D01*
X172987107Y-96943175D01*
X172926063Y-96702118D01*
X172826173Y-96474393D01*
X172690166Y-96266217D01*
X172668557Y-96242744D01*
X172521744Y-96083262D01*
X172325509Y-95930526D01*
X172325507Y-95930525D01*
X172325506Y-95930524D01*
X172106811Y-95812172D01*
X172106802Y-95812169D01*
X171871616Y-95731429D01*
X171626335Y-95690500D01*
X171377665Y-95690500D01*
X171132383Y-95731429D01*
X170897197Y-95812169D01*
X170897188Y-95812172D01*
X170678493Y-95930524D01*
X170482257Y-96083261D01*
X170313833Y-96266217D01*
X170177826Y-96474393D01*
X170077936Y-96702118D01*
X170016892Y-96943175D01*
X170016890Y-96943187D01*
X169996357Y-97190994D01*
X169996357Y-97191005D01*
X168637643Y-97191005D01*
X168637643Y-97191000D01*
X168618710Y-96962511D01*
X168617109Y-96943187D01*
X168617107Y-96943175D01*
X168556063Y-96702118D01*
X168456173Y-96474393D01*
X168320166Y-96266217D01*
X168298557Y-96242744D01*
X168151744Y-96083262D01*
X167955509Y-95930526D01*
X167955507Y-95930525D01*
X167955506Y-95930524D01*
X167736811Y-95812172D01*
X167736802Y-95812169D01*
X167501616Y-95731429D01*
X167256335Y-95690500D01*
X167007665Y-95690500D01*
X166762383Y-95731429D01*
X166527197Y-95812169D01*
X166527188Y-95812172D01*
X166308493Y-95930524D01*
X166112257Y-96083261D01*
X165943833Y-96266217D01*
X165807826Y-96474393D01*
X165707936Y-96702118D01*
X165646892Y-96943175D01*
X165646890Y-96943187D01*
X165626357Y-97190994D01*
X165626357Y-97191005D01*
X162137643Y-97191005D01*
X162137643Y-97191000D01*
X162136923Y-97182313D01*
X162117109Y-96943187D01*
X162117107Y-96943175D01*
X162056063Y-96702118D01*
X161956173Y-96474393D01*
X161820166Y-96266217D01*
X161798557Y-96242744D01*
X161651744Y-96083262D01*
X161455509Y-95930526D01*
X161455507Y-95930525D01*
X161455506Y-95930524D01*
X161236811Y-95812172D01*
X161236802Y-95812169D01*
X161001616Y-95731429D01*
X160756335Y-95690500D01*
X160507665Y-95690500D01*
X160262383Y-95731429D01*
X160027197Y-95812169D01*
X160027188Y-95812172D01*
X159808493Y-95930524D01*
X159612257Y-96083261D01*
X159443833Y-96266217D01*
X159307826Y-96474393D01*
X159207936Y-96702118D01*
X159146892Y-96943175D01*
X159146890Y-96943187D01*
X159126357Y-97190994D01*
X159126357Y-97191005D01*
X157242396Y-97191005D01*
X157241635Y-97182308D01*
X157182739Y-96962504D01*
X157086568Y-96756266D01*
X156956047Y-96569861D01*
X156956045Y-96569858D01*
X156795141Y-96408954D01*
X156608734Y-96278432D01*
X156608728Y-96278429D01*
X156550725Y-96251382D01*
X156498285Y-96205210D01*
X156479133Y-96138017D01*
X156499348Y-96071135D01*
X156550725Y-96026618D01*
X156608734Y-95999568D01*
X156795139Y-95869047D01*
X156956047Y-95708139D01*
X157086568Y-95521734D01*
X157182739Y-95315496D01*
X157241635Y-95095692D01*
X157261468Y-94869000D01*
X157241635Y-94642308D01*
X157182739Y-94422504D01*
X157086568Y-94216266D01*
X156956047Y-94029861D01*
X156956045Y-94029858D01*
X156795141Y-93868954D01*
X156608734Y-93738432D01*
X156608728Y-93738429D01*
X156550725Y-93711382D01*
X156498285Y-93665210D01*
X156479133Y-93598017D01*
X156499348Y-93531135D01*
X156550725Y-93486618D01*
X156608734Y-93459568D01*
X156795139Y-93329047D01*
X156956047Y-93168139D01*
X157069950Y-93005466D01*
X157124526Y-92961842D01*
X157167631Y-92952651D01*
X157197627Y-92951709D01*
X157216869Y-92946117D01*
X157235912Y-92942174D01*
X157255792Y-92939664D01*
X157299122Y-92922507D01*
X157304646Y-92920617D01*
X157308396Y-92919527D01*
X157349390Y-92907618D01*
X157366629Y-92897422D01*
X157384103Y-92888862D01*
X157402727Y-92881488D01*
X157402727Y-92881487D01*
X157402732Y-92881486D01*
X157440449Y-92854082D01*
X157445305Y-92850892D01*
X157485420Y-92827170D01*
X157499586Y-92813003D01*
X157514381Y-92800368D01*
X157517619Y-92798014D01*
X157530587Y-92788594D01*
X157560302Y-92752674D01*
X157564202Y-92748387D01*
X169005771Y-81306819D01*
X169067095Y-81273334D01*
X169093453Y-81270500D01*
X188062200Y-81270500D01*
X188129239Y-81290185D01*
X188163775Y-81323376D01*
X188259174Y-81459620D01*
X188259175Y-81459621D01*
X188415378Y-81615824D01*
X188415384Y-81615829D01*
X188596333Y-81742531D01*
X188596335Y-81742532D01*
X188596338Y-81742534D01*
X188715748Y-81798215D01*
X188725189Y-81802618D01*
X188777628Y-81848790D01*
X188796780Y-81915984D01*
X188776564Y-81982865D01*
X188725189Y-82027382D01*
X188596340Y-82087465D01*
X188596338Y-82087466D01*
X188415377Y-82214175D01*
X188259175Y-82370377D01*
X188132466Y-82551338D01*
X188132465Y-82551340D01*
X188039107Y-82751548D01*
X188039104Y-82751554D01*
X187981930Y-82964929D01*
X187981929Y-82964937D01*
X187962677Y-83184997D01*
X187962677Y-83185002D01*
X187981929Y-83405062D01*
X187981930Y-83405070D01*
X188039104Y-83618445D01*
X188039105Y-83618447D01*
X188039106Y-83618450D01*
X188132466Y-83818662D01*
X188132468Y-83818666D01*
X188259170Y-83999615D01*
X188259175Y-83999621D01*
X188415378Y-84155824D01*
X188415384Y-84155829D01*
X188596333Y-84282531D01*
X188596335Y-84282532D01*
X188596338Y-84282534D01*
X188715748Y-84338215D01*
X188725189Y-84342618D01*
X188777628Y-84388790D01*
X188796780Y-84455984D01*
X188776564Y-84522865D01*
X188725189Y-84567382D01*
X188596340Y-84627465D01*
X188596338Y-84627466D01*
X188415377Y-84754175D01*
X188259175Y-84910377D01*
X188132466Y-85091338D01*
X188132465Y-85091340D01*
X188039107Y-85291548D01*
X188039104Y-85291554D01*
X187981930Y-85504929D01*
X187981929Y-85504937D01*
X187962677Y-85724997D01*
X187962677Y-85725002D01*
X187981929Y-85945062D01*
X187981930Y-85945070D01*
X188039104Y-86158445D01*
X188039105Y-86158447D01*
X188039106Y-86158450D01*
X188081308Y-86248953D01*
X188132466Y-86358662D01*
X188132468Y-86358666D01*
X188259170Y-86539615D01*
X188259175Y-86539621D01*
X188415378Y-86695824D01*
X188415384Y-86695829D01*
X188596333Y-86822531D01*
X188596335Y-86822532D01*
X188596338Y-86822534D01*
X188796550Y-86915894D01*
X189009932Y-86973070D01*
X189167123Y-86986822D01*
X189229998Y-86992323D01*
X189230000Y-86992323D01*
X189230002Y-86992323D01*
X189285016Y-86987509D01*
X189450068Y-86973070D01*
X189663450Y-86915894D01*
X189863662Y-86822534D01*
X190044620Y-86695826D01*
X190200826Y-86539620D01*
X190327534Y-86358662D01*
X190420894Y-86158450D01*
X190478070Y-85945068D01*
X190497323Y-85725000D01*
X190478070Y-85504932D01*
X190420894Y-85291550D01*
X190327534Y-85091339D01*
X190218550Y-84935692D01*
X190200827Y-84910381D01*
X190200823Y-84910377D01*
X190044620Y-84754174D01*
X190044616Y-84754171D01*
X190044615Y-84754170D01*
X189863666Y-84627468D01*
X189863658Y-84627464D01*
X189734811Y-84567382D01*
X189682371Y-84521210D01*
X189663219Y-84454017D01*
X189683435Y-84387135D01*
X189734811Y-84342618D01*
X189740802Y-84339824D01*
X189863662Y-84282534D01*
X190044620Y-84155826D01*
X190200826Y-83999620D01*
X190327534Y-83818662D01*
X190420894Y-83618450D01*
X190478070Y-83405068D01*
X190497323Y-83185000D01*
X190478070Y-82964932D01*
X190420894Y-82751550D01*
X190327534Y-82551339D01*
X190218550Y-82395692D01*
X190200827Y-82370381D01*
X190200823Y-82370377D01*
X190044620Y-82214174D01*
X190044616Y-82214171D01*
X190044615Y-82214170D01*
X189863666Y-82087468D01*
X189863658Y-82087464D01*
X189734811Y-82027382D01*
X189682371Y-81981210D01*
X189663219Y-81914017D01*
X189683435Y-81847135D01*
X189734811Y-81802618D01*
X189740802Y-81799824D01*
X189863662Y-81742534D01*
X190044620Y-81615826D01*
X190200826Y-81459620D01*
X190327534Y-81278662D01*
X190420894Y-81078450D01*
X190478070Y-80865068D01*
X190497323Y-80645000D01*
X190478070Y-80424932D01*
X190420894Y-80211550D01*
X190327534Y-80011339D01*
X190218550Y-79855692D01*
X190200827Y-79830381D01*
X190200823Y-79830377D01*
X190044620Y-79674174D01*
X190044616Y-79674171D01*
X190044615Y-79674170D01*
X189863666Y-79547468D01*
X189863658Y-79547464D01*
X189734811Y-79487382D01*
X189682371Y-79441210D01*
X189663219Y-79374017D01*
X189683435Y-79307135D01*
X189734811Y-79262618D01*
X189740802Y-79259824D01*
X189863662Y-79202534D01*
X190044620Y-79075826D01*
X190200826Y-78919620D01*
X190327534Y-78738662D01*
X190420894Y-78538450D01*
X190478070Y-78325068D01*
X190497323Y-78105000D01*
X190478070Y-77884932D01*
X190420894Y-77671550D01*
X190327534Y-77471339D01*
X190218550Y-77315692D01*
X190200827Y-77290381D01*
X190200823Y-77290377D01*
X190044620Y-77134174D01*
X190044616Y-77134171D01*
X190044615Y-77134170D01*
X189863666Y-77007468D01*
X189863658Y-77007464D01*
X189734811Y-76947382D01*
X189682371Y-76901210D01*
X189663219Y-76834017D01*
X189683435Y-76767135D01*
X189734811Y-76722618D01*
X189740802Y-76719824D01*
X189863662Y-76662534D01*
X190044620Y-76535826D01*
X190200826Y-76379620D01*
X190327534Y-76198662D01*
X190420894Y-75998450D01*
X190478070Y-75785068D01*
X190497323Y-75565000D01*
X190478070Y-75344932D01*
X190420894Y-75131550D01*
X190327534Y-74931339D01*
X190200826Y-74750380D01*
X190044620Y-74594174D01*
X190044616Y-74594171D01*
X190044615Y-74594170D01*
X189863666Y-74467468D01*
X189863658Y-74467464D01*
X189734219Y-74407106D01*
X189681779Y-74360934D01*
X189662627Y-74293741D01*
X189682843Y-74226859D01*
X189734219Y-74182342D01*
X189863408Y-74122100D01*
X189863420Y-74122093D01*
X189928186Y-74076742D01*
X189928187Y-74076740D01*
X189257448Y-73406000D01*
X189261569Y-73406000D01*
X189355421Y-73390339D01*
X189467251Y-73329820D01*
X189553371Y-73236269D01*
X189604448Y-73119823D01*
X189610105Y-73051552D01*
X190281740Y-73723187D01*
X190281742Y-73723186D01*
X190327093Y-73658420D01*
X190327100Y-73658408D01*
X190420419Y-73458284D01*
X190420424Y-73458270D01*
X190477573Y-73244986D01*
X190477575Y-73244976D01*
X190496821Y-73025000D01*
X190496821Y-73024999D01*
X190477575Y-72805023D01*
X190477573Y-72805013D01*
X190420424Y-72591729D01*
X190420420Y-72591720D01*
X190327098Y-72391590D01*
X190281740Y-72326811D01*
X189614903Y-72993648D01*
X189614949Y-72993102D01*
X189583734Y-72869838D01*
X189514187Y-72763388D01*
X189413843Y-72685287D01*
X189293578Y-72644000D01*
X189257447Y-72644000D01*
X189928187Y-71973258D01*
X189863409Y-71927900D01*
X189863407Y-71927899D01*
X189734219Y-71867658D01*
X189681779Y-71821486D01*
X189662627Y-71754293D01*
X189682843Y-71687411D01*
X189734219Y-71642894D01*
X189863662Y-71582534D01*
X190044620Y-71455826D01*
X190200826Y-71299620D01*
X190327534Y-71118662D01*
X190420894Y-70918450D01*
X190478070Y-70705068D01*
X190497323Y-70485000D01*
X190478070Y-70264932D01*
X190420894Y-70051550D01*
X190327534Y-69851339D01*
X190200826Y-69670380D01*
X190044620Y-69514174D01*
X190044616Y-69514171D01*
X190044615Y-69514170D01*
X189863666Y-69387468D01*
X189863662Y-69387466D01*
X189863660Y-69387465D01*
X189663450Y-69294106D01*
X189663447Y-69294105D01*
X189663445Y-69294104D01*
X189450070Y-69236930D01*
X189450062Y-69236929D01*
X189230002Y-69217677D01*
X189229998Y-69217677D01*
X189009937Y-69236929D01*
X189009929Y-69236930D01*
X188796554Y-69294104D01*
X188796548Y-69294107D01*
X188596340Y-69387465D01*
X188596338Y-69387466D01*
X188415377Y-69514175D01*
X188259175Y-69670377D01*
X188132466Y-69851338D01*
X188132465Y-69851340D01*
X188039107Y-70051548D01*
X188039104Y-70051554D01*
X187981930Y-70264929D01*
X187981929Y-70264937D01*
X187962677Y-70484997D01*
X187962677Y-70485002D01*
X187981929Y-70705062D01*
X187981930Y-70705070D01*
X188039104Y-70918445D01*
X188039105Y-70918447D01*
X188039106Y-70918450D01*
X188132466Y-71118661D01*
X188132466Y-71118662D01*
X188132468Y-71118666D01*
X188259170Y-71299615D01*
X188259175Y-71299621D01*
X188415378Y-71455824D01*
X188415384Y-71455829D01*
X188596333Y-71582531D01*
X188596335Y-71582532D01*
X188596338Y-71582534D01*
X188725781Y-71642894D01*
X188778220Y-71689066D01*
X188797372Y-71756260D01*
X188777156Y-71823141D01*
X188725781Y-71867658D01*
X188596586Y-71927903D01*
X188531812Y-71973257D01*
X188531811Y-71973258D01*
X189202554Y-72644000D01*
X189198431Y-72644000D01*
X189104579Y-72659661D01*
X188992749Y-72720180D01*
X188906629Y-72813731D01*
X188855552Y-72930177D01*
X188849894Y-72998446D01*
X188178258Y-72326811D01*
X188178257Y-72326812D01*
X188132903Y-72391586D01*
X188039579Y-72591720D01*
X188039575Y-72591729D01*
X187982426Y-72805013D01*
X187982424Y-72805023D01*
X187963179Y-73024999D01*
X187963179Y-73025000D01*
X187982424Y-73244976D01*
X187982426Y-73244986D01*
X188039575Y-73458270D01*
X188039580Y-73458284D01*
X188132899Y-73658407D01*
X188132900Y-73658409D01*
X188178258Y-73723187D01*
X188845096Y-73056349D01*
X188845051Y-73056898D01*
X188876266Y-73180162D01*
X188945813Y-73286612D01*
X189046157Y-73364713D01*
X189166422Y-73406000D01*
X189202553Y-73406000D01*
X188531811Y-74076741D01*
X188596582Y-74122094D01*
X188596588Y-74122098D01*
X188725781Y-74182342D01*
X188778220Y-74228514D01*
X188797372Y-74295708D01*
X188777156Y-74362589D01*
X188725781Y-74407106D01*
X188596340Y-74467465D01*
X188596338Y-74467466D01*
X188415377Y-74594175D01*
X188259175Y-74750377D01*
X188132466Y-74931338D01*
X188132465Y-74931340D01*
X188039107Y-75131548D01*
X188039104Y-75131554D01*
X187981930Y-75344929D01*
X187981929Y-75344937D01*
X187962677Y-75564997D01*
X187962677Y-75565002D01*
X187981929Y-75785062D01*
X187981930Y-75785070D01*
X188039104Y-75998445D01*
X188039105Y-75998447D01*
X188039106Y-75998450D01*
X188061591Y-76046669D01*
X188132466Y-76198662D01*
X188132468Y-76198666D01*
X188259170Y-76379615D01*
X188259175Y-76379621D01*
X188415378Y-76535824D01*
X188415384Y-76535829D01*
X188596333Y-76662531D01*
X188596335Y-76662532D01*
X188596338Y-76662534D01*
X188715748Y-76718215D01*
X188725189Y-76722618D01*
X188777628Y-76768790D01*
X188796780Y-76835984D01*
X188776564Y-76902865D01*
X188725189Y-76947382D01*
X188596340Y-77007465D01*
X188596338Y-77007466D01*
X188415377Y-77134175D01*
X188259175Y-77290377D01*
X188163776Y-77426623D01*
X188109199Y-77470248D01*
X188062201Y-77479500D01*
X165791453Y-77479500D01*
X165724414Y-77459815D01*
X165703772Y-77443181D01*
X161536803Y-73276212D01*
X161526980Y-73263950D01*
X161526759Y-73264134D01*
X161521786Y-73258122D01*
X161472066Y-73211432D01*
X161470666Y-73210075D01*
X161450476Y-73189884D01*
X161444986Y-73185625D01*
X161440561Y-73181847D01*
X161406582Y-73149938D01*
X161406580Y-73149936D01*
X161406577Y-73149935D01*
X161389029Y-73140288D01*
X161372763Y-73129604D01*
X161356936Y-73117327D01*
X161356935Y-73117326D01*
X161356933Y-73117325D01*
X161314168Y-73098818D01*
X161308922Y-73096248D01*
X161268093Y-73073803D01*
X161268092Y-73073802D01*
X161248693Y-73068822D01*
X161230281Y-73062518D01*
X161211898Y-73054562D01*
X161211892Y-73054560D01*
X161165874Y-73047272D01*
X161160152Y-73046087D01*
X161115021Y-73034500D01*
X161115019Y-73034500D01*
X161094984Y-73034500D01*
X161075586Y-73032973D01*
X161068162Y-73031797D01*
X161055805Y-73029840D01*
X161055804Y-73029840D01*
X161009416Y-73034225D01*
X161003578Y-73034500D01*
X154006743Y-73034500D01*
X153991122Y-73032775D01*
X153991096Y-73033061D01*
X153983333Y-73032326D01*
X153915153Y-73034469D01*
X153913206Y-73034500D01*
X153884649Y-73034500D01*
X153877766Y-73035369D01*
X153871949Y-73035826D01*
X153825373Y-73037290D01*
X153806129Y-73042881D01*
X153787079Y-73046825D01*
X153767211Y-73049334D01*
X153723884Y-73066488D01*
X153718358Y-73068379D01*
X153673614Y-73081379D01*
X153673610Y-73081381D01*
X153656366Y-73091579D01*
X153638905Y-73100133D01*
X153620274Y-73107510D01*
X153620262Y-73107517D01*
X153582570Y-73134902D01*
X153577687Y-73138109D01*
X153537580Y-73161829D01*
X153523414Y-73175995D01*
X153508624Y-73188627D01*
X153492414Y-73200404D01*
X153492411Y-73200407D01*
X153462710Y-73236309D01*
X153458777Y-73240631D01*
X151508208Y-75191199D01*
X151495951Y-75201020D01*
X151496134Y-75201241D01*
X151490122Y-75206214D01*
X151443432Y-75255932D01*
X151442079Y-75257329D01*
X151421889Y-75277519D01*
X151421877Y-75277532D01*
X151417621Y-75283017D01*
X151413837Y-75287447D01*
X151381937Y-75321418D01*
X151381936Y-75321420D01*
X151372284Y-75338976D01*
X151361610Y-75355226D01*
X151349329Y-75371061D01*
X151349324Y-75371068D01*
X151330815Y-75413838D01*
X151328245Y-75419084D01*
X151305803Y-75459906D01*
X151300822Y-75479307D01*
X151294521Y-75497710D01*
X151286562Y-75516102D01*
X151286561Y-75516105D01*
X151279271Y-75562127D01*
X151278087Y-75567846D01*
X151266501Y-75612972D01*
X151266500Y-75612982D01*
X151266500Y-75633016D01*
X151264973Y-75652416D01*
X151261839Y-75672194D01*
X145601500Y-75672194D01*
X145601500Y-73394848D01*
X145621185Y-73327809D01*
X145637819Y-73307167D01*
X171166167Y-47778819D01*
X171227490Y-47745334D01*
X171253848Y-47742500D01*
X185268200Y-47742500D01*
X185335239Y-47762185D01*
X185369775Y-47795376D01*
X185465174Y-47931620D01*
X185465175Y-47931621D01*
X185621378Y-48087824D01*
X185621384Y-48087829D01*
X185802333Y-48214531D01*
X185802335Y-48214532D01*
X185802338Y-48214534D01*
X185921748Y-48270215D01*
X185931189Y-48274618D01*
X185983628Y-48320790D01*
X186002780Y-48387984D01*
X185982564Y-48454865D01*
X185931189Y-48499382D01*
X185802340Y-48559465D01*
X185802338Y-48559466D01*
X185621377Y-48686175D01*
X185465175Y-48842377D01*
X185338466Y-49023338D01*
X185338465Y-49023340D01*
X185245107Y-49223548D01*
X185245104Y-49223554D01*
X185187930Y-49436929D01*
X185187929Y-49436937D01*
X185168677Y-49656997D01*
X185168677Y-49657002D01*
X185187929Y-49877062D01*
X185187930Y-49877070D01*
X185245104Y-50090445D01*
X185245105Y-50090447D01*
X185245106Y-50090450D01*
X185338465Y-50290662D01*
X185338466Y-50290662D01*
X185338468Y-50290666D01*
X185465170Y-50471615D01*
X185465175Y-50471621D01*
X185621378Y-50627824D01*
X185621384Y-50627829D01*
X185802333Y-50754531D01*
X185802335Y-50754532D01*
X185802338Y-50754534D01*
X185931781Y-50814894D01*
X185984220Y-50861066D01*
X186003372Y-50928260D01*
X185983156Y-50995141D01*
X185931781Y-51039658D01*
X185802586Y-51099903D01*
X185737812Y-51145257D01*
X185737811Y-51145258D01*
X186408554Y-51816000D01*
X186404431Y-51816000D01*
X186310579Y-51831661D01*
X186198749Y-51892180D01*
X186112629Y-51985731D01*
X186061552Y-52102177D01*
X186055894Y-52170446D01*
X185384258Y-51498811D01*
X185384257Y-51498812D01*
X185338903Y-51563586D01*
X185245579Y-51763720D01*
X185245575Y-51763729D01*
X185188426Y-51977013D01*
X185188424Y-51977023D01*
X185169179Y-52196999D01*
X185169179Y-52197000D01*
X185188424Y-52416976D01*
X185188426Y-52416986D01*
X185245575Y-52630270D01*
X185245580Y-52630284D01*
X185338899Y-52830407D01*
X185338900Y-52830409D01*
X185384258Y-52895187D01*
X186051096Y-52228348D01*
X186051051Y-52228898D01*
X186082266Y-52352162D01*
X186151813Y-52458612D01*
X186252157Y-52536713D01*
X186372422Y-52578000D01*
X186408553Y-52578000D01*
X185737811Y-53248741D01*
X185802582Y-53294094D01*
X185802592Y-53294100D01*
X186002715Y-53387419D01*
X186002729Y-53387424D01*
X186216013Y-53444573D01*
X186216023Y-53444575D01*
X186435999Y-53463821D01*
X186436001Y-53463821D01*
X186655976Y-53444575D01*
X186655986Y-53444573D01*
X186869270Y-53387424D01*
X186869284Y-53387419D01*
X187069408Y-53294100D01*
X187069420Y-53294093D01*
X187134186Y-53248742D01*
X187134187Y-53248740D01*
X186463448Y-52578000D01*
X186467569Y-52578000D01*
X186561421Y-52562339D01*
X186673251Y-52501820D01*
X186759371Y-52408269D01*
X186810448Y-52291823D01*
X186816105Y-52223552D01*
X187487740Y-52895187D01*
X187487742Y-52895186D01*
X187533093Y-52830420D01*
X187533100Y-52830408D01*
X187626419Y-52630284D01*
X187626424Y-52630270D01*
X187683573Y-52416986D01*
X187683575Y-52416976D01*
X187702821Y-52197000D01*
X187702821Y-52196999D01*
X187683575Y-51977023D01*
X187683573Y-51977013D01*
X187626424Y-51763729D01*
X187626420Y-51763720D01*
X187533098Y-51563590D01*
X187487740Y-51498811D01*
X186820903Y-52165648D01*
X186820949Y-52165102D01*
X186789734Y-52041838D01*
X186720187Y-51935388D01*
X186619843Y-51857287D01*
X186499578Y-51816000D01*
X186463447Y-51816000D01*
X187134187Y-51145258D01*
X187069409Y-51099900D01*
X187069407Y-51099899D01*
X186940219Y-51039658D01*
X186887779Y-50993486D01*
X186868627Y-50926293D01*
X186888843Y-50859411D01*
X186940219Y-50814894D01*
X187069662Y-50754534D01*
X187250620Y-50627826D01*
X187406826Y-50471620D01*
X187533534Y-50290662D01*
X187626894Y-50090450D01*
X187684070Y-49877068D01*
X187703323Y-49657000D01*
X187684070Y-49436932D01*
X187626894Y-49223550D01*
X187533534Y-49023339D01*
X187406826Y-48842380D01*
X187250620Y-48686174D01*
X187250616Y-48686171D01*
X187250615Y-48686170D01*
X187069666Y-48559468D01*
X187069658Y-48559464D01*
X186940811Y-48499382D01*
X186888371Y-48453210D01*
X186869219Y-48386017D01*
X186889435Y-48319135D01*
X186940811Y-48274618D01*
X186946802Y-48271824D01*
X187069662Y-48214534D01*
X187250620Y-48087826D01*
X187406826Y-47931620D01*
X187533534Y-47750662D01*
X187626894Y-47550450D01*
X187684070Y-47337068D01*
X187703323Y-47117000D01*
X187684070Y-46896932D01*
X187626894Y-46683550D01*
X187533534Y-46483339D01*
X187406826Y-46302380D01*
X187250620Y-46146174D01*
X187250616Y-46146171D01*
X187250615Y-46146170D01*
X187069666Y-46019468D01*
X187069658Y-46019464D01*
X186940811Y-45959382D01*
X186888371Y-45913210D01*
X186869219Y-45846017D01*
X186889435Y-45779135D01*
X186940811Y-45734618D01*
X186946802Y-45731824D01*
X187069662Y-45674534D01*
X187250620Y-45547826D01*
X187406826Y-45391620D01*
X187533534Y-45210662D01*
X187626894Y-45010450D01*
X187684070Y-44797068D01*
X187703323Y-44577000D01*
X187684070Y-44356932D01*
X187626894Y-44143550D01*
X187533534Y-43943339D01*
X187406826Y-43762380D01*
X187250620Y-43606174D01*
X187250616Y-43606171D01*
X187250615Y-43606170D01*
X187069666Y-43479468D01*
X187069662Y-43479466D01*
X187069662Y-43479465D01*
X186869450Y-43386106D01*
X186869447Y-43386105D01*
X186869445Y-43386104D01*
X186656070Y-43328930D01*
X186656062Y-43328929D01*
X186436002Y-43309677D01*
X186435998Y-43309677D01*
X186215937Y-43328929D01*
X186215929Y-43328930D01*
X186002554Y-43386104D01*
X186002548Y-43386107D01*
X185802340Y-43479465D01*
X185802338Y-43479466D01*
X185621377Y-43606175D01*
X185465175Y-43762377D01*
X185369776Y-43898623D01*
X185315199Y-43942248D01*
X185268201Y-43951500D01*
X172929737Y-43951500D01*
X172914120Y-43949776D01*
X172914093Y-43950062D01*
X172906331Y-43949327D01*
X172838171Y-43951469D01*
X172836224Y-43951500D01*
X172807650Y-43951500D01*
X172806929Y-43951590D01*
X172800757Y-43952369D01*
X172794945Y-43952826D01*
X172748378Y-43954290D01*
X172748367Y-43954292D01*
X172729134Y-43959879D01*
X172710094Y-43963822D01*
X172690217Y-43966334D01*
X172690210Y-43966335D01*
X172690208Y-43966336D01*
X172690206Y-43966336D01*
X172690205Y-43966337D01*
X172646868Y-43983494D01*
X172641342Y-43985386D01*
X172596611Y-43998382D01*
X172596608Y-43998383D01*
X172579363Y-44008581D01*
X172561901Y-44017135D01*
X172543272Y-44024511D01*
X172543267Y-44024513D01*
X172505564Y-44051906D01*
X172500682Y-44055112D01*
X172460580Y-44078828D01*
X172446408Y-44093000D01*
X172431623Y-44105628D01*
X172415412Y-44117407D01*
X172385709Y-44153310D01*
X172381777Y-44157631D01*
X144142208Y-72397199D01*
X144129951Y-72407020D01*
X144130134Y-72407241D01*
X144124122Y-72412214D01*
X144077432Y-72461932D01*
X144076079Y-72463329D01*
X144055889Y-72483519D01*
X144055877Y-72483532D01*
X144051621Y-72489017D01*
X144047837Y-72493447D01*
X144015937Y-72527418D01*
X144015936Y-72527420D01*
X144006284Y-72544976D01*
X143995610Y-72561226D01*
X143983329Y-72577061D01*
X143983324Y-72577068D01*
X143964815Y-72619838D01*
X143962245Y-72625084D01*
X143939803Y-72665906D01*
X143934822Y-72685307D01*
X143928521Y-72703710D01*
X143920562Y-72722102D01*
X143920561Y-72722105D01*
X143913271Y-72768127D01*
X143912087Y-72773846D01*
X143900501Y-72818972D01*
X143900500Y-72818982D01*
X143900500Y-72839016D01*
X143898973Y-72858415D01*
X143895840Y-72878194D01*
X143895840Y-72878195D01*
X143900225Y-72924583D01*
X143900500Y-72930421D01*
X143900500Y-83128546D01*
X143880815Y-83195585D01*
X143864181Y-83216227D01*
X142149791Y-84930615D01*
X142088468Y-84964100D01*
X142018776Y-84959116D01*
X142018619Y-84959000D01*
X141149686Y-84959000D01*
X141175493Y-84918844D01*
X141216000Y-84780889D01*
X141216000Y-84637111D01*
X141175493Y-84499156D01*
X141149686Y-84459000D01*
X141994872Y-84459000D01*
X141994872Y-84458999D01*
X141942269Y-84262682D01*
X141942265Y-84262673D01*
X141846134Y-84056517D01*
X141715657Y-83870179D01*
X141554820Y-83709342D01*
X141368482Y-83578865D01*
X141310133Y-83551657D01*
X141257694Y-83505484D01*
X141238542Y-83438291D01*
X141258758Y-83371410D01*
X141310129Y-83326895D01*
X141368734Y-83299568D01*
X141555139Y-83169047D01*
X141716047Y-83008139D01*
X141846568Y-82821734D01*
X141942739Y-82615496D01*
X142001635Y-82395692D01*
X142021468Y-82169000D01*
X142001635Y-81942308D01*
X141942739Y-81722504D01*
X141846568Y-81516266D01*
X141716047Y-81329861D01*
X141716045Y-81329858D01*
X141555141Y-81168954D01*
X141368734Y-81038432D01*
X141368728Y-81038429D01*
X141310725Y-81011382D01*
X141258285Y-80965210D01*
X141239133Y-80898017D01*
X141259348Y-80831135D01*
X141310725Y-80786618D01*
X141311319Y-80786341D01*
X141368734Y-80759568D01*
X141555139Y-80629047D01*
X141716047Y-80468139D01*
X141846568Y-80281734D01*
X141942739Y-80075496D01*
X142001635Y-79855692D01*
X142021468Y-79629000D01*
X142001635Y-79402308D01*
X141942739Y-79182504D01*
X141846568Y-78976266D01*
X141716047Y-78789861D01*
X141716045Y-78789858D01*
X141555143Y-78628956D01*
X141530536Y-78611726D01*
X141486912Y-78557149D01*
X141479719Y-78487650D01*
X141511241Y-78425296D01*
X141571471Y-78389882D01*
X141588404Y-78386861D01*
X141623483Y-78383091D01*
X141758331Y-78332796D01*
X141873546Y-78246546D01*
X141959796Y-78131331D01*
X142010091Y-77996483D01*
X142016500Y-77936873D01*
X142016499Y-76241128D01*
X142010091Y-76181517D01*
X141975567Y-76088954D01*
X141959797Y-76046671D01*
X141959793Y-76046664D01*
X141873547Y-75931455D01*
X141873544Y-75931452D01*
X141758335Y-75845206D01*
X141758328Y-75845202D01*
X141623482Y-75794908D01*
X141623483Y-75794908D01*
X141563883Y-75788501D01*
X141563881Y-75788500D01*
X141563873Y-75788500D01*
X141563864Y-75788500D01*
X139868129Y-75788500D01*
X139868123Y-75788501D01*
X139808516Y-75794908D01*
X139673671Y-75845202D01*
X139673664Y-75845206D01*
X139558455Y-75931452D01*
X139558452Y-75931455D01*
X139472206Y-76046664D01*
X139472202Y-76046671D01*
X139421908Y-76181517D01*
X139415501Y-76241116D01*
X139415501Y-76241123D01*
X139415500Y-76241135D01*
X139415500Y-77936870D01*
X139415501Y-77936876D01*
X139421908Y-77996483D01*
X139472202Y-78131328D01*
X139472206Y-78131335D01*
X139558452Y-78246544D01*
X139558455Y-78246547D01*
X139673664Y-78332793D01*
X139673671Y-78332797D01*
X139718618Y-78349560D01*
X139808517Y-78383091D01*
X139843596Y-78386862D01*
X139908144Y-78413599D01*
X139947993Y-78470991D01*
X139950488Y-78540816D01*
X139914836Y-78600905D01*
X139901464Y-78611725D01*
X139876858Y-78628954D01*
X139715954Y-78789858D01*
X139585432Y-78976265D01*
X139585431Y-78976267D01*
X139489261Y-79182502D01*
X139489258Y-79182511D01*
X139430366Y-79402302D01*
X139430364Y-79402313D01*
X139410532Y-79628998D01*
X139410532Y-79629001D01*
X139430364Y-79855686D01*
X139430366Y-79855697D01*
X139489258Y-80075488D01*
X139489261Y-80075497D01*
X139585431Y-80281732D01*
X139585432Y-80281734D01*
X139715954Y-80468141D01*
X139876858Y-80629045D01*
X139876861Y-80629047D01*
X140063266Y-80759568D01*
X140120681Y-80786341D01*
X140121275Y-80786618D01*
X140173714Y-80832791D01*
X140192866Y-80899984D01*
X140172650Y-80966865D01*
X140121275Y-81011382D01*
X140063267Y-81038431D01*
X140063265Y-81038432D01*
X139876858Y-81168954D01*
X139715954Y-81329858D01*
X139585432Y-81516265D01*
X139585431Y-81516267D01*
X139489261Y-81722502D01*
X139489258Y-81722511D01*
X139430366Y-81942302D01*
X139430364Y-81942313D01*
X139410532Y-82168998D01*
X139410532Y-82169001D01*
X139430364Y-82395686D01*
X139430366Y-82395697D01*
X139489258Y-82615488D01*
X139489261Y-82615497D01*
X139585431Y-82821732D01*
X139585432Y-82821734D01*
X139715954Y-83008141D01*
X139876858Y-83169045D01*
X139876861Y-83169047D01*
X140063266Y-83299568D01*
X140121865Y-83326893D01*
X140174305Y-83373065D01*
X140193457Y-83440258D01*
X140173242Y-83507139D01*
X140121867Y-83551657D01*
X140063515Y-83578867D01*
X139877179Y-83709342D01*
X139716342Y-83870179D01*
X139585865Y-84056517D01*
X139489734Y-84262673D01*
X139489730Y-84262682D01*
X139437127Y-84458999D01*
X139437128Y-84459000D01*
X140282314Y-84459000D01*
X140256507Y-84499156D01*
X140216000Y-84637111D01*
X140216000Y-84780889D01*
X140256507Y-84918844D01*
X140282314Y-84959000D01*
X139437128Y-84959000D01*
X139489730Y-85155317D01*
X139489734Y-85155326D01*
X139585865Y-85361482D01*
X139716342Y-85547820D01*
X139877179Y-85708657D01*
X140063518Y-85839134D01*
X140063520Y-85839135D01*
X140121865Y-85866342D01*
X140174305Y-85912514D01*
X140193457Y-85979707D01*
X140173242Y-86046589D01*
X140121867Y-86091105D01*
X140063268Y-86118431D01*
X140063264Y-86118433D01*
X139876858Y-86248954D01*
X139715954Y-86409858D01*
X139585432Y-86596265D01*
X139585431Y-86596267D01*
X139489261Y-86802502D01*
X139489258Y-86802511D01*
X139430366Y-87022302D01*
X139430364Y-87022313D01*
X139410532Y-87248998D01*
X139410532Y-87249001D01*
X139430364Y-87475686D01*
X139430366Y-87475697D01*
X139489258Y-87695488D01*
X139489261Y-87695497D01*
X139585431Y-87901732D01*
X139585432Y-87901734D01*
X139715954Y-88088141D01*
X139876858Y-88249045D01*
X139876861Y-88249047D01*
X140063266Y-88379568D01*
X140121275Y-88406618D01*
X140173714Y-88452791D01*
X140192866Y-88519984D01*
X140172650Y-88586865D01*
X140121275Y-88631382D01*
X140063267Y-88658431D01*
X140063265Y-88658432D01*
X139876858Y-88788954D01*
X139715954Y-88949858D01*
X139585432Y-89136265D01*
X139585431Y-89136267D01*
X139489261Y-89342502D01*
X139489258Y-89342511D01*
X139430366Y-89562302D01*
X139430364Y-89562313D01*
X139410532Y-89788998D01*
X139410532Y-89789001D01*
X139430364Y-90015686D01*
X139430366Y-90015697D01*
X139489258Y-90235488D01*
X139489261Y-90235497D01*
X139585431Y-90441732D01*
X139585432Y-90441734D01*
X139715954Y-90628141D01*
X139876858Y-90789045D01*
X139876861Y-90789047D01*
X140063266Y-90919568D01*
X140121275Y-90946618D01*
X140173714Y-90992791D01*
X140192866Y-91059984D01*
X140172650Y-91126865D01*
X140121275Y-91171382D01*
X140063267Y-91198431D01*
X140063265Y-91198432D01*
X139876858Y-91328954D01*
X139715954Y-91489858D01*
X139585432Y-91676265D01*
X139585431Y-91676267D01*
X139489261Y-91882502D01*
X139489258Y-91882511D01*
X139430366Y-92102302D01*
X139430364Y-92102313D01*
X139410532Y-92328998D01*
X139410532Y-92329001D01*
X139430364Y-92555686D01*
X139430366Y-92555697D01*
X139489258Y-92775488D01*
X139489261Y-92775497D01*
X139585431Y-92981732D01*
X139585432Y-92981734D01*
X139715954Y-93168141D01*
X139876858Y-93329045D01*
X139876861Y-93329047D01*
X140063266Y-93459568D01*
X140121275Y-93486618D01*
X140173714Y-93532791D01*
X140192866Y-93599984D01*
X140172650Y-93666865D01*
X140121275Y-93711382D01*
X140063267Y-93738431D01*
X140063265Y-93738432D01*
X139876858Y-93868954D01*
X139715954Y-94029858D01*
X139585432Y-94216265D01*
X139585431Y-94216267D01*
X139489261Y-94422502D01*
X139489258Y-94422511D01*
X139430366Y-94642302D01*
X139430364Y-94642313D01*
X139410532Y-94868998D01*
X139410532Y-94869001D01*
X139430364Y-95095686D01*
X139430366Y-95095697D01*
X139489258Y-95315488D01*
X139489261Y-95315497D01*
X139585431Y-95521732D01*
X139585432Y-95521734D01*
X139715954Y-95708141D01*
X139876858Y-95869045D01*
X139876861Y-95869047D01*
X140063266Y-95999568D01*
X140121275Y-96026618D01*
X140173714Y-96072791D01*
X140192866Y-96139984D01*
X140172650Y-96206865D01*
X140121275Y-96251382D01*
X140063267Y-96278431D01*
X140063265Y-96278432D01*
X139876858Y-96408954D01*
X139715954Y-96569858D01*
X139585432Y-96756265D01*
X139585431Y-96756267D01*
X139489261Y-96962502D01*
X139489258Y-96962511D01*
X139430366Y-97182302D01*
X139430364Y-97182313D01*
X139410532Y-97408998D01*
X139410532Y-97409001D01*
X139430364Y-97635686D01*
X139430366Y-97635697D01*
X139489258Y-97855488D01*
X139489261Y-97855497D01*
X139585431Y-98061732D01*
X139585432Y-98061734D01*
X139715954Y-98248141D01*
X139876858Y-98409045D01*
X139876861Y-98409047D01*
X140063266Y-98539568D01*
X140121275Y-98566618D01*
X140173714Y-98612791D01*
X140192866Y-98679984D01*
X140172650Y-98746865D01*
X140121275Y-98791382D01*
X140063267Y-98818431D01*
X140063265Y-98818432D01*
X139876858Y-98948954D01*
X139715954Y-99109858D01*
X139585432Y-99296265D01*
X139585431Y-99296267D01*
X139489261Y-99502502D01*
X139489258Y-99502511D01*
X139430366Y-99722302D01*
X139430364Y-99722313D01*
X139410532Y-99948998D01*
X139410532Y-99949001D01*
X139430364Y-100175686D01*
X139430366Y-100175697D01*
X139489258Y-100395488D01*
X139489261Y-100395497D01*
X139585431Y-100601732D01*
X139585432Y-100601734D01*
X139715954Y-100788141D01*
X139876858Y-100949045D01*
X139876861Y-100949047D01*
X140063266Y-101079568D01*
X140121275Y-101106618D01*
X140173714Y-101152791D01*
X140192866Y-101219984D01*
X140172650Y-101286865D01*
X140121275Y-101331382D01*
X140063267Y-101358431D01*
X140063265Y-101358432D01*
X139876858Y-101488954D01*
X139715954Y-101649858D01*
X139585432Y-101836265D01*
X139585431Y-101836267D01*
X139489261Y-102042502D01*
X139489258Y-102042511D01*
X139430366Y-102262302D01*
X139430364Y-102262313D01*
X139410532Y-102488998D01*
X139410532Y-102489001D01*
X139430364Y-102715686D01*
X139430366Y-102715697D01*
X139489258Y-102935488D01*
X139489261Y-102935497D01*
X139585431Y-103141732D01*
X139585432Y-103141734D01*
X139715954Y-103328141D01*
X139876858Y-103489045D01*
X139876861Y-103489047D01*
X140063266Y-103619568D01*
X140121275Y-103646618D01*
X140173714Y-103692791D01*
X140192866Y-103759984D01*
X140172650Y-103826865D01*
X140121275Y-103871382D01*
X140063267Y-103898431D01*
X140063265Y-103898432D01*
X139876858Y-104028954D01*
X139715954Y-104189858D01*
X139585432Y-104376265D01*
X139585431Y-104376267D01*
X139489261Y-104582502D01*
X139489258Y-104582511D01*
X139430366Y-104802302D01*
X139430364Y-104802313D01*
X139410532Y-105028998D01*
X139410532Y-105029001D01*
X139430364Y-105255686D01*
X139430366Y-105255697D01*
X139489258Y-105475488D01*
X139489261Y-105475497D01*
X139585431Y-105681732D01*
X139585432Y-105681734D01*
X139715954Y-105868141D01*
X139876858Y-106029045D01*
X140045046Y-106146810D01*
X140063266Y-106159568D01*
X140121278Y-106186619D01*
X140173713Y-106232788D01*
X140192866Y-106299982D01*
X140172651Y-106366863D01*
X140121277Y-106411380D01*
X140063268Y-106438430D01*
X140063265Y-106438432D01*
X139876858Y-106568954D01*
X139715954Y-106729858D01*
X139585432Y-106916265D01*
X139585431Y-106916267D01*
X139489261Y-107122502D01*
X139489258Y-107122511D01*
X139430366Y-107342302D01*
X139430364Y-107342313D01*
X139410532Y-107568998D01*
X139410532Y-107569001D01*
X139430364Y-107795686D01*
X139430366Y-107795697D01*
X139489258Y-108015488D01*
X139489261Y-108015497D01*
X139585431Y-108221732D01*
X139585432Y-108221734D01*
X139715954Y-108408141D01*
X139876858Y-108569045D01*
X139945346Y-108617000D01*
X140063266Y-108699568D01*
X140121278Y-108726619D01*
X140173713Y-108772788D01*
X140192866Y-108839982D01*
X140172651Y-108906863D01*
X140121277Y-108951380D01*
X140063268Y-108978430D01*
X140063265Y-108978432D01*
X139876858Y-109108954D01*
X139715954Y-109269858D01*
X139585432Y-109456265D01*
X139585431Y-109456267D01*
X139489261Y-109662502D01*
X139489258Y-109662511D01*
X139430366Y-109882302D01*
X139430364Y-109882313D01*
X139410532Y-110108998D01*
X139410532Y-110109001D01*
X139430364Y-110335686D01*
X139430366Y-110335697D01*
X139489258Y-110555488D01*
X139489261Y-110555497D01*
X139585431Y-110761732D01*
X139585432Y-110761734D01*
X139715954Y-110948141D01*
X139876858Y-111109045D01*
X139876861Y-111109047D01*
X140063266Y-111239568D01*
X140121278Y-111266619D01*
X140173713Y-111312788D01*
X140192866Y-111379982D01*
X140172651Y-111446863D01*
X140121277Y-111491380D01*
X140063268Y-111518430D01*
X140063265Y-111518432D01*
X139876858Y-111648954D01*
X139715954Y-111809858D01*
X139585432Y-111996265D01*
X139585431Y-111996267D01*
X139489261Y-112202502D01*
X139489258Y-112202511D01*
X139430366Y-112422302D01*
X139430364Y-112422313D01*
X139410532Y-112648998D01*
X139410532Y-112649001D01*
X137160000Y-112649001D01*
X137160000Y-33144000D01*
X137179685Y-33076961D01*
X137232489Y-33031206D01*
X137284000Y-33020000D01*
X196218000Y-33020000D01*
X196285039Y-33039685D01*
G37*
G04 #@! TD.AperFunction*
M02*
